<svg width="20" height="20" xmlns="http://www.w3.org/2000/svg"><g opacity=".33"><path d="M9.92 4.91c-2.78 0-5.42 1.77-7.53 4.95l-.371.555.371.555c2.12 3.17 4.76 4.95 7.53 4.95 2.78 0 5.42-1.77 7.53-4.95l.371-.555-.371-.555c-2.12-3.17-4.76-4.95-7.53-4.95zm0 2c1.75 0 3.6 1.19 5.34 3.5-1.74 2.31-3.59 3.5-5.34 3.5s-3.6-1.19-5.34-3.5c1.74-2.31 3.59-3.5 5.34-3.5z"/><path d="M9.84 5.31C7.72 5.31 6 7.04 6 9.15c0 2.12 1.73 3.84 3.84 3.84 2.12 0 3.84-1.73 3.84-3.84 0-2.12-1.73-3.84-3.84-3.84zm0 1c1.58 0 2.84 1.27 2.84 2.84 0 1.58-1.27 2.84-2.84 2.84C8.26 11.99 7 10.72 7 9.15c0-1.58 1.27-2.84 2.84-2.84z"/></g></svg>
