<?xml version="1.0" encoding="UTF-8" standalone="no"?>
<svg
   xmlns:dc="http://purl.org/dc/elements/1.1/"
   xmlns:cc="http://creativecommons.org/ns#"
   xmlns:rdf="http://www.w3.org/1999/02/22-rdf-syntax-ns#"
   xmlns:svg="http://www.w3.org/2000/svg"
   xmlns="http://www.w3.org/2000/svg"
   xmlns:sodipodi="http://sodipodi.sourceforge.net/DTD/sodipodi-0.dtd"
   xmlns:inkscape="http://www.inkscape.org/namespaces/inkscape"
   inkscape:version="1.0beta2 (2b71d25, 2019-12-03)"
   sodipodi:docname="languageSwitcher.svg"
   id="svg14"
   version="1.1"
   viewBox="0 0 20 20"
   height="20"
   width="20">
  <metadata
     id="metadata20">
    <rdf:RDF>
      <cc:Work
         rdf:about="">
        <dc:format>image/svg+xml</dc:format>
        <dc:type
           rdf:resource="http://purl.org/dc/dcmitype/StillImage" />
      </cc:Work>
    </rdf:RDF>
  </metadata>
  <defs
     id="defs18" />
  <sodipodi:namedview
     inkscape:current-layer="svg14"
     inkscape:window-maximized="0"
     inkscape:window-y="23"
     inkscape:window-x="0"
     inkscape:cy="10"
     inkscape:cx="10"
     inkscape:zoom="39.8"
     showgrid="false"
     id="namedview16"
     inkscape:window-height="944"
     inkscape:window-width="1789"
     inkscape:pageshadow="2"
     inkscape:pageopacity="0"
     guidetolerance="10"
     gridtolerance="10"
     objecttolerance="10"
     borderopacity="1"
     inkscape:document-rotation="0"
     bordercolor="#666666"
     pagecolor="#ffffff" />
  <title
     id="title10">language</title>
  <path
     style="fill:#e3dbdb"
     id="path12"
     d="M20 18h-1.44a.61.61 0 0 1-.4-.12.81.81 0 0 1-.23-.31L17 15h-5l-1 2.54a.77.77 0 0 1-.22.3.59.59 0 0 1-.4.14H9l4.55-11.47h1.89zm-3.53-4.31L14.89 9.5a11.62 11.62 0 0 1-.39-1.24q-.09.37-.19.69l-.19.56-1.58 4.19zm-6.3-1.58a13.43 13.43 0 0 1-2.91-1.41 11.46 11.46 0 0 0 2.81-5.37H12V4H7.31a4 4 0 0 0-.2-.56C6.87 2.79 6.6 2 6.6 2l-1.47.5s.4.89.6 1.5H0v1.33h2.15A11.23 11.23 0 0 0 5 10.7a17.19 17.19 0 0 1-5 2.1q.56.82.87 1.38a23.28 23.28 0 0 0 5.22-2.51 15.64 15.64 0 0 0 3.56 1.77zM3.63 5.33h4.91a8.11 8.11 0 0 1-2.45 4.45 9.11 9.11 0 0 1-2.46-4.45z" />
</svg>
