<?xml version="1.0" encoding="UTF-8" standalone="no"?>
<svg
   xmlns:dc="http://purl.org/dc/elements/1.1/"
   xmlns:cc="http://creativecommons.org/ns#"
   xmlns:rdf="http://www.w3.org/1999/02/22-rdf-syntax-ns#"
   xmlns:svg="http://www.w3.org/2000/svg"
   xmlns="http://www.w3.org/2000/svg"
   version="1.1"
   x="0px"
   y="0px"
   viewBox="0 0 24 24"
   enable-background="new 0 0 100 100"
   xml:space="preserve"
   id="svg2"
   width="24"
   height="24"><metadata
     id="metadata10"><rdf:RDF><cc:Work
         rdf:about=""><dc:format>image/svg+xml</dc:format><dc:type
           rdf:resource="http://purl.org/dc/dcmitype/StillImage" /><dc:title></dc:title></cc:Work></rdf:RDF></metadata><defs
     id="defs8" /><path
     d="m 17.444993,12.425248 c -0.813385,-0.934806 -1.774985,-0.738744 -2.883314,-1.768606 -0.549912,-0.510996 -0.497601,-3.0595681 -0.497601,-3.0595681 0,0 -0.04125,-2.3367342 0.523544,-2.9017438 0.390424,-0.3895739 1.076006,-0.4903697 1.475362,-0.8824955 0.0038,-0.00277 0.0064,-0.00532 0.0092,-0.00893 0.08634,-0.086336 0.156298,-0.1879822 0.207972,-0.3085543 0.0064,-0.012759 0.0134,-0.022541 0.01786,-0.035087 0.03508,-0.091865 0.05401,-0.1996778 0.06401,-0.3157845 0.0027,-0.029771 0.01701,-0.054863 0.01701,-0.084634 0,-0.00532 -0.0027,-0.00978 -0.0036,-0.01531 8.5e-4,-0.00808 0.0036,-0.014247 0.0036,-0.022328 0,-0.019777 -0.01509,-0.029771 -0.01701,-0.047846 -0.0462,-0.5435351 -0.487875,-0.9743628 -1.04289,-0.9743628 l -6.6384913,0 c -0.5550151,0 -0.9969008,0.4308277 -1.0426201,0.97436 -0.00189,0.017863 -0.017221,0.027857 -0.017221,0.047846 0,0.00808 0.00274,0.014247 0.00358,0.022328 -8.515e-4,0.00553 -0.00358,0.00999 -0.00358,0.01531 0,0.029771 0.014463,0.054863 0.017221,0.084634 0.00979,0.1158939 0.028705,0.2239199 0.063799,0.3157844 0.00442,0.012546 0.011695,0.022328 0.018073,0.035087 0.051252,0.1205722 0.1214223,0.2222187 0.2077578,0.3085544 0.00274,0.00361 0.00537,0.00617 0.00895,0.00893 0.3993555,0.3923384 1.0849373,0.4929216 1.4753617,0.8824955 0.5650093,0.5650096 0.5235433,2.9017437 0.5235433,2.9017437 0,0 0.05232,2.548573 -0.4975995,3.059569 -1.1081162,1.029862 -2.0697176,0.833799 -2.8828889,1.768606 -0.5758552,0.66219 -0.470381,1.842395 -0.470381,1.842395 l 5.248,0 0,5.310359 0.619212,2.422002 0.09718,0 0.61938,-2.422002 0,-5.310359 5.246981,0 c 0,0 0.105262,-1.180205 -0.47038,-1.842395 z"
     id="path4" /></svg>