<?xml version="1.0" encoding="UTF-8"?><svg xmlns="http://www.w3.org/2000/svg" width="20" height="20" viewBox="0 0 20 20"><title>
		appearance
	</title><path fill="#36c" d="M16.25 3A2.75 2.75 0 0 1 19 5.75V14a4 4 0 0 1-7.874 1H8.874A4.002 4.002 0 0 1 1 14V5.75a2.75 2.75 0 0 1 5.5 0V7h-2V5.75a.75.75 0 0 0-1.5 0v4.786A4.002 4.002 0 0 1 8.874 13h2.252A4.002 4.002 0 0 1 17 10.536V5.75a.75.75 0 0 0-1.5 0V7h-2V5.75A2.75 2.75 0 0 1 16.25 3M5 12a2 2 0 1 0 0 4 2 2 0 0 0 0-4m10 0a2 2 0 1 0 0 4 2 2 0 0 0 0-4"/></svg>
