<?xml version="1.0" encoding="UTF-8"?><svg xmlns="http://www.w3.org/2000/svg" width="20" height="20" viewBox="0 0 20 20"><g fill="#36c"><title>
		article not found
	</title><path d="M18 1v18h-4v-2h2V3H4v14h2v2H2V1z"/><path d="M11 19H9v-2h2zM10 5c2.746 0 4 2.044 4 3.564 0 1.236-.578 1.995-1.203 2.548-.274.242-.612.49-.84.671a4.3 4.3 0 0 0-.644.594c-.217.258-.313.687-.313 1.378V15H9v-1.245c0-.748.075-1.823.784-2.666.305-.362.64-.646.933-.876.32-.253.535-.405.755-.599.36-.318.528-.574.528-1.05C12 8.034 11.53 7 10 7c-1.33 0-2 .921-2 1.667v.666H6v-.666C6 6.746 7.638 5 10 5"/></g></svg>
