<?xml version="1.0" encoding="UTF-8"?><svg xmlns="http://www.w3.org/2000/svg" width="20" height="20" viewBox="0 0 20 20"><title>
		article not found
	</title><path d="M9 16h2v-2H9zm1-12c-1.015 0-1.794.425-2.302 1.031A3 3 0 0 0 7 6.923c0 .915.36 1.525.799 1.984.19.2.408.382.56.514.167.146.295.262.403.389.159.185.238.519.238 1.164V12h2v-1.026c0-.645-.04-1.671-.72-2.465a6 6 0 0 0-.61-.598c-.193-.168-.316-.271-.426-.386C9.082 7.355 9 7.22 9 6.923c0-.164.07-.415.232-.609C9.37 6.152 9.59 6 10 6c.604 0 1 .476 1 1v.5h2V7c0-1.476-1.144-3-3-3"/><path d="M2 20h16V0H2zm14-2H4V2h12z"/></svg>
