<?xml version="1.0" encoding="UTF-8"?><svg xmlns="http://www.w3.org/2000/svg" width="20" height="20" viewBox="0 0 20 20"><title>
		article not found
	</title><g fill="#36c"><path d="M18 1v18h-4v-2h2V3H4v14h2v2H2V1z"/><path d="M11 17v2H9v-2zM10 5c2.362 0 4 1.746 4 3.667v.666h-2v-.666C12 7.921 11.33 7 10 7 8.47 7 8 8.034 8 8.564c0 .476.168.732.528 1.05.22.194.435.346.755.599.293.23.628.514.933.876.709.843.784 1.918.784 2.666V15H9v-1.245c0-.691-.096-1.12-.313-1.378a4.3 4.3 0 0 0-.644-.594c-.228-.18-.566-.429-.84-.67C6.578 10.558 6 9.8 6 8.563 6 7.044 7.254 5 10 5"/></g></svg>
