<?xml version="1.0" encoding="UTF-8"?><svg xmlns="http://www.w3.org/2000/svg" width="20" height="20" viewBox="0 0 20 20"><title>
		article not found
	</title><path d="M11 16H9v-2h2zM10 4c1.015 0 1.794.425 2.302 1.031.48.575.698 1.287.698 1.892 0 .915-.36 1.525-.799 1.984-.19.2-.408.382-.56.514a4 4 0 0 0-.403.389c-.159.185-.238.519-.238 1.164V12H9v-1.026c0-.645.04-1.671.72-2.465.21-.246.432-.444.61-.598.193-.168.316-.271.426-.386.162-.17.244-.306.244-.602 0-.164-.07-.415-.232-.609C10.63 6.152 10.41 6 10 6c-.604 0-1 .476-1 1v.5H7V7c0-1.476 1.144-3 3-3"/><path d="M18 20H2V0h16zM4 18h12V2H4z"/></svg>
