<?xml version="1.0" encoding="UTF-8"?><svg xmlns="http://www.w3.org/2000/svg" width="20" height="20" viewBox="0 0 20 20"><title>article not found</title><path d="M5 1c-1.1 0-2 .9-2 2v14c0 1.1.9 2 2 2h10c1.1 0 2-.9 2-2V3c0-1.1-.9-2-2-2H5zm4.98 4.201c.385 0 .744.06 1.079.174.33.114.623.282.869.5s.443.487.586.814c.143.323.215.692.215 1.1a3.19 3.19 0 0 1-.106.783h.004a2.144 2.144 0 0 1-.25.563c-.104.16-.226.3-.361.424l-.403.363-.437.396c-.134.127-.25.273-.354.428a1.84 1.84 0 0 0-.232.555c-.054.215-.08.475-.08.785H9.15c0-.378.017-.696.057-.955.036-.26.099-.49.184-.69a2.21 2.21 0 0 1 .308-.52c.12-.15.268-.294.434-.439l.385-.332a2.24 2.24 0 0 0 .328-.34 1.53 1.53 0 0 0 .226-.42 1.67 1.67 0 0 0 .08-.55c0-.256-.044-.48-.133-.66a1.397 1.397 0 0 0-.322-.442 1.35 1.35 0 0 0-.402-.246 1.17 1.17 0 0 0-.375-.078c-.52 0-.905.175-1.15.522-.248.345-.374.808-.374 1.388H6.963c0-.468.066-.894.205-1.28a2.641 2.641 0 0 1 1.56-1.62c.37-.15.79-.223 1.252-.223zm-1.023 7.772h1.688v1.6H8.957v-1.6z"/></svg>