<?xml version="1.0" encoding="UTF-8"?><svg xmlns="http://www.w3.org/2000/svg" width="20" height="20" viewBox="0 0 20 20"><title>
		article disambiguation
	</title><path fill="#36c" d="M6.615 2.5 5.115 4H6.97a4 4 0 0 1 3.714 2.515l.49 1.228A2 2 0 0 0 13.033 9h2.969V3h2v14h-2v-6h-2.968a2 2 0 0 0-1.858 1.257l-.49 1.228A4 4 0 0 1 6.97 16H5.114l1.5 1.5L5.2 18.914 2 15.707v-1.414l3.2-3.207L6.614 12.5l-1.5 1.5H6.97a2 2 0 0 0 1.86-1.257l.49-1.228A4 4 0 0 1 10.39 10a4 4 0 0 1-1.072-1.515l-.49-1.228A2 2 0 0 0 6.97 6H5.115l1.5 1.5-1.414 1.414-3.2-3.207V4.293l3.2-3.207z"/></svg>
