<?xml version="1.0" encoding="UTF-8"?><svg xmlns="http://www.w3.org/2000/svg" width="20" height="20" viewBox="0 0 20 20"><title>article not found</title><path d="M5 1c-1.1 0-2 .9-2 2v14c0 1.1.9 2 2 2h10c1.1 0 2-.9 2-2V3c0-1.1-.9-2-2-2"/><path fill="#fff" d="M9 14h2v2H9zM6.2 7.4c0-.5.1-1 .3-1.5.2-.4.4-.8.8-1.1.3-.2.7-.4 1.1-.6.4-.1.9-.2 1.4-.2.6 0 1.1.1 1.7.3.5.2.9.5 1.3.8.4.4.6.8.8 1.3.2.5.3 1.1.3 1.7H12c0-.6-.1-1.3-.5-1.8s-.9-.7-1.5-.7c-.2 0-.3 0-.5.1-.5.1-.9.5-1.1.9-.1.3-.1.6-.1.9 0 .2 0 .5.1.7l.3.6.4.4c.2.1.3.3.5.4l.6.6c.2.2.3.4.4.7.1.3.2.6.2.9.1.4.1.8.1 1.2H9.1c0-.3 0-.7-.1-1-.1-.3-.2-.5-.3-.8-.1-.2-.3-.4-.5-.6-.2-.2-.4-.3-.6-.5l-.5-.4c-.2-.2-.3-.4-.5-.6-.1-.2-.2-.4-.3-.7-.1-.3-.1-.7-.1-1z"/></svg>