<?xml version="1.0" encoding="UTF-8"?><svg xmlns="http://www.w3.org/2000/svg" width="20" height="20" viewBox="0 0 20 20"><title>article not found</title><path fill="#fff" d="M15 1c1.1 0 2 .9 2 2v14c0 1.1-.9 2-2 2H5c-1.1 0-2-.9-2-2V3c0-1.1.9-2 2-2zm-4.98 4.201c-.385 0-.744.06-1.079.174-.33.114-.623.282-.869.5s-.443.487-.586.814a2.697 2.697 0 0 0-.215 1.1c.01.306.042.564.106.783h-.004a2.144 2.144 0 0 0 .25.563c.104.16.226.3.361.424l.403.363.437.396c.134.127.25.273.354.428.103.16.18.346.232.555.054.215.08.475.08.785h1.36a6.45 6.45 0 0 0-.057-.955 2.708 2.708 0 0 0-.184-.69 2.21 2.21 0 0 0-.308-.52 3.506 3.506 0 0 0-.434-.439l-.385-.332a2.24 2.24 0 0 1-.328-.34 1.53 1.53 0 0 1-.226-.42 1.67 1.67 0 0 1-.08-.55c0-.256.044-.48.133-.66a1.397 1.397 0 0 1 .322-.442 1.35 1.35 0 0 1 .402-.246 1.17 1.17 0 0 1 .375-.078c.52 0 .906.175 1.15.522.248.345.374.808.374 1.388h1.433c0-.468-.066-.894-.205-1.28a2.641 2.641 0 0 0-1.56-1.62c-.37-.15-.79-.223-1.252-.223zm1.023 7.772H9.355v1.6h1.688z"/></svg>