<?xml version="1.0" encoding="UTF-8"?><svg xmlns="http://www.w3.org/2000/svg" width="20" height="20" viewBox="0 0 20 20"><g fill="#36c"><title>article not found</title><path d="M5 1c-1.1 0-2 .9-2 2v14c0 1.1.9 2 2 2h10c1.1 0 2-.9 2-2V3c0-1.1-.9-2-2-2"/><path fill="#fff" d="M9 14h2v2H9zm4.7-5.6c-.1.3-.2.5-.3.7-.1.2-.3.4-.5.6l-.5.5c-.2.2-.4.4-.6.5-.2.2-.3.4-.5.6-.1.2-.3.5-.3.8-.1.3-.1.7-.1 1H9.1c0-.4 0-.8.1-1.2 0-.3.1-.6.2-.9.1-.2.2-.5.4-.7l.6-.6c.2-.2.3-.3.5-.4.2-.1.3-.3.4-.4l.3-.6c.1-.2.1-.5.1-.7 0-.3-.1-.6-.2-.9-.2-.4-.6-.7-1-.9-.2-.1-.3-.1-.5-.1-.6 0-1.2.2-1.5.7-.3.4-.5 1-.5 1.7H6.2c0-.6.1-1.1.3-1.7.2-.5.4-.9.8-1.3.3-.3.7-.6 1.2-.8.6-.2 1.1-.3 1.7-.3.5 0 1 .1 1.4.2.4.1.8.4 1.1.7.3.3.6.7.8 1.1.2.5.3 1 .3 1.5 0 .2 0 .6-.1.9z"/></g></svg>