<?xml version="1.0" encoding="UTF-8"?><svg xmlns="http://www.w3.org/2000/svg" width="20" height="20" viewBox="0 0 20 20"><title>
		article disambiguation
	</title><path d="M18 4.293v1.414l-3.2 3.207L13.386 7.5l1.5-1.5H13.03a2 2 0 0 0-1.857 1.257l-.491 1.228A4 4 0 0 1 9.61 10c.462.406.835.92 1.073 1.515l.49 1.228A2 2 0 0 0 13.032 14h1.855l-1.5-1.5 1.414-1.414 3.2 3.207v1.414l-3.2 3.207-1.414-1.414 1.5-1.5H13.03a4 4 0 0 1-3.714-2.515l-.49-1.228A2 2 0 0 0 6.968 11H4v6H2V3h2v6h2.969a2 2 0 0 0 1.857-1.257l.491-1.228A4 4 0 0 1 13.031 4h1.855l-1.5-1.5L14.8 1.086z"/></svg>
