<?xml version="1.0" encoding="UTF-8"?><svg xmlns="http://www.w3.org/2000/svg" width="20" height="20" viewBox="0 0 20 20"><g fill="#36c"><title>
		bold
	</title><path d="M10 .5c3.887 0 6.633 2.577 7.397 4.867l-3.794 1.266C13.366 5.923 12.113 4.5 10 4.5c-.913 0-2.08.268-3.031.996-.89.682-1.77 1.9-1.978 4.185-.199 2.192.49 3.577 1.39 4.435.954.91 2.312 1.384 3.62 1.384.884 0 2.052-.193 2.94-.8.474-.326.964-.83 1.265-1.7H10V9h8.5v2c0 3.4-1.357 5.67-3.3 7-1.815 1.242-3.897 1.5-5.2 1.5-2.192 0-4.585-.777-6.38-2.491-1.851-1.767-2.913-4.382-2.612-7.69.3-3.292 1.67-5.574 3.528-6.998C6.334.944 8.414.5 10 .5"/></g></svg>
