<?xml version="1.0" encoding="UTF-8"?><svg xmlns="http://www.w3.org/2000/svg" width="20" height="20" viewBox="0 0 20 20"><g fill="#36c"><title>
		bold
	</title><path d="m9.8 14 .4-1 .6.2a10 10 0 0 0 2.6.2c1 0 1.8 0 2.5-.2s1.3-.4 1.7-.7A3 3 0 0 0 19 10c0-.6-.1-1-.4-1.5a2 2 0 0 0-1-1c-.5-.3-1-.5-1.7-.5l-1.3.3c-.4 0-.8.3-1.2.5a8.7 8.7 0 0 0-2.3 2l-.7.8a.7.7 0 0 1-.2-.2l-.2-.3a28 28 0 0 0-.4-1.7l-.1-.3-2.8.7.1.3.5 1.6.2 1.3-.1.6-.4.5-.6.2a4 4 0 0 1-1 .1l-1-.1-.5-.5a1 1 0 0 1-.2-.6v-.4l.2-.4.2-.8.1-.3-2.4-.8-.1.3-.5 1.2a6.7 6.7 0 0 0-.2 1.6c0 .6.1 1 .4 1.5.2.5.5.8 1 1.1.4.3.9.5 1.4.6a7.2 7.2 0 0 0 3.4 0 5 5 0 0 0 1.5-.7l1.1-1Zm3.4-3c.3-.5 1.1-1.4 2.3-1.5 1 0 1 .8.5 1-.3.2-1.2.5-2.8.5"/><circle cx="15.5" cy="5.3" r="1.3"/></g></svg>
