<?xml version="1.0" encoding="UTF-8"?><svg xmlns="http://www.w3.org/2000/svg" width="20" height="20" viewBox="0 0 20 20"><title>
		bold
	</title><path d="M10 1c3.666 0 6.225 2.432 6.923 4.525l-2.847.95C13.774 5.568 12.334 4 10 4c-.997 0-2.278.29-3.335 1.1-1.01.774-1.952 2.125-2.172 4.536-.212 2.331.524 3.87 1.542 4.841C7.095 15.49 8.582 16 10 16c.937 0 2.219-.2 3.223-.888.688-.47 1.354-1.242 1.636-2.612H10v-3h8V11c0 3.25-1.287 5.36-3.083 6.588C13.218 18.75 11.251 19 10 19c-2.082 0-4.345-.739-6.036-2.352-1.732-1.654-2.746-4.115-2.458-7.284.288-3.166 1.597-5.315 3.334-6.646C6.532 1.422 8.498 1 10 1"/></svg>
