<?xml version="1.0" encoding="UTF-8"?><svg xmlns="http://www.w3.org/2000/svg" width="20" height="20" viewBox="0 0 20 20"><title>
		scatter chart
	</title><g fill="#36c"><path d="M3 17h16v2H1V1h2z"/><path d="M11.75 12a1.25 1.25 0 1 1 0 2.5 1.25 1.25 0 0 1 0-2.5m-5-1a1.25 1.25 0 1 1 0 2.5 1.25 1.25 0 0 1 0-2.5m10-1a1.25 1.25 0 1 1 0 2.5 1.25 1.25 0 0 1 0-2.5m-4-3a1.25 1.25 0 1 1 0 2.5 1.25 1.25 0 0 1 0-2.5m-5-1a1.25 1.25 0 1 1 0 2.5 1.25 1.25 0 0 1 0-2.5m9-2a1.25 1.25 0 1 1 0 2.5 1.25 1.25 0 0 1 0-2.5m-5-2a1.25 1.25 0 1 1 0 2.5 1.25 1.25 0 0 1 0-2.5"/></g></svg>
