<?xml version="1.0" encoding="UTF-8"?><svg xmlns="http://www.w3.org/2000/svg" width="20" height="20" viewBox="0 0 20 20"><title>
		code
	</title><path d="M8.5 3H6a1 1 0 0 0-1 1v2.488c0 1.19-.525 2.273-1.371 3.012A4 4 0 0 1 5 12.512V16a1 1 0 0 0 1 1h2.5v2H6a3 3 0 0 1-3-3v-3.488a2 2 0 0 0-1.648-1.969L1 10.484V8.516l.352-.059A2 2 0 0 0 3 6.488V4a3 3 0 0 1 3-3h2.5zM14 1a3 3 0 0 1 3 3v2.488a2 2 0 0 0 1.648 1.969l.352.059v1.968l-.352.059A2 2 0 0 0 17 12.512V16a3 3 0 0 1-3 3h-2.5v-2H14a1 1 0 0 0 1-1v-3.488c0-1.19.525-2.273 1.371-3.012A4 4 0 0 1 15 6.488V4a1 1 0 0 0-1-1h-2.5V1z"/></svg>
