<?xml version="1.0" encoding="UTF-8"?><svg xmlns="http://www.w3.org/2000/svg" width="20" height="20" viewBox="0 0 20 20"><title>
		eye closed
	</title><path fill="#fff" d="m19.254 17.84-1.414 1.414-3.64-3.64a7 7 0 0 1-9.15-.65L.793 10.707V9.292l3.542-3.543L.871 2.285 2.285.871zM2.914 9.999l3.55 3.55a5 5 0 0 0 6.302.63l-1.855-1.854a2.5 2.5 0 0 1-3.238-3.238L5.749 7.163zm4.724-6.604a7 7 0 0 1 7.311 1.64l4.258 4.257v1.415l-2.13 2.128-1.414-1.414 1.423-1.422-3.55-3.55A5 5 0 0 0 9.28 5.037z"/></svg>
