<?xml version="1.0" encoding="UTF-8"?><svg xmlns="http://www.w3.org/2000/svg" width="20" height="20" viewBox="0 0 20 20"><title>
		function
	</title><path fill="#fff" d="M19.707 12.707 16.914 15.5l2.793 2.793-1.414 1.414-2.793-2.793-2.793 2.793-1.414-1.414 2.793-2.793-2.793-2.793 1.414-1.414 2.793 2.793 2.793-2.793zM10.313.945a3.867 3.867 0 0 1 5.36.542l1.093 1.298-1.532 1.287-1.091-1.298a1.867 1.867 0 0 0-3.215.66L10.15 6H13v2H9.545l-1.559 5.146a3.868 3.868 0 0 1-6.66 1.368L.235 13.215l1.532-1.287 1.091 1.299a1.867 1.867 0 0 0 3.215-.661L7.455 8H5V6h3.06l.954-3.145a3.87 3.87 0 0 1 1.299-1.91"/></svg>
