<?xml version="1.0" encoding="UTF-8"?><svg xmlns="http://www.w3.org/2000/svg" width="20" height="20" viewBox="0 0 20 20"><title>
		globe
	</title><path fill="#36c" d="M10 1a9 9 0 1 1 0 18 9 9 0 0 1 0-18M8.028 11c.1 1.846.473 3.431.97 4.552.295.661.594 1.073.824 1.292.081.077.14.117.178.138a1 1 0 0 0 .178-.138c.23-.22.529-.63.823-1.292.498-1.12.87-2.706.97-4.552zm-4.956 0a7 7 0 0 0 4.122 5.413C6.557 15.001 6.13 13.11 6.025 11zm10.903 0c-.104 2.11-.533 4-1.17 5.413A7 7 0 0 0 16.928 11zm-6.78-7.414A7 7 0 0 0 3.071 9h2.953c.104-2.11.531-4.001 1.17-5.414ZM10 3.016a1 1 0 0 0-.178.14c-.23.22-.53.63-.823 1.292-.498 1.12-.87 2.706-.97 4.552h3.943c-.101-1.846-.473-3.431-.971-4.552-.294-.661-.593-1.073-.823-1.292a1 1 0 0 0-.178-.14m2.805.57c.638 1.413 1.066 3.303 1.17 5.414h2.953a7 7 0 0 0-4.123-5.414"/></svg>
