<?xml version="1.0" encoding="UTF-8"?><svg xmlns="http://www.w3.org/2000/svg" width="20" height="20" viewBox="0 0 20 20"><title>
		heart
	</title><path fill="#fff" d="M11.039 3.656c2.158-2.332 5.937-2.179 7.893.318a4.99 4.99 0 0 1-.272 6.487L10.757 19H9.243L1.34 10.461a4.99 4.99 0 0 1-.272-6.487c1.956-2.497 5.735-2.65 7.893-.318L10 4.776zm6.272 1.543c-1.18-1.506-3.458-1.597-4.76-.192l-1.794 1.94H9.243l-1.795-1.94c-1.3-1.405-3.58-1.314-4.76.192a3.01 3.01 0 0 0 .165 3.91L10 16.83l7.147-7.72a3.01 3.01 0 0 0 .164-3.911"/></svg>
