<?xml version="1.0" encoding="UTF-8"?><svg xmlns="http://www.w3.org/2000/svg" width="20" height="20" viewBox="0 0 20 20"><title>
		help
	</title><path d="M11 18H9v-2h2zM10 2c1.497 0 2.76.433 3.66 1.268.905.84 1.34 1.994 1.34 3.232 0 1.182-.443 2.007-1.094 2.638a6.7 6.7 0 0 1-.95.742c-.363.241-.587.373-.923.602C11.351 10.948 11 11.86 11 13v1H9v-1c0-1.455.443-3.17 1.905-4.169.3-.204.71-.461.94-.615.281-.187.498-.349.67-.515.297-.287.485-.607.485-1.201 0-.762-.258-1.357-.7-1.768C11.853 4.317 11.117 4 10 4 7.98 4 7 5.636 7 6.5v1H5v-1C5 4.614 6.794 2 10 2"/></svg>
