<?xml version="1.0" encoding="UTF-8"?><svg xmlns="http://www.w3.org/2000/svg" width="20" height="20" viewBox="0 0 20 20"><g fill="#36c"><title>
		help
	</title><path d="M11 15.5H9v-2h2zm-1-11c1.015 0 1.787.469 2.283 1.074.473.576.717 1.299.717 1.926 0 .68-.174 1.242-.467 1.706-.283.448-.646.753-.933.969-.136.101-.29.208-.385.276a3 3 0 0 0-.215.166v.883H9v-1c0-.645.346-1.08.637-1.347a4 4 0 0 1 .414-.327c.139-.1.235-.165.35-.25.212-.16.349-.293.44-.438.083-.13.159-.319.159-.638 0-.152-.076-.43-.264-.658A.9.9 0 0 0 10 6.5c-.282 0-.518.133-.714.375C9.066 7.146 9 7.43 9 7.5H7c0-.611.28-1.327.733-1.886C8.211 5.026 8.975 4.5 10 4.5"/><path d="M10 1a9 9 0 1 1 0 18 9 9 0 0 1 0-18m0 2a7 7 0 1 0 0 14 7 7 0 0 0 0-14"/></g></svg>
