<?xml version="1.0" encoding="UTF-8"?><svg xmlns="http://www.w3.org/2000/svg" width="20" height="20" viewBox="0 0 20 20"><title>
		help
	</title><path d="M10 1a9 9 0 1 1 0 18 9 9 0 0 1 0-18M9 13.5v2h2v-2zm1-9c-1.025 0-1.79.526-2.267 1.114C7.28 6.173 7 6.89 7 7.5h2c0-.07.066-.354.286-.625.196-.242.432-.375.714-.375.345 0 .572.142.736.342.188.229.264.506.264.658 0 .32-.076.508-.158.638-.092.145-.23.278-.442.437-.114.086-.21.152-.35.251a4 4 0 0 0-.413.327C9.346 9.42 9 9.855 9 10.5v1h2v-.883c.046-.041.112-.092.215-.166.095-.068.249-.175.385-.276.287-.216.65-.521.933-.969.293-.464.467-1.025.467-1.706 0-.627-.245-1.35-.717-1.926A2.9 2.9 0 0 0 10 4.5"/></svg>
