<?xml version="1.0" encoding="UTF-8"?><svg xmlns="http://www.w3.org/2000/svg" width="20" height="20" viewBox="0 0 20 20"><title>
		help notice
	</title><path d="M11 13.5v2H9v-2zm-1-9c1.025 0 1.789.526 2.267 1.114.453.56.733 1.275.733 1.886h-2c0-.07-.066-.354-.286-.625-.196-.242-.432-.375-.714-.375a.9.9 0 0 0-.736.342A1.15 1.15 0 0 0 9 7.5c0 .319.076.508.16.638.09.145.227.278.439.438.115.085.211.15.35.25q.217.15.414.327c.291.267.637.702.637 1.347v1H9v-.883a3 3 0 0 0-.215-.166c-.095-.068-.249-.175-.385-.276-.287-.216-.65-.521-.933-.969C7.174 8.742 7 8.18 7 7.5c0-.627.244-1.35.717-1.926A2.9 2.9 0 0 1 10 4.5"/><path d="M10 1a9 9 0 1 1 0 18.001A9 9 0 0 1 10 1m0 2a7 7 0 1 0-.001 14.001A7 7 0 0 0 10 3"/></svg>
