<?xml version="1.0" encoding="UTF-8"?><svg xmlns="http://www.w3.org/2000/svg" width="20" height="20" viewBox="0 0 20 20"><title>
		help
	</title><path fill="#fff" d="M10 1a9 9 0 1 0 0 18 9 9 0 0 0 0-18m1 12.5v2H9v-2zm-1-9c1.025 0 1.79.526 2.267 1.114C12.72 6.173 13 6.89 13 7.5h-2c0-.07-.066-.354-.286-.625-.196-.242-.432-.375-.714-.375a.9.9 0 0 0-.736.342A1.15 1.15 0 0 0 9 7.5c0 .32.076.508.158.638.092.145.23.278.442.437.114.086.21.152.35.251.122.088.273.199.413.327.291.267.637.702.637 1.347v1H9v-.883a3 3 0 0 0-.215-.166c-.095-.068-.249-.175-.385-.276-.287-.216-.65-.521-.933-.969C7.174 8.742 7 8.181 7 7.5c0-.627.245-1.35.717-1.926A2.9 2.9 0 0 1 10 4.5"/></svg>
