<?xml version="1.0" encoding="UTF-8"?><svg xmlns="http://www.w3.org/2000/svg" width="20" height="20" viewBox="0 0 20 20"><title>
		help
	</title><path d="M11 16v2H9v-2zM10 2c3.206 0 5 2.614 5 4.5v1h-2v-1c0-.864-.98-2.5-3-2.5-1.117 0-1.853.317-2.3.732C7.258 5.143 7 5.738 7 6.5c0 .594.188.914.485 1.201.172.166.39.328.67.515.23.154.64.411.94.615C10.557 9.831 11 11.545 11 13v1H9v-1c0-1.14-.351-2.052-1.033-2.518-.336-.229-.56-.361-.923-.602a6.7 6.7 0 0 1-.95-.742C5.443 8.507 5 7.682 5 6.5c0-1.238.435-2.392 1.34-3.232C7.24 2.433 8.503 2 10 2"/></svg>
