<?xml version="1.0" encoding="UTF-8"?><svg xmlns="http://www.w3.org/2000/svg" width="20" height="20" viewBox="0 0 20 20"><title>image layout basic</title><g fill="#fff"><path d="M20-.5h-.5V0h.5v-.5zm-2.5 0H17V0h.5v-.5zM15-.5h-.5V0h.5v-.5zm-2.5 0H12V0h.5v-.5zM10-.5h-.5V0h.5v-.5zm-2.5 0H7V0h.5v-.5zM5-.5h-.5V0H5v-.5zm-2.5 0H2V0h.5v-.5zM0 0h-.5v.5H0V0zm0 2.5h-.5V3H0v-.5zM0 5h-.5v.5H0V5zm0 2.5h-.5V8H0v-.5zM0 10h-.5v.5H0V10zm0 2.5h-.5v.5H0v-.5zM0 15h-.5v.5H0V15zm0 2.5h-.5v.5H0v-.5zM.5 20H0v.5h.5V20zM3 20h-.5v.5H3V20zm2.5 0H5v.5h.5V20zM8 20h-.5v.5H8V20zm2.5 0H10v.5h.5V20zm2.5 0h-.5v.5h.5V20zm2.5 0H15v.5h.5V20zm2.5 0h-.5v.5h.5V20zm2.5-.5H20v.5h.5v-.5zm0-2.5H20v.5h.5V17zm0-2.5H20v.5h.5v-.5zm0-2.5H20v.5h.5V12zm0-2.5H20v.5h.5v-.5zm0-2.5H20v.5h.5V7zm0-2.5H20V5h.5v-.5zm0-2.5H20v.5h.5V2zM1 3v14h18V3zm17 13H2V4h16z"/><path d="M8.58 14h.81l3.11-4 3 4H17l-4.5-6L9 12.51 6.5 9.5 3 14h1.56l1.94-2.5L8.58 14z"/></g></svg>