<?xml version="1.0" encoding="UTF-8"?><svg xmlns="http://www.w3.org/2000/svg" width="20" height="20" viewBox="0 0 20 20"><title>image layout thumbnail</title><g fill="#fff"><path d="M20-.5h-.5V0h.5v-.5zm-2.5 0H17V0h.5v-.5zM15-.5h-.5V0h.5v-.5zm-2.5 0H12V0h.5v-.5zM10-.5h-.5V0h.5v-.5zm-2.5 0H7V0h.5v-.5zM5-.5h-.5V0H5v-.5zm-2.5 0H2V0h.5v-.5zM0 0h-.5v.5H0V0zm0 2.5h-.5V3H0v-.5zM0 5h-.5v.5H0V5zm0 2.5h-.5V8H0v-.5zM0 10h-.5v.5H0V10zm0 2.5h-.5v.5H0v-.5zM0 15h-.5v.5H0V15zm0 2.5h-.5v.5H0v-.5zM.5 20H0v.5h.5V20zM3 20h-.5v.5H3V20zm2.5 0H5v.5h.5V20zM8 20h-.5v.5H8V20zm2.5 0H10v.5h.5V20zm2.5 0h-.5v.5h.5V20zm2.5 0H15v.5h.5V20zm2.5 0h-.5v.5h.5V20zm2.5-.5H20v.5h.5v-.5zm0-2.5H20v.5h.5V17zm0-2.5H20v.5h.5v-.5zm0-2.5H20v.5h.5V12zm0-2.5H20v.5h.5v-.5zm0-2.5H20v.5h.5V7zm0-2.5H20V5h.5v-.5zm0-2.5H20v.5h.5V2zM17 2H3a2 2 0 0 0-2 2v12a2 2 0 0 0 2 2h14a2 2 0 0 0 2-2V4a2 2 0 0 0-2-2zm0 15H3a1 1 0 0 1-1-1V4a1 1 0 0 1 1-1h14a1 1 0 0 1 1 1v12a1 1 0 0 1-1 1z"/><path d="M15.25 4H4.75A1.8 1.8 0 0 0 3 5.85v6.31A1.8 1.8 0 0 0 4.75 14h10.5A1.8 1.8 0 0 0 17 12.15v-6.3A1.8 1.8 0 0 0 15.25 4zM5 12l2.5-3 2 2L12 8l3 4zm-1 3h12v1H4z"/><path d="M17 6H3V4h14zm0 8H3v-2h14z"/></g></svg>