<?xml version="1.0" encoding="UTF-8"?><svg xmlns="http://www.w3.org/2000/svg" width="20" height="20" viewBox="0 0 20 20"><title>image layout frameless</title><g fill="#fff"><path d="M20-.5h-.5V0h.5v-.5zm-2.5 0H17V0h.5v-.5zM15-.5h-.5V0h.5v-.5zm-2.5 0H12V0h.5v-.5zM10-.5h-.5V0h.5v-.5zm-2.5 0H7V0h.5v-.5zM5-.5h-.5V0H5v-.5zm-2.5 0H2V0h.5v-.5zM0 0h-.5v.5H0V0zm0 2.5h-.5V3H0v-.5zM0 5h-.5v.5H0V5zm0 2.5h-.5V8H0v-.5zM0 10h-.5v.5H0V10zm0 2.5h-.5v.5H0v-.5zM0 15h-.5v.5H0V15zm0 2.5h-.5v.5H0v-.5zM.5 20H0v.5h.5V20zM3 20h-.5v.5H3V20zm2.5 0H5v.5h.5V20zM8 20h-.5v.5H8V20zm2.5 0H10v.5h.5V20zm2.5 0h-.5v.5h.5V20zm2.5 0H15v.5h.5V20zm2.5 0h-.5v.5h.5V20zm2.5-.5H20v.5h.5v-.5zm0-2.5H20v.5h.5V17zm0-2.5H20v.5h.5v-.5zm0-2.5H20v.5h.5V12zm0-2.5H20v.5h.5v-.5zm0-2.5H20v.5h.5V7zm0-2.5H20V5h.5v-.5zm0-2.5H20v.5h.5V2zM17 3H3a2 2 0 0 0-2 2v10a2 2 0 0 0 2 2h14a2 2 0 0 0 2-2V5a2 2 0 0 0-2-2zM3 14l3.5-4.5 2.5 3L12.5 8l4.5 6z"/><path d="M19 5H1V3h18zm0 12H1v-2h18z"/></g></svg>