<?xml version="1.0" encoding="UTF-8"?><svg xmlns="http://www.w3.org/2000/svg" width="20" height="20" viewBox="0 0 20 20"><g fill="#fff"><title>
		italic
	</title><path d="M10.419 2c1.277 0 2.503.508 3.406 1.411l.882.882-1.414 1.414-.882-.882A2.82 2.82 0 0 0 10.42 4c-.827 0-1.573.496-1.894 1.259l-.056.136a2.275 2.275 0 0 0 .835 2.773l2.704 1.802A4.384 4.384 0 0 1 9.578 18h-.085a5.4 5.4 0 0 1-4.633-2.623l-.217-.362 1.714-1.03.218.363A3.4 3.4 0 0 0 9.493 16h.084a2.383 2.383 0 0 0 1.321-4.366L8.194 9.832a4.276 4.276 0 0 1-1.57-5.212l.058-.136A4.05 4.05 0 0 1 10.419 2"/></g></svg>
