<?xml version="1.0" encoding="UTF-8"?><svg xmlns="http://www.w3.org/2000/svg" width="20" height="20" viewBox="0 0 20 20"><title>
		italic
	</title><path d="M11.045 1.938c2.378 0 3.983.742 4.955 1.352l-.592 2.015c-.642-.472-1.993-1.366-4.363-1.367-2.061 0-3.505 1.336-4.04 2.096l-.095.144-.026.04C6.41 6.917 5.811 8.207 5.637 9.7c-.17 1.472.074 3.099 1.214 4.59.856 1.119 2.262 1.606 3.805 1.646 1.552.042 3.024-.379 3.761-.813L14 17.462c-.997.314-2.194.504-3.397.473-1.875-.05-3.98-.65-5.34-2.43-1.52-1.987-1.83-4.165-1.613-6.036.212-1.823.926-3.396 1.555-4.334l.01-.018.015-.023c.694-1.104 2.734-3.156 5.815-3.156"/></svg>
