<?xml version="1.0" encoding="UTF-8"?><svg xmlns="http://www.w3.org/2000/svg" width="20" height="20" viewBox="0 0 20 20"><title>
		italic
	</title><path d="M8.983 2c1.328-.084 3.267.198 4.807 1.4 1.637 1.277 2.64 3.447 2.201 6.733-.276 2.072-.89 3.66-1.76 4.858a7 7 0 0 1-3.125 2.421c-2.242.896-4.728.667-6.162.587l-1.089-.06L6.133 2zm3.577 2.977c-1.056-.824-2.484-1.05-3.489-.979L9.036 4H7.867L6.145 16.06c1.343.059 2.856.04 4.22-.505a5 5 0 0 0 2.247-1.74c.633-.87 1.154-2.125 1.397-3.947.362-2.714-.47-4.127-1.45-4.891Z"/></svg>
