<?xml version="1.0" encoding="UTF-8"?><svg xmlns="http://www.w3.org/2000/svg" width="20" height="20" viewBox="0 0 20 20"><title>
		key
	</title><path d="M13.75 6a1.5 1.5 0 1 1 0 3 1.5 1.5 0 0 1 0-3"/><path d="M13.706 1.5C17.128 1.5 20 4.133 20 7.5s-2.872 6-6.294 6c-.65 0-1.28-.095-1.873-.27q-.007-.004-.016-.006L9.855 15H9v2H7v1.5H1l-1-1v-2.435L7.446 8.13a6 6 0 0 1-.034-.631c0-3.367 2.872-6 6.294-6Zm0 2c-2.426 0-4.294 1.844-4.294 4q0 .407.083.79l.12.555L2 15.935v.565h3V15h2v-2h2.086l2.3-2.081.584.24a4.5 4.5 0 0 0 1.736.341c2.426 0 4.294-1.844 4.294-4s-1.868-4-4.294-4"/></svg>
