<?xml version="1.0" encoding="UTF-8"?><svg xmlns="http://www.w3.org/2000/svg" width="20" height="20" viewBox="0 0 20 20"><title>
		lightbulb
	</title><path fill="#fff" d="M13 20H7v-2h6zM10 0c1.938 0 3.58.556 4.745 1.644C15.918 2.738 16.5 4.27 16.5 6c0 2.22-1.15 3.732-2.04 4.727-.644.72-.96 1.633-.96 2.662V16h-7v-2.611c0-1.029-.317-1.942-.96-2.662C4.65 9.732 3.5 8.22 3.5 6c0-1.627.593-3.145 1.743-4.255C6.395.634 8.032 0 10 0m0 2c-1.532 0-2.645.485-3.368 1.184C5.907 3.884 5.5 4.866 5.5 6c0 1.464.735 2.504 1.53 3.394 1.013 1.131 1.47 2.54 1.47 3.995V14h3v-.611c0-1.455.457-2.864 1.47-3.995.795-.89 1.53-1.93 1.53-3.394 0-1.27-.418-2.238-1.12-2.894C12.67 2.444 11.562 2 10 2"/></svg>
