<?xml version="1.0" encoding="UTF-8"?><svg xmlns="http://www.w3.org/2000/svg" width="20" height="20" viewBox="0 0 20 20"><title>
		link
	</title><path d="M5.862 7.453a4.353 4.353 0 0 1 6.167-.01l.707.706-1.414 1.414-.707-.707a2.355 2.355 0 0 0-3.335.005L4.354 11.81a2.725 2.725 0 0 0 3.842 3.868l.046-.046.715-.7 1.4 1.43-.715.698-.046.046A4.727 4.727 0 0 1 2.934 10.4z"/><path d="M10.405 2.894a4.726 4.726 0 0 1 6.662 6.707l-2.928 2.947a4.354 4.354 0 0 1-6.167.01l-.707-.707 1.414-1.415.707.707c.921.921 2.416.92 3.334-.004l2.928-2.948a2.727 2.727 0 0 0-3.843-3.868l-.761.746-1.4-1.428.713-.7z"/></svg>
