<?xml version="1.0" encoding="UTF-8"?><svg xmlns="http://www.w3.org/2000/svg" width="20" height="20" viewBox="0 0 20 20"><title>
		live
	</title><path d="m2.929 2.929 1.414 1.414A7.98 7.98 0 0 0 2 10c0 2.21.895 4.21 2.343 5.657l-1.414 1.414A9.97 9.97 0 0 1 0 10a9.97 9.97 0 0 1 2.929-7.071m14.142 0A9.97 9.97 0 0 1 20 10a9.97 9.97 0 0 1-2.929 7.071l-1.414-1.414A7.98 7.98 0 0 0 18 10c0-2.21-.895-4.21-2.343-5.657z"/><path d="M7.172 7.172A4 4 0 0 0 6 10c0 1.105.448 2.104 1.172 2.828l-1.414 1.414A5.98 5.98 0 0 1 4 10a5.98 5.98 0 0 1 1.758-4.242zm7.07-1.414A5.98 5.98 0 0 1 16 10a5.98 5.98 0 0 1-1.758 4.242l-1.414-1.414A4 4 0 0 0 14 10a4 4 0 0 0-1.172-2.828zM10 8a2 2 0 1 1 0 4 2 2 0 0 1 0-4"/></svg>
