<?xml version="1.0" encoding="UTF-8"?><svg xmlns="http://www.w3.org/2000/svg" width="20" height="20" viewBox="0 0 20 20"><title>
		Meta-Wiki logo
	</title><path d="M1.8 4.3a10 10 0 0 1 16.4 0l-1.9 1.1a7.9 7.9 0 0 0-12.6 0zm-1.1 2A10 10 0 0 0 8.9 20v-2.2A7.9 7.9 0 0 1 2.7 7.4zm18.6 0A10 10 0 0 1 11.1 20v-2.2a7.9 7.9 0 0 0 6.2-10.4M7.03 4.04q-.62.62-1.09 1.37-.4.04-.8.03a7 7 0 0 1 1.9-1.4m.67-.28a7 7 0 0 1 1.62.12 7 7 0 0 0 .53-.55 7 7 0 0 0-2.15.43m-.4.62.27.6a6 6 0 0 1-1.05.32q.35-.5.79-.92m.66.42q.47-.24.9-.55a7 7 0 0 0-1.15-.04ZM9.85 4a7 7 0 0 0 .57-.65 7 7 0 0 1 3 .93 10 10 0 0 1-.8 1.14A7 7 0 0 0 9.84 4M3.46 8.7a7 7 0 0 1 1.32-2.84q.41.05.88.03a7 7 0 0 0-.8 2.98 10 10 0 0 1-1.4-.17m6-4.35a7 7 0 0 1-1.3.85l1.2 2.76a10 10 0 0 0 2.96-2.21 7 7 0 0 0-2.86-1.4M6.21 5.82A7 7 0 0 0 5.3 8.9a10 10 0 0 0 3.63-.74L7.74 5.39a7 7 0 0 1-1.53.43m7.58-1.29a10 10 0 0 1-.85 1.19 7 7 0 0 1 1.84 2.88q.68-.7 1.24-1.48a6.6 6.6 0 0 0-2.23-2.59M3.4 9.16a7 7 0 0 0 .44 3.4q.96.1 1.92.07a7 7 0 0 1-.89-3.3 10 10 0 0 1-1.47-.17m9.25-3.1a10 10 0 0 1-3.11 2.3l1.3 3.04a13 13 0 0 0 3.6-2.44 7 7 0 0 0-1.8-2.9M5.3 9.33a10 10 0 0 0 3.82-.8l1.31 3.05q-2.01.86-4.19 1.02a7 7 0 0 1-.94-3.27m9.61-.23q.7-.7 1.3-1.5a6.6 6.6 0 0 1 .34 3.7q-.78.73-1.64 1.35c.3-1.16.3-2.4 0-3.55m-8.36 6.65a6.7 6.7 0 0 1-2.51-2.72q.98.09 1.97.04a7 7 0 0 0 2.6 2.38 16 16 0 0 1-2.06.3m4.47-3.94a14 14 0 0 0 3.53-2.35 6.7 6.7 0 0 1-.22 3.6q-1.07.71-2.24 1.24zm-1.74 3.48a6.7 6.7 0 0 1-2.76-2.26 14 14 0 0 0 4.08-1.04l1.07 2.49q-1.17.5-2.4.81m5.41-1.93a16 16 0 0 0 1.66-1.27 6.7 6.7 0 0 1-3.37 3.93 7 7 0 0 0 1.71-2.66m-7.43 2.77a20 20 0 0 0 2-.36c.98.4 2.04.58 3.09.53a6.6 6.6 0 0 1-5.1-.17m5.02-1.41q.92-.42 1.77-.94-.51 1.06-1.35 1.9zm0 1.14a7 7 0 0 1-2.27-.3q.95-.28 1.86-.67z"/></svg>
