<?xml version="1.0" encoding="UTF-8"?><svg xmlns="http://www.w3.org/2000/svg" width="20" height="20" viewBox="0 0 20 20"><title>
		map trail
	</title><g fill="#fff"><path d="m18.664 15.25-1.5 1.5 1.5 1.5-1.414 1.414-1.5-1.5-1.5 1.5-1.414-1.414 1.5-1.5-1.5-1.5 1.414-1.414 1.5 1.5 1.5-1.5z"/><circle cx="12.5" cy="1" r="1"/><circle cx="3" cy="4" r="1"/><circle cx="9.5" cy="4" r="1"/><circle cx="16" cy="4" r="1"/><circle cx="3" cy="8" r="1"/><circle cx="9.5" cy="8" r="1"/><circle cx="16" cy="8" r="1"/><circle cx="3" cy="12" r="1"/><circle cx="9.5" cy="12" r="1"/><circle cx="16" cy="12" r="1"/><circle cx="3" cy="16" r="1"/><circle cx="9.5" cy="16" r="1"/><circle cx="6.25" cy="19" r="1"/></g></svg>
