<?xml version="1.0" encoding="UTF-8"?><svg xmlns="http://www.w3.org/2000/svg" width="20" height="20" viewBox="0 0 20 20"><title>
		map trail
	</title><path fill="#36c" d="M6.25 18a1 1 0 1 1 0 2 1 1 0 0 1 0-2m12.414-2.75-1.5 1.5 1.5 1.5-1.414 1.414-1.5-1.5-1.5 1.5-1.414-1.414 1.5-1.5-1.5-1.5 1.414-1.414 1.5 1.5 1.5-1.5zM3 15a1 1 0 1 1 0 2 1 1 0 0 1 0-2m6.5 0a1 1 0 1 1 0 2 1 1 0 0 1 0-2M3 11a1 1 0 1 1 0 2 1 1 0 0 1 0-2m6.5 0a1 1 0 1 1 0 2 1 1 0 0 1 0-2m6.5 0a1 1 0 1 1 0 2 1 1 0 0 1 0-2M3 7a1 1 0 1 1 0 2 1 1 0 0 1 0-2m6.5 0a1 1 0 1 1 0 2 1 1 0 0 1 0-2M16 7a1 1 0 1 1 0 2 1 1 0 0 1 0-2M3 3a1 1 0 1 1 0 2 1 1 0 0 1 0-2m6.5 0a1 1 0 1 1 0 2 1 1 0 0 1 0-2M16 3a1 1 0 1 1 0 2 1 1 0 0 1 0-2m-3.5-3a1 1 0 1 1 0 2 1 1 0 0 1 0-2"/></svg>
