<?xml version="1.0" encoding="UTF-8"?><svg xmlns="http://www.w3.org/2000/svg" width="20" height="20" viewBox="0 0 20 20"><title>
		moon
	</title><path d="M11.426 2.525c-1.287 2.085-1.379 4.72 0 6.948 1.385 2.239 3.924 3.522 6.575 3.525l.85 1.525a9.27 9.27 0 0 1-3.515 3.285c-4.54 2.445-10.375 1.018-13.037-3.283C-.39 10.18 1.24 4.657 5.814 2.191A10 10 0 0 1 10.577 1zm-2.511.644a8 8 0 0 0-2.153.783C3.137 5.905 1.954 10.166 4 13.472c2.073 3.352 6.726 4.547 10.387 2.575a7.5 7.5 0 0 0 1.687-1.236c-2.562-.496-4.916-1.97-6.35-4.286a8.5 8.5 0 0 1-.81-7.356Z"/></svg>
