<?xml version="1.0" encoding="UTF-8"?><svg xmlns="http://www.w3.org/2000/svg" width="20" height="20" viewBox="0 0 20 20"><title>
		network off
	</title><g fill="#fff"><path d="m19.254 17.84-1.414 1.414-8.234-8.234c-1.438.137-2.774 1.016-3.72 2.453L4.45 12.035c.9-1.237 2.1-2.197 3.489-2.683L5.674 7.088c-1.267.67-2.407 1.63-3.356 2.816L.896 8.482a12.9 12.9 0 0 1 3.31-2.862L.871 2.285 2.285.871z"/><path d="M10 14a1.5 1.5 0 1 1 0 3 1.5 1.5 0 0 1 0-3m0-10c3.611 0 6.832 1.742 9.095 4.473l-1.422 1.422c-1.89-2.357-4.53-3.814-7.428-3.892L8.363 4.12A11 11 0 0 1 10 4"/></g></svg>
