<?xml version="1.0" encoding="UTF-8"?><svg xmlns="http://www.w3.org/2000/svg" width="20" height="20" viewBox="0 0 20 20"><title>
		network
	</title><path d="M10 14a1.5 1.5 0 1 1 0 3 1.5 1.5 0 0 1 0-3m0-5c2.259 0 4.22 1.215 5.542 3.025l-1.437 1.437C13.075 11.902 11.583 11 10 11c-1.587 0-3.082.905-4.113 2.473l-1.438-1.438C5.771 10.22 7.737 9 10 9"/><path d="M10 4c3.611 0 6.832 1.742 9.095 4.473l-1.422 1.422C15.73 7.472 12.994 6 10 6 7.002 6 4.26 7.476 2.318 9.904L.896 8.482C3.16 5.746 6.384 4 10 4"/></svg>
