<?xml version="1.0" encoding="UTF-8"?><svg xmlns="http://www.w3.org/2000/svg" width="20" height="20" viewBox="0 0 20 20"><title>
		page settings
	</title><g fill="#fff"><path d="M6 3H4v14h12v-4h2v6H2V1h4z"/><path d="M14 2.646q.35.104.664.275l1.164-1.163 1.414 1.414-1.164 1.163q.172.315.277.665H18v2h-1.645a3.5 3.5 0 0 1-.277.664l1.164 1.164-1.414 1.414-1.164-1.164q-.315.171-.664.276V11h-2V9.354a3.5 3.5 0 0 1-.665-.276l-1.163 1.164-1.414-1.414L9.92 7.664A3.5 3.5 0 0 1 9.646 7H8V5h1.646q.104-.35.275-.665L8.758 3.172l1.414-1.414 1.163 1.163q.315-.171.665-.275V1h2zM13 4.5a1.5 1.5 0 1 0 0 3 1.5 1.5 0 0 0 0-3"/></g></svg>
