<?xml version="1.0" encoding="UTF-8"?><svg xmlns="http://www.w3.org/2000/svg" width="20" height="20" viewBox="0 0 20 20"><title>
		page settings
	</title><g fill="#36c"><path d="M11 6.646q.35.104.664.275l1.164-1.163 1.414 1.414-1.164 1.163q.172.315.277.665H15v2h-1.646a3.5 3.5 0 0 1-.276.664l1.164 1.164-1.414 1.414-1.164-1.164q-.315.171-.664.276V15H9v-1.646a3.5 3.5 0 0 1-.665-.276l-1.163 1.164-1.414-1.414 1.163-1.164A3.5 3.5 0 0 1 6.646 11H5V9h1.646q.104-.35.275-.665L5.758 7.172l1.414-1.414L8.335 6.92q.315-.171.665-.275V5h2zM10 8.5a1.5 1.5 0 1 0 0 3 1.5 1.5 0 0 0 0-3"/><path d="M18 20H2V0h16zM4 18h12V2H4z"/></g></svg>
