<?xml version="1.0" encoding="UTF-8"?><svg xmlns="http://www.w3.org/2000/svg" width="20" height="20" viewBox="0 0 20 20"><title>
		palette
	</title><path d="M6.75 11a1.25 1.25 0 1 0 0 2.5 1.25 1.25 0 0 0 0-2.5m6.5-3.5a1.25 1.25 0 1 0 0 2.5 1.25 1.25 0 0 0 0-2.5M6.75 7a1.25 1.25 0 1 0 0 2.5 1.25 1.25 0 0 0 0-2.5m3.5-2a1.25 1.25 0 1 0 0 2.5 1.25 1.25 0 0 0 0-2.5"/><path d="M12.828 1.456a9 9 0 0 0-5.656 17.088c.624.206 1.486.31 2.118.367a23 23 0 0 0 1.1.071l.07.002.02.001h.008l1.028-1.003-.011-3.725a.75.75 0 0 1 .75-.753l5.337.01.952-.685a9 9 0 0 0-5.716-11.373M3.354 7.8a7 7 0 0 1 13.482 3.711l-4.576-.008a2.75 2.75 0 0 0-2.754 2.757l.008 2.662-.047-.003c-.631-.056-1.285-.148-1.668-.275A7 7 0 0 1 3.354 7.8"/></svg>
