<?xml version="1.0" encoding="UTF-8"?><svg xmlns="http://www.w3.org/2000/svg" width="20" height="20" viewBox="0 0 20 20"><title>
		palette
	</title><g fill="#fff"><path d="M1.456 7.172a9 9 0 0 1 17.259 5.079l-.968.75L11.75 13a.75.75 0 0 0-.75.75v4.21l-1.06 1c-.648-.04-1.938-.142-2.768-.416A9 9 0 0 1 1.456 7.172M12.2 3.354a7 7 0 0 0-4.4 13.291c.3.1.745.17 1.2.224v-3.12A2.75 2.75 0 0 1 11.75 11h5.178A7 7 0 0 0 12.2 3.355Z"/><circle cx="6.5" cy="10.5" r="1.5"/><circle cx="9.5" cy="6.5" r="1.5"/><circle cx="13.5" cy="8.5" r="1.5"/></g></svg>
