<?xml version="1.0" encoding="UTF-8"?><svg xmlns="http://www.w3.org/2000/svg" width="20" height="20" viewBox="0 0 20 20"><title>
		palette
	</title><g fill="#fff"><path d="M13.297 11a1.25 1.25 0 1 1 0 2.5 1.25 1.25 0 0 1 0-2.5m-6.5-3.5a1.25 1.25 0 1 1 0 2.5 1.25 1.25 0 0 1 0-2.5m6.5-.5a1.25 1.25 0 1 1 0 2.5 1.25 1.25 0 0 1 0-2.5m-3.5-2a1.25 1.25 0 1 1 0 2.5 1.25 1.25 0 0 1 0-2.5"/><path d="M7.22 1.456a9 9 0 0 1 5.656 17.088c-.624.206-1.487.31-2.119.367q-.548.048-1.1.071l-.07.002-.019.001h-.009l-1.027-1.003.01-3.725a.75.75 0 0 0-.75-.753l-5.336.01-.952-.685A9 9 0 0 1 7.219 1.456Zm6.132 2.36a7 7 0 0 0-10.14 7.695l4.576-.008a2.75 2.75 0 0 1 2.754 2.757l-.008 2.662.047-.003c.63-.056 1.285-.149 1.668-.276A7 7 0 0 0 16.694 7.8a7 7 0 0 0-3.342-3.985Z"/></g></svg>
