<?xml version="1.0" encoding="UTF-8"?><svg xmlns="http://www.w3.org/2000/svg" width="20" height="20" viewBox="0 0 20 20"><title>
		puzzle
	</title><path d="M7 .5a1 1 0 0 1 .99 1.142l-.18 1.272a.951.951 0 1 0 1.882 0L9.51 1.642A1 1 0 0 1 10.5.5H15a1 1 0 0 1 1 1v4.347l.13-.019a2.952 2.952 0 1 1 0 5.844l-.13-.02V15a1 1 0 0 1-1 1h-3.347l.019.13a2.952 2.952 0 1 1-5.844 0l.019-.13H1.5a1 1 0 0 1-1-1v-4.5a1 1 0 0 1 1.142-.99l1.272.181a.951.951 0 1 0 0-1.882l-1.272.181A1 1 0 0 1 .5 7V1.5a1 1 0 0 1 1-1zM2.5 5.847l.13-.019a2.952 2.952 0 1 1 0 5.844l-.13-.02V14H7a1 1 0 0 1 .99 1.142l-.181 1.272a.951.951 0 1 0 1.882 0l-.181-1.272A1 1 0 0 1 10.5 14H14v-3.5a1 1 0 0 1 1.142-.99l1.272.181a.951.951 0 1 0 0-1.882l-1.272.181A1 1 0 0 1 14 7V2.5h-2.347l.019.13a2.952 2.952 0 1 1-5.844 0l.019-.13H2.5z"/></svg>
