<?xml version="1.0" encoding="UTF-8"?><svg xmlns="http://www.w3.org/2000/svg" width="20" height="20" viewBox="0 0 20 20"><title>
		puzzle
	</title><path fill="#fff" d="M9.502.5a1 1 0 0 1 .99 1.142l-.182 1.272a.953.953 0 0 0 1.336 1.002.95.95 0 0 0 .545-1.002l-.18-1.272A1 1 0 0 1 13.003.5h5.5a1 1 0 0 1 1 1V7a1 1 0 0 1-1.143.99l-1.271-.181a.953.953 0 0 0-1.003 1.337.95.95 0 0 0 1.003.545l1.271-.181a1 1 0 0 1 .798.234 1 1 0 0 1 .345.756V15a1 1 0 0 1-1 1h-4.348l.02.13a2.953 2.953 0 0 1-5.755 1.252 2.95 2.95 0 0 1-.089-1.252L8.35 16H5.002a1 1 0 0 1-1-1v-3.348l-.13.02A2.954 2.954 0 0 1 1.52 6.52a2.95 2.95 0 0 1 2.353-.692l.13.019V1.5a1 1 0 0 1 1-1zm-3.5 2V7a1 1 0 0 1-1.143.99l-1.271-.18a.953.953 0 0 0-1.003 1.337.95.95 0 0 0 1.003.545l1.271-.181a1 1 0 0 1 .798.234 1 1 0 0 1 .345.756V14h3.5a1.003 1.003 0 0 1 .99 1.142l-.182 1.272a.953.953 0 0 0 1.338 1.002.95.95 0 0 0 .544-1.002l-.18-1.272a1 1 0 0 1 .99-1.142h4.5v-2.348l-.13.02a2.954 2.954 0 0 1-3.105-4.149 2.95 2.95 0 0 1 3.105-1.695l.13.019V2.5h-3.348l.02.13a2.954 2.954 0 0 1-5.755 1.252A2.95 2.95 0 0 1 8.33 2.63l.019-.13z"/></svg>
