<?xml version="1.0" encoding="UTF-8"?><svg xmlns="http://www.w3.org/2000/svg" width="20" height="20" viewBox="0 0 20 20"><title>recent changes</title><g fill="#fff" fill-rule="evenodd"><path fill-rule="nonzero" d="M14 15h-4v2h4zm0-6h-2v2h2zm0-6H3v2h11z"/><circle cx="18" cy="4" r="2" fill-rule="nonzero" transform="matrix(-1 0 0 1 36 0)"/><circle cx="18" cy="10" r="2" fill-rule="nonzero" transform="matrix(-1 0 0 1 36 0)"/><circle cx="18" cy="16" r="2" fill-rule="nonzero" transform="matrix(-1 0 0 1 36 0)"/><path d="M6.11 9.24l1.113-1.08a.556.556 0 01.783 0l1.833 1.857a.556.556 0 010 .782l-1.078 1.09-2.65-2.65zm2.062 3.226L2.64 18H0v-2.64l5.533-5.532z"/></g></svg>