<?xml version="1.0" encoding="UTF-8"?><svg xmlns="http://www.w3.org/2000/svg" width="20" height="20" viewBox="0 0 20 20"><title>
		search case sensitive
	</title><path fill="#fff" d="M15.729 6.876a3.43 3.43 0 0 1 2.619.186l.102.05A2.81 2.81 0 0 1 20 9.622v6.384h-2v-.558l-1.303.49a2.597 2.597 0 0 1-3.234-3.593l.09-.18a3 3 0 0 1 2.683-1.66H18v-.884a.81.81 0 0 0-.444-.72l-.103-.05a1.43 1.43 0 0 0-1.652.268l-.594.594-1.414-1.414.594-.594c.376-.376.836-.66 1.341-.829Zm.507 5.63a1 1 0 0 0-.894.553l-.09.18a.597.597 0 0 0 .743.825L18 13.313v-.806h-1.764ZM12.325 16h-2.172l-1.268-3H3.44l-1.27 3H0L5.242 3.61h1.842zm-8.038-5H8.04L6.163 6.565z"/></svg>
