<?xml version="1.0" encoding="UTF-8"?><svg xmlns="http://www.w3.org/2000/svg" width="20" height="20" viewBox="0 0 20 20"><title>
		search diacritics
	</title><path fill="#fff" d="M8.729 8.37a3.43 3.43 0 0 1 2.619.186l.102.05a2.8 2.8 0 0 1 1.55 2.51V17.5h-2v-.557l-1.303.489a2.597 2.597 0 0 1-3.234-3.593l.09-.18A3 3 0 0 1 9.236 12H11v-.884a.8.8 0 0 0-.444-.72l-.103-.051a1.43 1.43 0 0 0-1.652.269l-.594.593-1.414-1.414.594-.593a3.4 3.4 0 0 1 1.342-.83M9.236 14a1 1 0 0 0-.894.553l-.09.18a.597.597 0 0 0 .743.826L11 14.807V14zM6.673 3.913a2.3 2.3 0 0 1 3.538.35l.243.365A.299.299 0 0 0 11 4.462V3.5h2v.962a2.3 2.3 0 0 1-4.21 1.276l-.244-.366A.298.298 0 0 0 8 5.538V6.5H6v-.962a2.3 2.3 0 0 1 .673-1.625"/></svg>
