<?xml version="1.0" encoding="UTF-8"?><svg xmlns="http://www.w3.org/2000/svg" width="20" height="20" viewBox="0 0 20 20"><title>search regular expression</title><path d="M1.62 10a13.63 13.63 0 00.45 3.51A13.39 13.39 0 003.4 16.7a.91.91 0 01.1.27.41.41 0 010 .21.38.38 0 01-.1.15l-.14.11-.83.5a14.89 14.89 0 01-1.11-2 13.62 13.62 0 01-.74-2 13.22 13.22 0 01-.42-2 16.4 16.4 0 010-4.14 13.22 13.22 0 01.42-2 13.84 13.84 0 01.74-2A14.94 14.94 0 012.4 2l.83.51.14.11a.4.4 0 01.1.15.41.41 0 010 .21.93.93 0 01-.1.27A13.6 13.6 0 001.62 10zM15.8 8.79l-.54.94-1.75-1-.34-.23a1.38 1.38 0 01-.27-.26A1.84 1.84 0 0113 9v2h-1V9a2.16 2.16 0 01.12-.76 1.82 1.82 0 01-.58.48l-1.74 1-.54-.94 1.73-1a2.25 2.25 0 01.75-.29 1.77 1.77 0 01-.75-.28L9.2 6.2l.54-.94 1.75 1 .33.24a1.64 1.64 0 01.27.27A2 2 0 0112 6V4h1v2a2.93 2.93 0 010 .4 1.36 1.36 0 01-.1.36 2.24 2.24 0 01.59-.49l1.74-1 .54.94-1.73 1-.36.18a1.29 1.29 0 01-.36.1 2.11 2.11 0 01.36.1 2 2 0 01.36.19zM18.37 10a13.65 13.65 0 00-.45-3.51 13.81 13.81 0 00-1.32-3.27.93.93 0 01-.1-.27.45.45 0 010-.21.36.36 0 01.1-.15l.14-.11.86-.48a15.54 15.54 0 011.1 2 13.79 13.79 0 01.74 2 13.18 13.18 0 01.42 2 16.16 16.16 0 01.14 2 16.21 16.21 0 01-.13 2 13.18 13.18 0 01-.42 2 13.57 13.57 0 01-.74 2 15.49 15.49 0 01-1.1 2l-.84-.5-.14-.11a.35.35 0 01-.1-.15.44.44 0 010-.21.91.91 0 01.1-.27 13.62 13.62 0 001.31-3.23 13.69 13.69 0 00.43-3.53z"/><circle cx="6.5" cy="13.5" r="1.5"/></svg>