<?xml version="1.0" encoding="UTF-8"?><svg xmlns="http://www.w3.org/2000/svg" width="20" height="20" viewBox="0 0 20 20"><title>
		search regular expression
	</title><path fill="#fff" d="M17.864 2.797a15 15 0 0 1-.392 15.234l-.624 1-1.695-1.061.623-.998a13 13 0 0 0 .34-13.203l-.99-1.784 1.748-.97zM4.848 2.03l-.624.998a13 13 0 0 0-.34 13.203l.99 1.784-1.748.97-.99-1.782A15 15 0 0 1 2.528 1.97l.625-1zM8 16H6v-2h2zm3.995-8.709L14 6.134l1 1.732-2 1.155 1.928 1.113-1 1.732-1.93-1.115.001 2.248-1.999.002-.002-2.248-1.927 1.113-1-1.732L9 9.02 7 7.866l1-1.732 1.995 1.152V5.001l2-.002z"/></svg>
