<?xml version="1.0" encoding="UTF-8"?><svg xmlns="http://www.w3.org/2000/svg" width="20" height="20" viewBox="0 0 20 20"><title>settings</title><g fill="#fff"><path d="M10 2.5a7.5 7.5 0 1 0 7.5 7.5A7.5 7.5 0 0 0 10 2.5zm0 11a3.5 3.5 0 1 1 3.5-3.5 3.5 3.5 0 0 1-3.5 3.5z"/><path d="M12.5 6.5l-1-6.5h-3l-1 6.5m0 7l1 6.5h3l1-6.5m1-1l6.5-1v-3l-6.5-1m-7 0L0 8.5v3l6.5 1m7.743-3.207l3.889-5.303-2.122-2.122-5.303 3.89m-4.95 4.95L1.868 16.01l2.122 2.122 5.303-3.89m0-8.485L3.99 1.868 1.868 3.99l3.89 5.303m4.95 4.95l5.302 3.889 2.122-2.122-3.89-5.303"/></g></svg>