<?xml version="1.0" encoding="UTF-8"?><svg xmlns="http://www.w3.org/2000/svg" width="20" height="20" viewBox="0 0 20 20"><title>
		settings
	</title><path d="M11.835 3.505a6.7 6.7 0 0 1 1.46.603l2.362-1.18 1.414 1.415-1.18 2.361a6.7 6.7 0 0 1 .603 1.46L19 9v2l-2.506.835a6.7 6.7 0 0 1-.603 1.46l1.18 2.362-1.414 1.414-2.362-1.18a6.7 6.7 0 0 1-1.46.603L11 19H9l-.836-2.506a6.7 6.7 0 0 1-1.46-.603l-2.361 1.18-1.414-1.414 1.18-2.362a6.7 6.7 0 0 1-.604-1.46L1 11V9l2.505-.836a6.7 6.7 0 0 1 .603-1.46l-1.18-2.361 1.415-1.414 2.361 1.18a6.7 6.7 0 0 1 1.46-.604L9 1h2zM10 7a3 3 0 1 0 0 6 3 3 0 0 0 0-6"/></svg>
