<?xml version="1.0" encoding="UTF-8"?><svg xmlns="http://www.w3.org/2000/svg" width="20" height="20" viewBox="0 0 20 20"><title>
		settings
	</title><g fill="#36c"><path d="M10 8.5a1.5 1.5 0 1 1 0 3 1.5 1.5 0 0 1 0-3"/><path d="M11.74 3.218a7 7 0 0 1 1.822.757l2.095-1.046 1.414 1.414-1.047 2.094c.334.562.591 1.174.757 1.823L19 9v2l-2.219.74a7 7 0 0 1-.757 1.822l1.047 2.095-1.414 1.414-2.095-1.047a7 7 0 0 1-1.823.757L11 19H9l-.74-2.219a7 7 0 0 1-1.823-.757l-2.094 1.047-1.414-1.414 1.046-2.095a7 7 0 0 1-.757-1.823L1 11V9l2.218-.74a7 7 0 0 1 .757-1.823L2.929 4.343l1.414-1.414 2.094 1.046a7 7 0 0 1 1.823-.757L9 1h2zM10 5a5 5 0 1 0 0 10 5 5 0 0 0 0-10"/></g></svg>
