<?xml version="1.0" encoding="UTF-8"?><svg xmlns="http://www.w3.org/2000/svg" width="20" height="20" viewBox="0 0 20 20"><title>
		share
	</title><path d="M19.053 7.33v1.34L13.347 15H11v-3.862c-1.453.393-2.914 1.593-4.307 3.182-1.456 1.662-2.58 3.424-3.46 4.68H1c0-1.489.535-4.898 2.115-7.965C4.583 8.185 7.063 5.451 11 5.052V1h2.347zM13 7h-1c-3.467 0-5.694 2.207-7.107 4.951C4.41 12.885 3.782 14.077 3.5 15c.449-.598 1.187-1.425 1.688-1.998C6.93 11.015 9.271 9 12 9h1v3.396L16.963 8 13 3.604z"/></svg>
