<?xml version="1.0" encoding="UTF-8"?><svg xmlns="http://www.w3.org/2000/svg" width="20" height="20" viewBox="0 0 20 20"><title>
		share
	</title><path d="M19 7.293v1.414l-5.982 6L11.31 14v-2.887c-1.53.336-3.077 1.392-4.524 2.772-1.732 1.652-3.132 3.58-3.986 4.716L1 18c0-1.521.628-4.697 2.299-7.517 1.561-2.634 4.116-5.076 8.01-5.436V2l1.709-.707zM13.31 7h-1c-3.526 0-5.824 2.028-7.29 4.503a15 15 0 0 0-1.207 2.606 26 26 0 0 1 1.593-1.671C7.251 10.678 9.652 9 12.31 9h1v2.586L16.895 8 13.31 4.414z"/></svg>
