<?xml version="1.0" encoding="UTF-8"?><svg xmlns="http://www.w3.org/2000/svg" width="20" height="20" viewBox="0 0 20 20"><title>
		signature
	</title><path fill="#36c" d="M19 19H1v-2h18zM14.267.517a2.53 2.53 0 0 1 1.364.599c.648.554.954 1.34 1.068 1.898l.066.28c.308 1.475.325 4.111-1.62 6.69-.915 1.213-1.906 2.002-2.899 2.522.211.248.456.454.737.609.357.197 1.492.49 2.572-.405.46-.381.96-.645 1.497-.7a1.9 1.9 0 0 1 1.419.425c.652.528.921 1.38 1.013 1.887l.178.984-1.968.356-.178-.985a2 2 0 0 0-.139-.443.8.8 0 0 0-.147-.226c-.054.015-.186.066-.4.243-1.873 1.552-3.939 1.097-4.813.614a4.8 4.8 0 0 1-1.72-1.64c-.592.141-1.166.221-1.705.27l-.996.093-.184-1.992.996-.092c.356-.033.718-.08 1.082-.15-.356-1.31-.378-2.66-.294-3.591.084-1.003.33-2.417.809-3.711.46-1.24 1.235-2.649 2.553-3.23.588-.26 1.162-.368 1.709-.305m-.23 1.988c-.123-.014-.337-.002-.67.145-.53.234-1.062.95-1.487 2.097-.404 1.089-.62 2.322-.692 3.188v.008a8.7 8.7 0 0 0 .2 2.751c.741-.402 1.471-1.001 2.16-1.914 1.617-2.143 1.467-4.288 1.215-5.265l-.01-.036-.006-.036c-.052-.29-.208-.63-.416-.807a.53.53 0 0 0-.295-.131ZM6.414 11l-1.5 1.5 1.5 1.5L5 15.414l-1.5-1.5-1.5 1.5L.586 14l1.5-1.5-1.5-1.5L2 9.586l1.5 1.5 1.5-1.5z"/></svg>
