<?xml version="1.0" encoding="UTF-8"?><svg xmlns="http://www.w3.org/2000/svg" width="20" height="20" viewBox="0 0 20 20"><title>
		signature
	</title><path d="M19.248 19h-18v-2h18zM5.98.516c.547-.063 1.122.046 1.71.306 1.317.581 2.093 1.99 2.553 3.23.48 1.294.725 2.708.809 3.71.084.931.062 2.282-.294 3.591q.547.103 1.082.15l.996.093-.184 1.992-.996-.093a12 12 0 0 1-1.705-.27 4.8 4.8 0 0 1-1.72 1.64c-.875.483-2.94.938-4.813-.614-.214-.177-.346-.228-.4-.243a.8.8 0 0 0-.147.226 2 2 0 0 0-.139.443l-.178.985-1.968-.357.178-.983c.092-.507.361-1.36 1.013-1.888a1.9 1.9 0 0 1 1.42-.424c.536.055 1.036.319 1.496.7 1.08.894 2.214.602 2.572.405.28-.155.526-.361.737-.61-.993-.52-1.984-1.308-2.9-2.52-1.944-2.58-1.927-5.216-1.619-6.691l.066-.28c.114-.558.42-1.344 1.068-1.898a2.53 2.53 0 0 1 1.363-.6m.23 1.989a.53.53 0 0 0-.293.13c-.208.178-.364.518-.416.808l-.006.035-.01.037c-.252.977-.402 3.122 1.215 5.265.69.913 1.42 1.512 2.16 1.914a8.7 8.7 0 0 0 .2-2.75v-.01c-.072-.865-.288-2.098-.692-3.187C7.943 3.6 7.411 2.884 6.881 2.65c-.333-.147-.547-.16-.67-.145ZM19.662 11l-1.5 1.5 1.5 1.5-1.414 1.414-1.5-1.5-1.5 1.5L13.834 14l1.5-1.5-1.5-1.5 1.414-1.414 1.5 1.5 1.5-1.5z"/></svg>
