<?xml version="1.0" encoding="UTF-8"?><svg xmlns="http://www.w3.org/2000/svg" width="20" height="20" viewBox="0 0 20 20"><title>
		special character
	</title><path d="M16.5 9.53C16.5 5.92 13.586 3 10 3S3.5 5.92 3.5 9.53a6.53 6.53 0 0 0 2.788 5.36c.449.314.648.458.86.574.186.101.4.19.853.325l.713.213V19H1v-2h4.827c-.214-.139-.435-.295-.686-.472A8.53 8.53 0 0 1 1.5 9.53C1.5 4.822 5.302 1 10 1s8.5 3.822 8.5 8.53a8.53 8.53 0 0 1-3.64 6.998c-.252.177-.473.333-.687.472H19v2h-7.714v-2.998l.713-.213c.452-.135.667-.223.853-.325.212-.116.411-.26.86-.574A6.53 6.53 0 0 0 16.5 9.53"/></svg>
