<?xml version="1.0" encoding="UTF-8"?><svg xmlns="http://www.w3.org/2000/svg" width="20" height="20" viewBox="0 0 20 20"><title>
		strikethrough
	</title><path d="M18 12h-3.835c.217.573.335 1.19.335 1.826v.157a5.017 5.017 0 0 1-9.982.71l-.008-.051 1.98-.284.007.052a3.017 3.017 0 0 0 6.003-.427v-.157A3.17 3.17 0 0 0 11.92 12H2v-2h16zM9.448 1a4.77 4.77 0 0 1 4.428 2.997l.053.132-1.858.742-.051-.13A2.77 2.77 0 0 0 9.448 3H9.12a2.489 2.489 0 0 0-.925 4.8l.498.2H5.4a4.49 4.49 0 0 1 3.72-7h.33Z"/></svg>
