<?xml version="1.0" encoding="UTF-8"?><svg xmlns="http://www.w3.org/2000/svg" width="20" height="20" viewBox="0 0 20 20"><title>strikethrough</title><path d="M5.6 9h5.89l-.39-.16-1.43-.47a7.06 7.06 0 01-1.25-.52 2.86 2.86 0 01-.88-.72 1.64 1.64 0 01-.34-1.06 2.32 2.32 0 01.18-.92 2 2 0 01.54-.73 2.53 2.53 0 01.88-.48 3.89 3.89 0 011.2-.18 3.9 3.9 0 011.3.24 5.83 5.83 0 01.94.41q.4.22.67.41a.9.9 0 00.49.18.58.58 0 00.35-.1 1 1 0 00.25-.34l.66-1.29A6 6 0 0012.61 2 7.37 7.37 0 0010 1.54a6.11 6.11 0 00-2.26.39A5 5 0 006.07 3a4.48 4.48 0 00-1.38 3.21A4.66 4.66 0 005 8.09a4 4 0 00.6.91zM19 11H1v2h11.4a2.27 2.27 0 01.08.58 2.5 2.5 0 01-.8 2 3.29 3.29 0 01-2.26.71A4.31 4.31 0 017.87 16a6 6 0 01-1.1-.54q-.46-.29-.78-.54a1 1 0 00-.59-.25.7.7 0 00-.36.09.76.76 0 00-.27.25L4 16.32a6.43 6.43 0 001.07.9 7.18 7.18 0 001.28.69 8 8 0 001.44.44 7.67 7.67 0 001.55.16 6.53 6.53 0 002.4-.41 5.11 5.11 0 001.77-1.13 4.88 4.88 0 001.1-1.69 5.62 5.62 0 00.39-2.09V13h4z"/></svg>