<?xml version="1.0" encoding="UTF-8"?><svg xmlns="http://www.w3.org/2000/svg" width="20" height="20" viewBox="0 0 20 20"><title>
		subtitle
	</title><g fill="#fff"><path d="M8.923 11.919c.856-1.712 3.298-1.712 4.154 0l.068.134a.397.397 0 0 0 .71 0l.25-.5a1 1 0 0 1 1.79.894l-.25.5c-.884 1.767-3.406 1.767-4.29 0l-.067-.133a.322.322 0 0 0-.576 0l-.113.225c-.853 1.705-3.32 1.602-4.028-.168a.209.209 0 0 0-.38-.016l-.296.592a1 1 0 0 1-1.79-.894l.296-.592c.853-1.705 3.32-1.602 4.028.168.067.167.3.177.38.016zm0-5c.856-1.712 3.298-1.712 4.154 0l.068.134a.397.397 0 0 0 .71 0l.25-.5a1 1 0 0 1 1.79.894l-.25.5c-.884 1.767-3.406 1.767-4.29 0l-.067-.134a.322.322 0 0 0-.576 0l-.113.226c-.853 1.705-3.32 1.602-4.028-.168a.209.209 0 0 0-.38-.016l-.296.592a1 1 0 0 1-1.79-.894l.296-.592c.853-1.705 3.32-1.602 4.028.168.067.167.3.177.38.016z"/><path d="M20 18H0V2h20zM2 16h16V4H2z"/></g></svg>
