<?xml version="1.0" encoding="UTF-8"?><svg xmlns="http://www.w3.org/2000/svg" width="20" height="20" viewBox="0 0 20 20"><title>
		three dimensional
	</title><path fill="#36c" d="M19 4.73v9.868l-7.026 3.783-.397.213-.423-.155L1 14.697V4.813l7.14-2.747.302-.115zM4.611 13.894l5.889 2.17V12.68l-1.932-.61-3.957 1.826Zm7.889 1.93 2.942-1.585-2.942-.93zm0-6.685v2.075l4.5 1.42v-5.57L12.5 9.14ZM3 12.436l4.5-2.077V8.284L3 6.864v5.573Zm6.5-2.17 1 .317V9.231l-1-.315zm0-3.447 1.93.61 3.623-1.671L9.5 4.296zM5.025 5.406l2.475.782V4.455z"/></svg>
