<?xml version="1.0" encoding="UTF-8"?><svg xmlns="http://www.w3.org/2000/svg" width="20" height="20" viewBox="0 0 20 20"><title>
		unlink
	</title><path fill="#36c" d="m19.254 17.84-1.414 1.414-5.59-5.59-.277.07a4.35 4.35 0 0 1-4.002-1.175l-.707-.707 1.535-1.64-1.432-1.43q-.045.038-.088.08L4.353 11.81a2.726 2.726 0 0 0 3.842 3.867l.046-.046.715-.7 1.4 1.43-.761.744A4.726 4.726 0 0 1 2.934 10.4L5.86 7.453l.09-.088-5.08-5.08L2.285.871zm-8.85-14.944A4.725 4.725 0 0 1 17.065 9.6l-1.606 1.616-1.414-1.414 1.601-1.612a2.726 2.726 0 0 0-3.842-3.867l-.047.045-.714.7-1.4-1.428.714-.7.047-.045Z"/></svg>
