<?xml version="1.0" encoding="UTF-8"?><svg xmlns="http://www.w3.org/2000/svg" width="20" height="20" viewBox="0 0 20 20"><title>
		user rights
	</title><g fill="#fff"><path d="M8 12a6 6 0 0 1 6 6v1H0v-1a6 6 0 0 1 6-6zm9-9.826q.15.053.29.12l.831-.83 1.414 1.415-.83.83q.067.142.121.291H20v2h-1.174a3 3 0 0 1-.122.29l.831.831-1.414 1.414-.831-.83q-.14.067-.29.12V9h-2V7.825a3 3 0 0 1-.291-.12l-.83.83-1.414-1.414.83-.831a3 3 0 0 1-.121-.29H12V4h1.174q.053-.15.12-.291l-.83-.83 1.415-1.414.83.83A3 3 0 0 1 15 2.174V1h2zM16 4a1 1 0 1 0 0 2 1 1 0 0 0 0-2"/><circle cx="7" cy="7" r="3"/></g></svg>
