<?xml version="1.0" encoding="UTF-8"?><svg xmlns="http://www.w3.org/2000/svg" width="20" height="20" viewBox="0 0 20 20"><title>
		user mentor
	</title><g fill="#fff"><path d="M8 12a6 6 0 0 1 6 6v1H0v-1a6 6 0 0 1 6-6zm9-1h-2V9h2zM16 0c1.015 0 1.794.425 2.302 1.031.48.575.698 1.287.698 1.892 0 .915-.36 1.525-.799 1.984-.19.2-.408.382-.56.514a4 4 0 0 0-.403.389c-.159.185-.238.519-.238 1.164V7h-2v-.026c0-.645.04-1.671.72-2.465.21-.246.432-.444.61-.598.193-.168.316-.271.426-.386.162-.17.244-.306.244-.602 0-.164-.07-.415-.232-.609C16.63 2.152 16.41 2 16 2c-.604 0-1 .476-1 1v.5h-2V3c0-1.476 1.144-3 3-3"/><circle cx="7" cy="7" r="3"/></g></svg>
