<?xml version="1.0" encoding="UTF-8"?><svg xmlns="http://www.w3.org/2000/svg" width="20" height="20" viewBox="0 0 20 20"><title>
		blocked user
	</title><g fill="#36c"><path d="m19.254 17.84-1.414 1.414-2.224-2.224A9 9 0 0 1 2.97 4.383L.87 2.285 2.285.871zM4.394 5.808a7 7 0 0 0 9.798 9.798L12.585 14H6v-1.125c0-1.487 1.173-2.702 2.658-2.803zM10 1a9 9 0 0 1 8.122 12.88l-1.528-1.528a7 7 0 0 0-8.946-8.946l-1.529-1.53A9 9 0 0 1 10 1.001Z"/><path d="M10 5c1.105 0 2 .881 2 1.969 0 .235-.044.459-.121.668l-2.53-2.53Q9.659 5.002 10 5"/></g></svg>
