<?xml version="1.0" encoding="UTF-8"?><svg xmlns="http://www.w3.org/2000/svg" width="20" height="20" viewBox="0 0 20 20"><title>
		user mentor
	</title><path d="M6 17v2H4v-2zm7-6a6 6 0 0 1 6 6v2H9.5v-8zM5 8c1.856 0 3 1.524 3 3v.5H6V11c0-.524-.396-1-1-1-.41 0-.63.152-.768.315a1.02 1.02 0 0 0-.232.608c0 .296.082.432.244.602.11.115.233.218.426.386.178.154.4.352.61.598.68.794.72 1.82.72 2.465V15H4v-.026c0-.645-.08-.98-.238-1.164a4 4 0 0 0-.403-.39c-.152-.131-.37-.313-.56-.513A2.73 2.73 0 0 1 2 10.923c0-.605.218-1.317.698-1.892C3.206 8.425 3.985 8 5 8m6-7a4 4 0 1 1 0 7.999A4 4 0 0 1 11 1"/></svg>
