<?xml version="1.0" encoding="UTF-8"?><svg xmlns="http://www.w3.org/2000/svg" width="20" height="20" viewBox="0 0 20 20"><title>
		temporary user
	</title><path d="M9 11a7 7 0 0 0-1.365.133l.388 1.962A5 5 0 0 1 9 13h1v4H8v2h10v-2a6 6 0 0 0-6-6zm-6.867 5.635A7 7 0 0 0 2 18v1h2.75v-2h-.773zM5.11 12.18a7 7 0 0 0-1.93 1.93l1.662 1.113a5 5 0 0 1 1.38-1.381zM10 1c-.54 0-1.058.108-1.531.304l.765 1.847C9.47 3.054 9.727 3 10 3v4a2 2 0 0 1-.766-.151L8.47 8.696a4 4 0 0 0 1.844.29q.047-.002.094-.007l.04-.004.16-.02.053-.01.138-.025.076-.018.12-.027a4 4 0 0 0 .285-.086 4.01 4.01 0 0 0 2.597-2.796 4 4 0 0 0-.05-2.163l-.036-.11a4.01 4.01 0 0 0-2.376-2.463l-.044-.017-.09-.03a4 4 0 0 0-.286-.086l-.12-.027q-.037-.01-.076-.018-.069-.014-.138-.024l-.053-.01-.16-.02-.04-.005q-.047-.005-.095-.007A4 4 0 0 0 10 1M6.304 3.469a4 4 0 0 0 0 3.062l1.847-.765A2 2 0 0 1 8 5a2 2 0 0 1 .151-.766L6.304 3.47Z"/></svg>
