<?xml version="1.0" encoding="UTF-8"?><svg xmlns="http://www.w3.org/2000/svg" width="20" height="20" viewBox="0 0 20 20"><title>
		user mentor
	</title><path d="M11 12a6 6 0 0 0-6 6v1h14v-1a6 6 0 0 0-6-6zm-9-1h2V9H2zM3 0C1.985 0 1.206.425.698 1.031A3 3 0 0 0 0 2.923c0 .915.36 1.525.799 1.984.19.2.408.382.56.514.167.146.295.262.403.389.159.185.238.519.238 1.164V7h2v-.026c0-.645-.04-1.671-.72-2.465a6 6 0 0 0-.61-.598c-.193-.168-.316-.271-.426-.386C2.082 3.355 2 3.22 2 2.923c0-.164.07-.415.232-.609C2.37 2.152 2.59 2 3 2c.604 0 1 .476 1 1v.5h2V3c0-1.476-1.144-3-3-3"/><circle cx="12" cy="7" r="3"/></svg>
