<?xml version="1.0" encoding="UTF-8"?><svg xmlns="http://www.w3.org/2000/svg" width="20" height="20" viewBox="0 0 20 20"><title>
		temporary user location
	</title><g fill="#36c"><path d="M13.5 10a1 1 0 1 1 0 2 1 1 0 0 1 0-2"/><path d="M10.313 1.013q.047.002.094.007l.04.004.16.02.053.01.138.025.076.018.12.027q.145.038.285.086l.091.03.044.018.117.046A4 4 0 0 1 13.79 3.72q.019.054.036.11a4 4 0 0 1 .05 2.162c-.011.044-.027.087-.04.131a4.89 4.89 0 0 1 3.845 7.414l-.389.64A5.96 5.96 0 0 1 18 17v2h-3.634l-.011.02h-1.71l-.011-.02H8v-2h2v-2.34l-.68-1.122A5 5 0 0 1 9.036 13H9a5 5 0 0 0-.977.095l-.388-1.962q.478-.094.975-.121a4.9 4.9 0 0 1 .476-2.118 4 4 0 0 1-.617-.198l.765-1.847C9.47 6.946 9.727 7 10 7V3a2 2 0 0 0-.766.151L8.47 1.304a4 4 0 0 1 1.844-.291Zm5.23 7.945a2.89 2.89 0 0 0-4.514 3.543l2.471 4.07 2.47-4.07a2.89 2.89 0 0 0-.427-3.543"/><path d="M3.977 17h.773v2H2v-1q0-.7.133-1.365zm2.246-3.158a5 5 0 0 0-1.381 1.38L3.18 14.11a7 7 0 0 1 1.93-1.93zm1.928-9.608A2 2 0 0 0 8 5a2 2 0 0 0 .151.766l-1.847.765A4 4 0 0 1 6 5c0-.54.108-1.058.304-1.531z"/></g></svg>
