<?xml version="1.0" encoding="UTF-8"?><svg xmlns="http://www.w3.org/2000/svg" width="20" height="20" viewBox="0 0 20 20"><title>
		temporary user
	</title><path fill="#fff" d="M11 11c.458 0 .916.044 1.365.133l-.388 1.962A5 5 0 0 0 11 13h-1v4h2v2H2v-2a6 6 0 0 1 6-6zm6.867 5.635Q18 17.311 18 18v1h-2.75v-2h.773zM14.89 12.18a7 7 0 0 1 1.93 1.93l-1.662 1.113a5 5 0 0 0-1.38-1.381zM10 1c.54 0 1.058.108 1.531.304l-.765 1.847A2 2 0 0 0 10 3v4a2 2 0 0 0 .766-.151l.764 1.847a4 4 0 0 1-1.844.29l-.094-.007-.04-.004-.16-.02-.053-.01L9.2 8.92l-.076-.018-.12-.027a4.01 4.01 0 0 1-2.882-2.882 4 4 0 0 1 .05-2.163l.036-.11a4.01 4.01 0 0 1 2.376-2.463l.044-.017.09-.03q.142-.048.286-.086l.12-.027q.037-.01.076-.018.069-.014.138-.024l.053-.01.16-.02.04-.005q.046-.005.095-.007Q9.843 1 10 1m3.696 2.469a4 4 0 0 1 0 3.062l-1.847-.765a2 2 0 0 0 0-1.531z"/></svg>
