<?xml version="1.0" encoding="UTF-8"?><svg xmlns="http://www.w3.org/2000/svg" width="20" height="20" viewBox="0 0 20 20"><title>
		user rights
	</title><path d="M12 12a6 6 0 0 0-6 6v1h14v-1a6 6 0 0 0-6-6zM3 2.174q-.15.053-.29.12l-.831-.83L.465 2.88l.83.83a3 3 0 0 0-.12.29H0v2h1.174q.054.15.122.29l-.831.831 1.414 1.414.831-.83q.14.067.29.12V9h2V7.825q.15-.053.291-.12l.83.83 1.414-1.414-.83-.831q.068-.14.121-.29H8V4H6.826a3 3 0 0 0-.12-.291l.83-.83L6.12 1.465l-.83.83A3 3 0 0 0 5 2.174V1H3zM4 4a1 1 0 1 1 0 2 1 1 0 0 1 0-2"/><circle cx="13" cy="7" r="3"/></svg>
