<?xml version="1.0" encoding="UTF-8"?><svg xmlns="http://www.w3.org/2000/svg" width="20" height="20" viewBox="0 0 20 20"><title>
		temporary user location
	</title><g fill="#36c"><path d="M6.889 10a1 1 0 1 1 0 2 1 1 0 0 1 0-2"/><path d="M10.075 1.013a4 4 0 0 1 1.844.29l-.764 1.848A2 2 0 0 0 10.389 3v4c.273 0 .53-.054.766-.151l.765 1.847a4 4 0 0 1-.617.197c.315.662.477 1.386.476 2.119q.497.027.975.12l-.388 1.963a5 5 0 0 0-.977-.095h-.036a5 5 0 0 1-.284.538l-.68 1.122V17h2v2H7.755l-.01.02H6.032l-.01-.02H2.389v-2a5.96 5.96 0 0 1 .708-2.823l-.389-.64a4.892 4.892 0 0 1 3.845-7.414c-.013-.044-.03-.087-.04-.13a4 4 0 0 1 .05-2.163q.016-.057.036-.11a4 4 0 0 1 2.259-2.416l.117-.046.044-.018.09-.03a4 4 0 0 1 .286-.086l.12-.027.076-.018.138-.025.052-.01.2-.025zM6.716 8.117a2.89 2.89 0 0 0-2.297 4.384l2.47 4.07 2.47-4.07a2.89 2.89 0 0 0-2.643-4.384"/><path d="M18.256 16.635q.133.665.133 1.365v1h-2.75v-2h.773zM15.28 12.18a7 7 0 0 1 1.93 1.93l-1.663 1.112a5 5 0 0 0-1.38-1.38zm-1.195-8.711a4 4 0 0 1 0 3.063l-1.846-.765c.1-.243.15-.504.15-.767s-.05-.523-.15-.766z"/></g></svg>
