<?xml version="1.0" encoding="UTF-8"?><svg xmlns="http://www.w3.org/2000/svg" width="20" height="20" viewBox="0 0 20 20"><title>
		volume up
	</title><path d="M15.756 1.345a13.19 13.19 0 0 1 .51 16.646l-1.08 1.41-1.587-1.215 1.078-1.41a11.186 11.186 0 0 0-.433-14.12l-.654-.757L15.1.59zM9 4v12l-1.707.707L3.586 13H0V7h3.586l3.707-3.707zM4.414 9H2v2h2.414L7 13.586V6.414z"/><path d="M12.726 4.812a7.527 7.527 0 0 1 .311 10.007l-.27.323-.642.766-1.533-1.283.91-1.089a5.526 5.526 0 0 0-.228-7.348l-.688-.726 1.452-1.376z"/></svg>
