<?xml version="1.0" encoding="UTF-8"?><svg xmlns="http://www.w3.org/2000/svg" width="20" height="20" viewBox="0 0 20 20"><title>
		volume off
	</title><path fill="#36c" d="m19.254 17.84-1.414 1.414-3.84-3.84-1.293 1.293L11 16v-3.586L7.348 8.762a5.52 5.52 0 0 0 1.15 4.774l.91 1.089-1.533 1.283-.642-.766-.27-.323a7.53 7.53 0 0 1-1.206-7.648L3.998 5.412a11.19 11.19 0 0 0 1.325 11.364l1.078 1.41-1.588 1.215-1.079-1.41A13.19 13.19 0 0 1 2.501 3.915l-1.63-1.63L2.285.871zM16.414 7H20v6h-2.758l-1.828-1.828.172-.172H18V9h-2.414L13 6.414v2.344l-2-2V4l1.707-.707z"/></svg>
