<?xml version="1.0" encoding="UTF-8"?><svg xmlns="http://www.w3.org/2000/svg" width="20" height="20" viewBox="0 0 20 20"><title>
		volume off
	</title><path fill="#fff" d="m19.254 17.84-1.414 1.414-1.444-1.444q-.063.091-.13.181l-1.08 1.41-1.587-1.215 1.078-1.41a10 10 0 0 0 .289-.396L13.2 14.614a6 6 0 0 1-.163.205l-.27.323-.642.766-1.533-1.283.91-1.089q.143-.171.27-.35L9 10.413V16l-1.707.707L3.586 13H0V7h3.586l1-1L.87 2.285 2.285.871zM4.414 9H2v2h2.414L7 13.586V8.414l-1-1zm11.342-7.655a13.19 13.19 0 0 1 2.566 12.735L16.7 12.457a11.18 11.18 0 0 0-2.455-9.802L13.59 1.9 15.1.59zm-3.03 3.467a7.52 7.52 0 0 1 2.043 5.715l-2.253-2.254a5.5 5.5 0 0 0-1.242-2.085l-.688-.726 1.452-1.376z"/></svg>
