<?xml version="1.0" encoding="UTF-8"?><svg xmlns="http://www.w3.org/2000/svg" width="20" height="20" viewBox="0 0 20 20"><title>
		volume up
	</title><path d="m5.387 1.898-.654.758a11.186 11.186 0 0 0-.433 14.12l1.079 1.41L3.792 19.4l-1.08-1.409a13.19 13.19 0 0 1 .51-16.646L3.877.59zM15.391 7h3.586v6h-3.586l-3.707 3.707L9.977 16V4l1.707-.707zm-3.414 6.586L14.563 11h2.414V9h-2.414l-2.586-2.586z"/><path d="m8.391 5.462-.687.726a5.53 5.53 0 0 0-.229 7.348l.91 1.089-1.533 1.283-.911-1.089a7.53 7.53 0 0 1 .31-10.007l.688-.726z"/></svg>
