<?xml version="1.0" encoding="UTF-8"?><svg xmlns="http://www.w3.org/2000/svg" xmlns:xlink="http://www.w3.org/1999/xlink" width="10" height="10"><defs><linearGradient id="a"><stop offset="0" stop-color="#b2bf46"/><stop offset="1" stop-color="#c8d17b"/></linearGradient><linearGradient xlink:href="#a" id="b" x1="22.263" y1="9.142" x2="22.263" y2="5.389" gradientUnits="userSpaceOnUse" gradientTransform="matrix(.97 0 0 .97 858.756 710.263)"/></defs><path d="M2.779.529v5.788c-.303.034-.606.105-.909.242-1.087.492-1.625 1.48-1.212 2.212.413.732 1.61.916 2.697.424.877-.397 1.38-1.109 1.333-1.758v-3.971h2.94v2.849c-.309.031-.63.102-.939.242-1.075.486-1.621 1.488-1.212 2.212.408.724 1.592.911 2.667.424.874-.395 1.389-1.112 1.333-1.758v-6.91h-6.698z" fill="url(#b)" stroke="#757f2a" stroke-width=".97"/></svg>