<?xml version="1.0" encoding="UTF-8" standalone="no"?>
<svg
   xmlns:dc="http://purl.org/dc/elements/1.1/"
   xmlns:cc="http://creativecommons.org/ns#"
   xmlns:rdf="http://www.w3.org/1999/02/22-rdf-syntax-ns#"
   xmlns:svg="http://www.w3.org/2000/svg"
   xmlns="http://www.w3.org/2000/svg"
   xmlns:xlink="http://www.w3.org/1999/xlink"
   version="1.1"
   width="10"
   height="10"
   id="svg7339">
  <defs
     id="defs7341">
    <linearGradient
       id="linearGradient7918">
      <stop
         id="stop7920"
         style="stop-color:#e2e2e2;stop-opacity:1"
         offset="0" />
      <stop
         id="stop7922"
         style="stop-color:#f8f8f8;stop-opacity:1"
         offset="1" />
    </linearGradient>
    <radialGradient
       cx="-16.71875"
       cy="3.344311"
       r="2"
       fx="-16.71875"
       fy="3.344311"
       id="radialGradient7968"
       xlink:href="#linearGradient7918"
       gradientUnits="userSpaceOnUse"
       gradientTransform="matrix(1.4065972,0,0,2.1428629,810.35359,682.73485)" />
  </defs>
  <metadata
     id="metadata7344">
    <rdf:RDF>
      <cc:Work
         rdf:about="">
        <dc:format>image/svg+xml</dc:format>
        <dc:type
           rdf:resource="http://purl.org/dc/dcmitype/StillImage" />
        <dc:title></dc:title>
      </cc:Work>
    </rdf:RDF>
  </metadata>
  <g
     transform="translate(-783.57141,-687.36218)"
     id="layer1">
    <path
       d="m 785.05579,687.85437 0,9.09375 7.03125,0 0,-6.84375 -2.25,-2.25 -4.78125,0 z"
       id="rect7358"
       style="fill:#ffffff;fill-opacity:1;stroke:#878787;stroke-width:0.89999998;stroke-linecap:square;stroke-linejoin:miter;stroke-miterlimit:4;stroke-opacity:1;stroke-dasharray:none" />
    <path
       d="m 786.52454,689.44812 0,6.09375 4,0 0,-5.28125 -0.84375,0 0,-0.8125 -3.15625,0 z"
       id="rect7896"
       style="fill:url(#radialGradient7968);fill-opacity:1;stroke:none" />
    <g
       id="text7952"
       style="font-size:1px;font-style:normal;font-weight:normal;line-height:125%;letter-spacing:0px;word-spacing:0px;fill:#000000;fill-opacity:1;stroke:none;font-family:Sans">
      <path
         d="m 786.54126,689.4494 0.0986,0 0,0.646 0.35498,0 0,0.083 -0.45361,0 0,-0.72901"
         id="path2999" />
      <path
         d="m 787.28833,689.69452 c -0.0482,0 -0.0863,0.0189 -0.11426,0.0566 -0.028,0.0374 -0.042,0.0889 -0.042,0.1543 0,0.0654 0.0138,0.11702 0.0415,0.15478 0.028,0.0374 0.0662,0.0562 0.11475,0.0562 0.0479,0 0.0858,-0.0189 0.11377,-0.0566 0.028,-0.0378 0.042,-0.0892 0.042,-0.15429 0,-0.0648 -0.014,-0.11605 -0.042,-0.15381 -0.028,-0.0381 -0.0659,-0.0571 -0.11377,-0.0571 m 0,-0.0762 c 0.0781,0 0.13949,0.0254 0.18408,0.0762 0.0446,0.0508 0.0669,0.12109 0.0669,0.21094 0,0.0895 -0.0223,0.15983 -0.0669,0.21093 -0.0446,0.0508 -0.10596,0.0762 -0.18408,0.0762 -0.0784,0 -0.13997,-0.0254 -0.18457,-0.0762 -0.0443,-0.0511 -0.0664,-0.12142 -0.0664,-0.21093 0,-0.0898 0.0221,-0.16016 0.0664,-0.21094 0.0446,-0.0508 0.10612,-0.0762 0.18457,-0.0762"
         id="path3001" />
      <path
         d="m 788.00464,689.71552 c -0.0101,-0.006 -0.0212,-0.0101 -0.0332,-0.0127 -0.0117,-0.003 -0.0247,-0.004 -0.0391,-0.004 -0.0508,0 -0.0898,0.0166 -0.11718,0.0498 -0.027,0.0329 -0.0405,0.0802 -0.0405,0.14209 l 0,0.28809 -0.0903,0 0,-0.54688 0.0903,0 0,0.085 c 0.0189,-0.0332 0.0435,-0.0578 0.0737,-0.0737 0.0303,-0.0163 0.0671,-0.0244 0.11035,-0.0244 0.006,0 0.013,4.9e-4 0.0205,10e-4 0.007,6.5e-4 0.0158,0.002 0.0249,0.003 l 4.9e-4,0.0923"
         id="path3003" />
      <path
         d="m 788.54614,689.88251 0,0.0439 -0.41308,0 c 0.004,0.0618 0.0225,0.10905 0.0557,0.1416 0.0335,0.0322 0.0801,0.0483 0.13965,0.0483 0.0345,0 0.0679,-0.004 0.1001,-0.0127 0.0326,-0.008 0.0648,-0.0212 0.0967,-0.0381 l 0,0.085 c -0.0322,0.0137 -0.0653,0.0241 -0.0991,0.0312 -0.0339,0.007 -0.0682,0.0108 -0.10303,0.0108 -0.0872,0 -0.15641,-0.0254 -0.20752,-0.0762 -0.0508,-0.0508 -0.0762,-0.11946 -0.0762,-0.20605 0,-0.0895 0.0241,-0.16048 0.0723,-0.21289 0.0485,-0.0527 0.11377,-0.0791 0.1958,-0.0791 0.0736,0 0.13168,0.0238 0.17432,0.0713 0.043,0.0472 0.0645,0.11149 0.0645,0.19287 m -0.0898,-0.0264 c -6.5e-4,-0.0491 -0.0145,-0.0884 -0.0415,-0.11768 -0.0267,-0.0293 -0.0622,-0.0439 -0.10644,-0.0439 -0.0501,0 -0.0903,0.0142 -0.12061,0.0425 -0.0299,0.0283 -0.0472,0.0682 -0.0517,0.11963 l 0.32031,-4.9e-4"
         id="path3005" />
      <path
         d="m 789.11938,689.73651 c 0.0225,-0.0404 0.0493,-0.0701 0.0806,-0.0893 0.0312,-0.0192 0.068,-0.0288 0.11035,-0.0288 0.057,0 0.10091,0.02 0.13184,0.0601 0.0309,0.0397 0.0464,0.0964 0.0464,0.16992 l 0,0.33008 -0.0903,0 0,-0.32715 c 0,-0.0524 -0.009,-0.0913 -0.0278,-0.1167 -0.0186,-0.0254 -0.0469,-0.0381 -0.085,-0.0381 -0.0466,0 -0.0833,0.0155 -0.11035,0.0464 -0.027,0.0309 -0.0405,0.0731 -0.0405,0.12646 l 0,0.30909 -0.0903,0 0,-0.32715 c 0,-0.0527 -0.009,-0.0916 -0.0278,-0.1167 -0.0186,-0.0254 -0.0472,-0.0381 -0.0859,-0.0381 -0.0459,0 -0.0824,0.0156 -0.10938,0.0469 -0.027,0.0309 -0.0405,0.0729 -0.0405,0.12597 l 0,0.30909 -0.0903,0 0,-0.54688 0.0903,0 0,0.085 c 0.0205,-0.0335 0.0451,-0.0583 0.0737,-0.0742 0.0286,-0.016 0.0627,-0.0239 0.10205,-0.0239 0.0397,0 0.0734,0.0101 0.10107,0.0303 0.028,0.0202 0.0487,0.0495 0.062,0.0879"
         id="path3007" />
      <path
         d="m 786.53735,690.88153 0.0899,0 0,0.54688 -0.0899,0 0,-0.54688 m 0,-0.21289 0.0899,0 0,0.11377 -0.0899,0 0,-0.11377"
         id="path3009" />
      <path
         d="m 786.90161,691.34637 0,0.29004 -0.0903,0 0,-0.75488 0.0903,0 0,0.083 c 0.0189,-0.0326 0.0426,-0.0566 0.0713,-0.0723 0.029,-0.016 0.0635,-0.0239 0.10352,-0.0239 0.0664,0 0.12028,0.0264 0.16162,0.0791 0.0417,0.0527 0.0625,0.12207 0.0625,0.20801 0,0.0859 -0.0208,0.15527 -0.0625,0.208 -0.0413,0.0527 -0.0952,0.0791 -0.16162,0.0791 -0.04,0 -0.0745,-0.008 -0.10352,-0.0234 -0.0286,-0.0159 -0.0524,-0.0402 -0.0713,-0.0728 m 0.30567,-0.19091 c -10e-6,-0.0661 -0.0137,-0.11784 -0.041,-0.15528 -0.027,-0.0378 -0.0643,-0.0566 -0.11182,-0.0566 -0.0475,0 -0.085,0.0189 -0.1123,0.0566 -0.027,0.0374 -0.0405,0.0892 -0.0405,0.15528 0,0.0661 0.0135,0.118 0.0405,0.15576 0.0273,0.0374 0.0648,0.0562 0.1123,0.0562 0.0475,0 0.0848,-0.0187 0.11182,-0.0562 0.0273,-0.0378 0.041,-0.0897 0.041,-0.15576"
         id="path3011" />
      <path
         d="m 787.7981,690.89764 0,0.085 c -0.0254,-0.013 -0.0518,-0.0228 -0.0791,-0.0293 -0.0273,-0.007 -0.0557,-0.01 -0.085,-0.01 -0.0446,0 -0.0781,0.007 -0.10058,0.0205 -0.0221,0.0137 -0.0332,0.0342 -0.0332,0.0615 0,0.0208 0.008,0.0373 0.0239,0.0493 0.0159,0.0117 0.048,0.023 0.0962,0.0337 l 0.0308,0.007 c 0.0638,0.0137 0.10905,0.033 0.13575,0.0581 0.027,0.0247 0.0405,0.0594 0.0405,0.10401 0,0.0508 -0.0202,0.091 -0.0605,0.1206 -0.04,0.0296 -0.0952,0.0444 -0.16553,0.0444 -0.0293,0 -0.0599,-0.003 -0.0918,-0.009 -0.0316,-0.006 -0.0649,-0.014 -0.1001,-0.0254 l 0,-0.0928 c 0.0332,0.0173 0.0659,0.0303 0.0982,0.0391 0.0322,0.008 0.0641,0.0127 0.0957,0.0127 0.0423,0 0.0749,-0.007 0.0977,-0.0215 0.0228,-0.0147 0.0342,-0.0352 0.0342,-0.0615 0,-0.0244 -0.008,-0.0431 -0.0249,-0.0562 -0.0163,-0.013 -0.0522,-0.0255 -0.10792,-0.0376 l -0.0312,-0.007 c -0.0557,-0.0117 -0.0959,-0.0296 -0.1206,-0.0537 -0.0247,-0.0244 -0.0371,-0.0578 -0.0371,-0.1001 0,-0.0514 0.0182,-0.0912 0.0547,-0.11914 0.0365,-0.028 0.0882,-0.042 0.15527,-0.042 0.0332,0 0.0644,0.002 0.0937,0.007 0.0293,0.005 0.0563,0.0122 0.0811,0.022"
         id="path3013" />
      <path
         d="m 787.96167,691.21259 0,-0.33106 0.0898,0 0,0.32764 c 0,0.0518 0.0101,0.0907 0.0303,0.1167 0.0202,0.0257 0.0505,0.0386 0.0908,0.0386 0.0485,0 0.0868,-0.0155 0.11474,-0.0464 0.0283,-0.0309 0.0425,-0.0731 0.0425,-0.12646 l 0,-0.31006 0.0898,0 0,0.54688 -0.0898,0 0,-0.084 c -0.0218,0.0332 -0.0472,0.0579 -0.0762,0.0742 -0.0286,0.0159 -0.062,0.0239 -0.1001,0.0239 -0.0628,0 -0.11051,-0.0195 -0.14306,-0.0586 -0.0326,-0.0391 -0.0488,-0.0962 -0.0488,-0.17138 m 0.22607,-0.34424 0,0"
         id="path3015" />
      <path
         d="m 789.03149,690.98651 c 0.0225,-0.0404 0.0493,-0.0701 0.0806,-0.0893 0.0312,-0.0192 0.068,-0.0288 0.11035,-0.0288 0.057,0 0.10091,0.02 0.13184,0.0601 0.0309,0.0397 0.0464,0.0964 0.0464,0.16992 l 0,0.33008 -0.0903,0 0,-0.32715 c 0,-0.0524 -0.009,-0.0913 -0.0278,-0.1167 -0.0186,-0.0254 -0.0469,-0.0381 -0.085,-0.0381 -0.0465,0 -0.0833,0.0155 -0.11035,0.0464 -0.027,0.0309 -0.0405,0.0731 -0.0405,0.12646 l 0,0.30909 -0.0903,0 0,-0.32715 c 0,-0.0527 -0.009,-0.0916 -0.0278,-0.1167 -0.0186,-0.0254 -0.0472,-0.0381 -0.0859,-0.0381 -0.0459,0 -0.0824,0.0156 -0.10938,0.0469 -0.027,0.0309 -0.0405,0.0729 -0.0405,0.12597 l 0,0.30909 -0.0903,0 0,-0.54688 0.0903,0 0,0.085 c 0.0205,-0.0335 0.0451,-0.0583 0.0737,-0.0742 0.0286,-0.016 0.0627,-0.0239 0.10205,-0.0239 0.0397,0 0.0734,0.0101 0.10107,0.0303 0.028,0.0202 0.0487,0.0495 0.062,0.0879"
         id="path3017" />
      <path
         d="m 786.89722,692.21454 0,-0.2959 0.0898,0 0,0.75977 -0.0898,0 0,-0.082 c -0.0189,0.0326 -0.0428,0.0568 -0.0718,0.0728 -0.0286,0.0156 -0.0631,0.0234 -0.10352,0.0234 -0.0661,0 -0.11995,-0.0264 -0.16162,-0.0791 -0.0413,-0.0527 -0.062,-0.12207 -0.062,-0.208 0,-0.0859 0.0207,-0.15528 0.062,-0.20801 0.0417,-0.0527 0.0955,-0.0791 0.16162,-0.0791 0.0404,0 0.0749,0.008 0.10352,0.0239 0.029,0.0156 0.0529,0.0397 0.0718,0.0723 m -0.30616,0.19092 c 0,0.0661 0.0135,0.118 0.0405,0.15576 0.0274,0.0374 0.0648,0.0562 0.11231,0.0562 0.0475,0 0.085,-0.0187 0.1123,-0.0562 0.0273,-0.0378 0.041,-0.0897 0.041,-0.15576 0,-0.0661 -0.0137,-0.11784 -0.041,-0.15528 -0.0273,-0.0378 -0.0648,-0.0566 -0.1123,-0.0566 -0.0475,0 -0.085,0.0189 -0.11231,0.0566 -0.027,0.0374 -0.0405,0.0892 -0.0405,0.15528"
         id="path3019" />
      <path
         d="m 787.38403,692.19452 c -0.0482,0 -0.0863,0.0189 -0.11425,0.0566 -0.028,0.0374 -0.042,0.0889 -0.042,0.1543 0,0.0654 0.0138,0.11702 0.0415,0.15478 0.028,0.0374 0.0662,0.0562 0.11474,0.0562 0.0478,0 0.0858,-0.0189 0.11377,-0.0566 0.028,-0.0378 0.042,-0.0892 0.042,-0.15429 0,-0.0648 -0.014,-0.11605 -0.042,-0.15381 -0.028,-0.0381 -0.0659,-0.0571 -0.11377,-0.0571 m 0,-0.0762 c 0.0781,0 0.13949,0.0254 0.18409,0.0762 0.0446,0.0508 0.0669,0.12109 0.0669,0.21094 0,0.0895 -0.0223,0.15983 -0.0669,0.21093 -0.0446,0.0508 -0.10596,0.0762 -0.18409,0.0762 -0.0785,0 -0.13997,-0.0254 -0.18457,-0.0762 -0.0443,-0.0511 -0.0664,-0.12142 -0.0664,-0.21093 0,-0.0898 0.0221,-0.16016 0.0664,-0.21094 0.0446,-0.0508 0.10612,-0.0762 0.18457,-0.0762"
         id="path3021" />
      <path
         d="m 787.78345,691.91864 0.0898,0 0,0.75977 -0.0898,0 0,-0.75977"
         id="path3023" />
      <path
         d="m 788.27271,692.19452 c -0.0482,0 -0.0863,0.0189 -0.11426,0.0566 -0.028,0.0374 -0.042,0.0889 -0.042,0.1543 -10e-6,0.0654 0.0138,0.11702 0.0415,0.15478 0.028,0.0374 0.0662,0.0562 0.11475,0.0562 0.0479,0 0.0858,-0.0189 0.11376,-0.0566 0.028,-0.0378 0.042,-0.0892 0.042,-0.15429 0,-0.0648 -0.014,-0.11605 -0.042,-0.15381 -0.028,-0.0381 -0.0659,-0.0571 -0.11376,-0.0571 m 0,-0.0762 c 0.0781,0 0.13948,0.0254 0.18408,0.0762 0.0446,0.0508 0.0669,0.12109 0.0669,0.21094 0,0.0895 -0.0223,0.15983 -0.0669,0.21093 -0.0446,0.0508 -0.10596,0.0762 -0.18408,0.0762 -0.0785,0 -0.13998,-0.0254 -0.18458,-0.0762 -0.0443,-0.0511 -0.0664,-0.12142 -0.0664,-0.21093 0,-0.0898 0.0221,-0.16016 0.0664,-0.21094 0.0446,-0.0508 0.10612,-0.0762 0.18458,-0.0762"
         id="path3025" />
      <path
         d="m 788.98901,692.21552 c -0.0101,-0.006 -0.0212,-0.0101 -0.0332,-0.0127 -0.0117,-0.003 -0.0247,-0.004 -0.0391,-0.004 -0.0508,0 -0.0898,0.0166 -0.11719,0.0498 -0.027,0.0329 -0.0405,0.0802 -0.0405,0.14209 l 0,0.28809 -0.0903,0 0,-0.54688 0.0903,0 0,0.085 c 0.0189,-0.0332 0.0435,-0.0578 0.0737,-0.0737 0.0303,-0.0163 0.0671,-0.0244 0.11036,-0.0244 0.006,0 0.013,4.9e-4 0.0205,10e-4 0.007,6.5e-4 0.0158,0.002 0.0249,0.003 l 4.8e-4,0.0923"
         id="path3027" />
      <path
         d="m 786.88599,693.39764 0,0.085 c -0.0254,-0.013 -0.0518,-0.0228 -0.0791,-0.0293 -0.0273,-0.007 -0.0557,-0.01 -0.085,-0.01 -0.0446,0 -0.0781,0.007 -0.10058,0.0205 -0.0221,0.0137 -0.0332,0.0342 -0.0332,0.0615 0,0.0208 0.008,0.0373 0.0239,0.0493 0.0159,0.0117 0.048,0.023 0.0962,0.0337 l 0.0308,0.007 c 0.0638,0.0137 0.10905,0.033 0.13575,0.0581 0.027,0.0247 0.0405,0.0594 0.0405,0.10401 0,0.0508 -0.0202,0.091 -0.0605,0.1206 -0.04,0.0296 -0.0952,0.0444 -0.16553,0.0444 -0.0293,0 -0.0599,-0.003 -0.0918,-0.009 -0.0316,-0.006 -0.0649,-0.014 -0.1001,-0.0254 l 0,-0.0928 c 0.0332,0.0173 0.0659,0.0303 0.0982,0.0391 0.0322,0.008 0.0641,0.0127 0.0957,0.0127 0.0423,0 0.0749,-0.007 0.0977,-0.0215 0.0228,-0.0147 0.0342,-0.0352 0.0342,-0.0615 0,-0.0244 -0.008,-0.0431 -0.0249,-0.0562 -0.0163,-0.013 -0.0522,-0.0255 -0.10791,-0.0376 l -0.0312,-0.007 c -0.0557,-0.0117 -0.0959,-0.0296 -0.12061,-0.0537 -0.0247,-0.0244 -0.0371,-0.0578 -0.0371,-0.1001 0,-0.0514 0.0182,-0.0912 0.0547,-0.11914 0.0365,-0.028 0.0882,-0.042 0.15527,-0.042 0.0332,0 0.0644,0.002 0.0937,0.007 0.0293,0.005 0.0563,0.0122 0.0811,0.022"
         id="path3029" />
      <path
         d="m 787.05884,693.38153 0.0898,0 0,0.54688 -0.0898,0 0,-0.54688 m 0,-0.21289 0.0898,0 0,0.11377 -0.0898,0 0,-0.11377"
         id="path3031" />
      <path
         d="m 787.42505,693.22626 0,0.15527 0.18506,0 0,0.0698 -0.18506,0 0,0.29688 c 0,0.0446 0.006,0.0732 0.0181,0.0859 0.0124,0.0127 0.0373,0.019 0.0747,0.019 l 0.0923,0 0,0.0752 -0.0923,0 c -0.0693,0 -0.11719,-0.0129 -0.14355,-0.0386 -0.0264,-0.026 -0.0396,-0.0732 -0.0396,-0.1416 l 0,-0.29688 -0.0659,0 0,-0.0698 0.0659,0 0,-0.15527 0.0903,0"
         id="path3033" />
      <path
         d="m 788.29565,693.6535 c -0.0726,0 -0.12288,0.008 -0.15087,0.0249 -0.028,0.0166 -0.042,0.0449 -0.042,0.085 0,0.0319 0.0104,0.0573 0.0312,0.0762 0.0212,0.0185 0.0498,0.0278 0.0859,0.0278 0.0498,0 0.0897,-0.0176 0.11963,-0.0527 0.0303,-0.0355 0.0454,-0.0825 0.0454,-0.14112 l 0,-0.02 -0.0894,0 m 0.1792,-0.0371 0,0.31202 -0.0898,0 0,-0.083 c -0.0205,0.0332 -0.0461,0.0578 -0.0767,0.0737 -0.0306,0.0156 -0.068,0.0234 -0.11231,0.0234 -0.056,0 -0.10058,-0.0156 -0.13378,-0.0469 -0.0329,-0.0316 -0.0493,-0.0737 -0.0493,-0.12646 0,-0.0615 0.0205,-0.10791 0.0615,-0.13916 0.0413,-0.0312 0.10287,-0.0469 0.18457,-0.0469 l 0.12598,0 0,-0.009 c 0,-0.0413 -0.0137,-0.0732 -0.041,-0.0957 -0.027,-0.0228 -0.0651,-0.0342 -0.11425,-0.0342 -0.0312,0 -0.0617,0.004 -0.0913,0.0112 -0.0296,0.007 -0.0581,0.0187 -0.0854,0.0337 l 0,-0.083 c 0.0329,-0.0127 0.0648,-0.0221 0.0957,-0.0283 0.0309,-0.007 0.061,-0.01 0.0903,-0.01 0.0791,0 0.13819,0.0205 0.17725,0.0615 0.0391,0.041 0.0586,0.10319 0.0586,0.18652"
         id="path3035" />
      <path
         d="m 789.08618,693.48651 c 0.0225,-0.0404 0.0493,-0.0701 0.0806,-0.0893 0.0312,-0.0192 0.068,-0.0288 0.11035,-0.0288 0.057,0 0.10091,0.02 0.13184,0.0601 0.0309,0.0397 0.0464,0.0964 0.0464,0.16992 l 0,0.33008 -0.0903,0 0,-0.32715 c 0,-0.0524 -0.009,-0.0913 -0.0278,-0.1167 -0.0186,-0.0254 -0.0469,-0.0381 -0.085,-0.0381 -0.0466,0 -0.0833,0.0155 -0.11035,0.0464 -0.027,0.0309 -0.0405,0.0731 -0.0405,0.12646 l 0,0.30909 -0.0903,0 0,-0.32715 c 0,-0.0527 -0.009,-0.0916 -0.0278,-0.1167 -0.0186,-0.0254 -0.0472,-0.0381 -0.0859,-0.0381 -0.0459,0 -0.0824,0.0156 -0.10938,0.0469 -0.027,0.0309 -0.0405,0.0729 -0.0405,0.12597 l 0,0.30909 -0.0903,0 0,-0.54688 0.0903,0 0,0.085 c 0.0205,-0.0335 0.0451,-0.0583 0.0737,-0.0742 0.0286,-0.016 0.0627,-0.0239 0.10206,-0.0239 0.0397,0 0.0734,0.0101 0.10107,0.0303 0.028,0.0202 0.0487,0.0495 0.062,0.0879"
         id="path3037" />
      <path
         d="m 790.10278,693.63251 0,0.0439 -0.41308,0 c 0.004,0.0618 0.0225,0.10905 0.0557,0.1416 0.0335,0.0322 0.0801,0.0483 0.13965,0.0483 0.0345,0 0.0679,-0.004 0.1001,-0.0127 0.0326,-0.008 0.0648,-0.0212 0.0967,-0.0381 l 0,0.085 c -0.0322,0.0137 -0.0653,0.0241 -0.0991,0.0312 -0.0339,0.007 -0.0682,0.0108 -0.10303,0.0108 -0.0872,0 -0.15641,-0.0254 -0.20752,-0.0762 -0.0508,-0.0508 -0.0762,-0.11946 -0.0762,-0.20605 0,-0.0895 0.0241,-0.16048 0.0723,-0.21289 0.0485,-0.0527 0.11377,-0.0791 0.1958,-0.0791 0.0736,0 0.13168,0.0238 0.17432,0.0713 0.043,0.0472 0.0645,0.11149 0.0645,0.19287 m -0.0898,-0.0264 c -6.5e-4,-0.0491 -0.0145,-0.0884 -0.0415,-0.11768 -0.0267,-0.0293 -0.0622,-0.0439 -0.10645,-0.0439 -0.0501,0 -0.0903,0.0142 -0.12061,0.0425 -0.0299,0.0283 -0.0472,0.0682 -0.0517,0.11963 l 0.32031,-4.9e-4"
         id="path3039" />
      <path
         d="m 790.33911,693.22626 0,0.15527 0.18506,0 0,0.0698 -0.18506,0 0,0.29688 c 0,0.0446 0.006,0.0732 0.0181,0.0859 0.0124,0.0127 0.0373,0.019 0.0747,0.019 l 0.0923,0 0,0.0752 -0.0923,0 c -0.0693,0 -0.11718,-0.0129 -0.14355,-0.0386 -0.0264,-0.026 -0.0395,-0.0732 -0.0395,-0.1416 l 0,-0.29688 -0.0659,0 0,-0.0698 0.0659,0 0,-0.15527 0.0903,0"
         id="path3041" />
    </g>
    <path
       d="m 789.74329,687.77624 0,2.35938 2.34375,0"
       id="path7894"
       style="fill:none;stroke:#878787;stroke-width:0.89999998;stroke-linecap:butt;stroke-linejoin:miter;stroke-miterlimit:4;stroke-opacity:1;stroke-dasharray:none" />
  </g>
</svg>
