<?xml version="1.0" encoding="UTF-8"?><svg xmlns="http://www.w3.org/2000/svg" xmlns:xlink="http://www.w3.org/1999/xlink" width="10" height="10"><defs><linearGradient id="a"><stop offset="0" stop-color="#e2e2e2"/><stop offset="1" stop-color="#f8f8f8"/></linearGradient><linearGradient><stop offset="0" stop-color="#e2e2e2"/><stop offset="1" stop-color="#e2e2e2"/></linearGradient><radialGradient xlink:href="#a" gradientUnits="userSpaceOnUse" gradientTransform="matrix(1.407 0 0 2.143 6.798 -4.713)" cx="-16.719" cy="3.344" fx="-16.719" fy="3.344" r="2"/><radialGradient xlink:href="#a" id="b" gradientUnits="userSpaceOnUse" gradientTransform="matrix(1.407 0 0 2.143 810.354 682.735)" cx="-16.719" cy="3.344" fx="-16.719" fy="3.344" r="2"/></defs><g><path d="M1.484.492v9.094h7.031v-6.844l-2.25-2.25h-4.781z" fill="#fff" stroke="#878787" stroke-width=".9" stroke-linecap="square"/><path d="M2.953 2.086v6.094h4v-5.281h-.844v-.813h-3.156z" fill="url(#b)"/><g style="line-height:125%" font-size="1" letter-spacing="0" word-spacing="0" font-family="Sans"><path d="M2.97 2.087h.099v.646h.355v.083h-.454v-.729"/><path d="M3.717 2.332l-.114.057-.042.154.042.155.115.056.114-.057.042-.154-.042-.154-.114-.057m0-.076c.078 0 .139.025.184.076.045.051.067.121.067.211 0 .089-.022.16-.067.211-.045.051-.106.076-.184.076s-.14-.025-.185-.076c-.044-.051-.066-.121-.066-.211s.022-.16.066-.211c.045-.051.106-.076.185-.076"/><path d="M4.433 2.353l-.033-.013-.039-.004-.117.05-.041.142v.288h-.09v-.547h.09v.085l.074-.074.11-.024.021.001.025.003v.092"/><path d="M4.975 2.52v.044h-.413l.056.142.14.048.1-.013.097-.038v.085l-.099.031-.103.011c-.087 0-.156-.025-.208-.076-.051-.051-.076-.119-.076-.206 0-.089.024-.16.072-.213.049-.053.114-.079.196-.079.074 0 .132.024.174.071.043.047.065.111.065.193m-.09-.026l-.042-.118-.106-.044-.121.043-.052.12h.32"/><path d="M5.548 2.374l.081-.089.11-.029.132.06.046.17v.33h-.09v-.327l-.028-.117-.085-.038-.11.046-.041.126v.309h-.09v-.327l-.028-.117-.086-.038-.109.047-.041.126v.309h-.09v-.547h.09v.085l.074-.074.102-.024.101.03.062.088"/><path d="M2.966 3.519h.09v.547h-.09v-.547m0-.213h.09v.114h-.09v-.114"/><path d="M3.33 3.984v.29h-.09v-.755h.09v.083l.071-.072.104-.024c.066 0 .12.026.162.079.042.053.063.122.063.208s-.021.155-.063.208c-.041.053-.095.079-.162.079l-.104-.023-.071-.073m.306-.191l-.041-.155-.112-.057-.112.057-.041.155.041.156.112.056.112-.056.041-.156"/><path d="M4.227 3.535v.085l-.079-.029-.085-.01-.101.021-.033.061.024.049.096.034.031.007.136.058.041.104-.06.121-.166.044-.092-.009-.1-.025v-.093l.098.039.096.013.098-.021.034-.061-.025-.056-.108-.038-.031-.007-.121-.054-.037-.1.055-.119.155-.042.094.007.081.022"/><path d="M4.39 3.85v-.331h.09v.328l.03.117.091.039.115-.046.043-.126v-.31h.09v.547h-.09v-.084l-.076.074-.1.024c-.063 0-.111-.019-.143-.059l-.049-.171m.226-.344"/><path d="M5.46 3.624l.081-.089.11-.029.132.06.046.17v.33h-.09v-.327l-.028-.117-.085-.038-.11.046-.041.126v.309h-.09v-.327l-.028-.117-.086-.038-.109.047-.041.126v.309h-.09v-.547h.09v.085l.074-.074.102-.024.101.03.062.088"/><path d="M3.326 4.852v-.296h.09v.76h-.09v-.082l-.072.073-.104.023c-.066 0-.12-.026-.162-.079-.041-.053-.062-.122-.062-.208s.021-.155.062-.208c.042-.053.096-.079.162-.079l.104.024.072.072m-.306.191l.041.156.112.056.112-.056.041-.156-.041-.155-.112-.057-.112.057-.041.155"/><path d="M3.813 4.832l-.114.057-.042.154.042.155.115.056.114-.057.042-.154-.042-.154-.114-.057m0-.076c.078 0 .139.025.184.076.045.051.067.121.067.211 0 .089-.022.16-.067.211-.045.051-.106.076-.184.076-.079 0-.14-.025-.185-.076-.044-.051-.066-.121-.066-.211s.022-.16.066-.211c.045-.051.106-.076.185-.076"/><path d="M4.212 4.556h.09v.76h-.09v-.76"/><path d="M4.701 4.832l-.114.057-.042.154.042.155.115.056.114-.057.042-.154-.042-.154-.114-.057m0-.076c.078 0 .139.025.184.076.045.051.067.121.067.211 0 .089-.022.16-.067.211-.045.051-.106.076-.184.076-.079 0-.14-.025-.185-.076-.044-.051-.066-.121-.066-.211s.022-.16.066-.211c.045-.051.106-.076.185-.076"/><path d="M5.418 4.853l-.033-.013-.039-.004-.117.05-.041.142v.288h-.09v-.547h.09v.085l.074-.074.11-.024.021.001.025.003v.092"/><path d="M3.315 6.035v.085l-.079-.029-.085-.01-.101.021-.033.061.024.049.096.034.031.007.136.058.041.104-.06.121-.166.044-.092-.009-.1-.025v-.093l.098.039.096.013.098-.021.034-.061-.025-.056-.108-.038-.031-.007-.121-.054-.037-.1.055-.119.155-.042.094.007.081.022"/><path d="M3.487 6.019h.09v.547h-.09v-.547m0-.213h.09v.114h-.09v-.114"/><path d="M3.854 5.864v.155h.185v.07h-.185v.297l.018.086.075.019h.092v.075h-.092l-.144-.039-.04-.142v-.297h-.066v-.07h.066v-.155h.09"/><path d="M4.724 6.291l-.151.025-.042.085.031.076.086.028.12-.053.045-.141v-.02h-.089m.179-.037v.312h-.09v-.083l-.077.074-.112.023-.134-.047-.049-.126.061-.139c.041-.031.103-.047.185-.047h.126v-.009l-.041-.096-.114-.034-.091.011-.085.034v-.083l.096-.028.09-.01c.079 0 .138.021.177.061.039.041.059.103.059.187"/><path d="M5.515 6.124l.081-.089.11-.029.132.06.046.17v.33h-.09v-.327l-.028-.117-.085-.038-.11.046-.041.126v.309h-.09v-.327l-.028-.117-.086-.038-.109.047-.041.126v.309h-.09v-.547h.09v.085l.074-.074.102-.024.101.03.062.088"/><path d="M6.531 6.27v.044h-.413l.056.142.14.048.1-.013.097-.038v.085l-.099.031-.103.011c-.087 0-.156-.025-.208-.076-.051-.051-.076-.119-.076-.206 0-.089.024-.16.072-.213.049-.053.114-.079.196-.079.074 0 .132.024.174.071.043.047.065.111.065.193m-.09-.026l-.042-.118-.106-.044-.121.043-.052.12h.32"/><path d="M6.768 5.864v.155h.185v.07h-.185v.297l.018.086.075.019h.092v.075h-.092l-.144-.039-.04-.142v-.297h-.066v-.07h.066v-.155h.09"/></g><path d="M6.172.414v2.359h2.344" stroke="#878787" stroke-width=".9" fill="none"/></g></svg>