<?xml version="1.0" encoding="UTF-8"?><svg xmlns="http://www.w3.org/2000/svg" xmlns:xlink="http://www.w3.org/1999/xlink" width="10" height="10"><defs><linearGradient id="a"><stop offset="0" stop-color="#e2e2e2"/><stop offset="1" stop-color="#f8f8f8"/></linearGradient><radialGradient cx="-16.719" cy="3.344" r="2" fx="-16.719" fy="3.344" id="b" xlink:href="#a" gradientUnits="userSpaceOnUse" gradientTransform="matrix(1.407 0 0 2.143 810.354 682.735)"/></defs><g><path d="M1.484.492v9.094h7.031v-6.844l-2.25-2.25h-4.781z" fill="#fff" stroke="#878787" stroke-width=".9" stroke-linecap="square"/><path d="M2.953 2.086v6.094h4v-5.281h-.844v-.813h-3.156z" fill="url(#b)"/><path d="M6.768 5.864c-.05.198.33.178.003.278-.17.248.399.512-.031.38-.055-.173-.191-.58.028-.659m-.236.406c-.152.046-.633.055-.242.218.486.05-.344.218-.261-.171-.08-.371.525-.434.503-.048m-.09-.026c.012-.349-.523.08-.066 0h.066m789.086 693.486c.298-.468.546.507.28.361.162-.25-.257-.589-.255-.193.062.208-.163.363-.081.058.011-.409-.395-.21-.282.097-.104.308-.192-.597.036-.384.11-.042.263-.119.302.062m-.791.167c-.357-.056.039.456.091.061.011-.047-.048-.098-.091-.061m.179-.037c.039.276 0 .312-.231.31-.41.034-.128-.46.129-.393-.018-.147-.509-.032-.169-.169.137-.012.306.097.27.252m-1.05-.39c-.05.198.33.178.003.278-.17.248.399.512-.031.38-.055-.173-.191-.58.028-.659m-.366.155c.243.08.005.86-.008.3l.008-.3zm0-.213c.229-.025-.056.257 0 0zm-.173.229c-.088.103-.475.09-.128.2.33.116-.09.569-.254.262.357.087.269-.206.029-.261-.099-.204.219-.313.353-.202m2.103-1.182c-.311-.193-.231.786-.322.223-.003-.218-.041-.332.204-.29.053-.076.165-.007.119.066m-.716-.021c-.46.093.202.739.155.162-.008-.078-.069-.164-.155-.162m0-.076c.535.023.081.958-.225.426-.08-.168.006-.443.225-.426zm-.489-.2c.183.154.085.549.058.754-.127-.16-.027-.527-.058-.754zm-.399.276c-.46.093.202.739.155.162-.008-.078-.069-.164-.155-.162m0-.076c.535.023.081.958-.225.426-.08-.168.006-.443.225-.426zm-.487.096c-.063-.165.079-.459.09-.121-.024.264.117.647-.225.596-.434.037-.281-.793.105-.517l.03.042m-.306.191c.047.518.631-.239.108-.199-.079.026-.13.118-.108.199zm2.44-1.419c.298-.468.546.507.28.361.161-.25-.257-.589-.255-.193.062.208-.163.363-.081.058.011-.409-.395-.21-.282.097-.104.308-.192-.597.036-.384.11-.042.263-.119.302.062m-1.07.226c-.029-.183.029-.522.101-.124-.105.408.387.274.274-.063.056-.391.205.561-.027.365-.17.075-.372.048-.349-.179m-.164-.315c-.088.103-.475.09-.128.2.33.116-.09.569-.254.262.357.087.269-.206.029-.261-.099-.204.219-.313.353-.202m-.897.449c.071.222-.118.418-.09.067-.01-.296-.079-.683.342-.498.373.111.019.783-.251.431m.306-.191c-.048-.517-.63.239-.108.199.079-.026.13-.118.108-.199zm-.67-.274c.243.08.006.861-.008.3l.008-.3zm0-.213c.229-.025-.056.257 0 0zm2.582-.932c.298-.468.546.507.28.361.161-.25-.257-.589-.255-.193.062.208-.163.363-.081.058.011-.409-.395-.21-.282.097-.104.308-.192-.597.036-.384.11-.042.263-.119.302.062m-.573.146c-.152.046-.633.055-.242.218.486.05-.344.218-.261-.171-.08-.371.525-.434.503-.048m-.09-.026c.012-.349-.523.08-.066 0h.066m-.452-.141c-.311-.193-.231.786-.322.223-.003-.218-.041-.332.204-.29.053-.076.165-.007.119.066m-.716-.021c-.46.093.202.739.155.162-.008-.078-.069-.164-.155-.162m0-.076c.535.023.081.958-.225.426-.08-.168.006-.443.225-.426zm-.747-.169c.25.191-.104.795.434.671-.247.237-.549-.052-.434-.36v-.311"/><path d="M6.172.414v2.359h2.344" stroke="#878787" stroke-width=".9" fill="none"/></g></svg>