<?xml version="1.0" encoding="UTF-8" standalone="no"?>
<svg
   xmlns:dc="http://purl.org/dc/elements/1.1/"
   xmlns:cc="http://creativecommons.org/ns#"
   xmlns:rdf="http://www.w3.org/1999/02/22-rdf-syntax-ns#"
   xmlns:svg="http://www.w3.org/2000/svg"
   xmlns="http://www.w3.org/2000/svg"
   xmlns:xlink="http://www.w3.org/1999/xlink"
   version="1.1"
   width="10"
   height="10"
   id="svg7339">
  <defs
     id="defs7341">
    <linearGradient
       id="linearGradient7918">
      <stop
         id="stop7920"
         style="stop-color:#e2e2e2;stop-opacity:1"
         offset="0" />
      <stop
         id="stop7922"
         style="stop-color:#f8f8f8;stop-opacity:1"
         offset="1" />
    </linearGradient>
    <radialGradient
       cx="-16.71875"
       cy="3.344311"
       r="2"
       fx="-16.71875"
       fy="3.344311"
       id="radialGradient7968"
       xlink:href="#linearGradient7918"
       gradientUnits="userSpaceOnUse"
       gradientTransform="matrix(1.4065972,0,0,2.1428629,810.35359,682.73485)" />
  </defs>
  <metadata
     id="metadata7344">
    <rdf:RDF>
      <cc:Work
         rdf:about="">
        <dc:format>image/svg+xml</dc:format>
        <dc:type
           rdf:resource="http://purl.org/dc/dcmitype/StillImage" />
        <dc:title></dc:title>
      </cc:Work>
    </rdf:RDF>
  </metadata>
  <g
     transform="translate(-783.57141,-687.36218)"
     id="layer1">
    <path
       d="m 785.05579,687.85437 0,9.09375 7.03125,0 0,-6.84375 -2.25,-2.25 -4.78125,0 z"
       id="rect7358"
       style="fill:#ffffff;fill-opacity:1;stroke:#878787;stroke-width:0.89999998;stroke-linecap:square;stroke-linejoin:miter;stroke-miterlimit:4;stroke-opacity:1;stroke-dasharray:none" />
    <path
       d="m 786.52454,689.44812 0,6.09375 4,0 0,-5.28125 -0.84375,0 0,-0.8125 -3.15625,0 z"
       id="rect7896"
       style="fill:url(#radialGradient7968);fill-opacity:1;stroke:none" />
    <path
       d="m 790.33911,693.22626 c -0.0498,0.19786 0.33032,0.17787 0.003,0.27815 -0.16998,0.24799 0.39939,0.51157 -0.0311,0.38026 -0.0547,-0.17272 -0.19121,-0.57992 0.0276,-0.65857 m -0.23638,0.40635 c -0.1524,0.0463 -0.6328,0.0553 -0.24172,0.21827 0.48594,0.05 -0.34395,0.2177 -0.26091,-0.17076 -0.08,-0.37141 0.5251,-0.43406 0.50275,-0.0476 m -0.0898,-0.0264 c 0.0121,-0.34938 -0.523,0.0801 -0.0661,1.6e-4 0.022,-3e-5 0.0441,-7e-5 0.0661,-1e-4 M 789.086,693.4864 c 0.29829,-0.46808 0.54605,0.50739 0.27992,0.36129 0.16156,-0.25017 -0.25661,-0.58879 -0.25488,-0.19318 0.0618,0.20786 -0.16306,0.36284 -0.0814,0.0576 0.0107,-0.40895 -0.3951,-0.2098 -0.28228,0.0968 -0.10398,0.30793 -0.19195,-0.59656 0.0363,-0.38389 0.11037,-0.0424 0.2633,-0.11931 0.3025,0.062 m -0.79072,0.16676 c -0.35692,-0.0559 0.0391,0.45637 0.0912,0.0607 0.0111,-0.0474 -0.0478,-0.0975 -0.0913,-0.0606 m 0.1792,-0.0371 c 0.0389,0.27609 4.8e-4,0.31202 -0.23096,0.30993 -0.40958,0.0339 -0.12848,-0.45975 0.12931,-0.3933 -0.0182,-0.14721 -0.50917,-0.032 -0.16875,-0.16893 0.13714,-0.0119 0.30604,0.0969 0.27048,0.25186 m -1.04972,-0.38964 c -0.0498,0.19787 0.33033,0.17786 0.003,0.27815 -0.16997,0.24801 0.39941,0.51157 -0.0312,0.38026 -0.0548,-0.17265 -0.1912,-0.5799 0.0275,-0.65857 m -0.36616,0.15537 c 0.24316,0.0804 0.005,0.86043 -0.008,0.29992 0.004,-0.10008 0.0106,-0.19944 0.008,-0.29992 z m 0,-0.21289 c 0.22907,-0.0248 -0.0564,0.25715 0,0 z m -0.17285,0.229 c -0.0882,0.10339 -0.47525,0.0905 -0.12796,0.20033 0.32998,0.11579 -0.0901,0.56917 -0.25377,0.26243 0.35714,0.0875 0.26894,-0.20613 0.0291,-0.26075 -0.0991,-0.20406 0.219,-0.31306 0.35275,-0.20238 m 2.10283,-1.18179 c -0.31133,-0.19291 -0.2311,0.78642 -0.32232,0.2231 -0.003,-0.21834 -0.0409,-0.33207 0.20367,-0.28984 0.0532,-0.0761 0.16542,-0.007 0.1188,0.0663 m -0.71625,-0.0206 c -0.45977,0.0927 0.20216,0.73875 0.1549,0.16183 -0.008,-0.0784 -0.0689,-0.16424 -0.1549,-0.16175 m 0,-0.0762 c 0.53548,0.0229 0.0809,0.95772 -0.22515,0.4264 -0.0799,-0.16794 0.006,-0.44314 0.22515,-0.4264 z m -0.48925,-0.19976 c 0.18272,0.15398 0.0847,0.54861 0.0579,0.75376 -0.12668,-0.16038 -0.0274,-0.52657 -0.0579,-0.75376 z m -0.39942,0.27588 c -0.45976,0.0927 0.20217,0.73874 0.15491,0.16183 -0.008,-0.0784 -0.0689,-0.16425 -0.15491,-0.16175 m 0,-0.0762 c 0.53548,0.0229 0.0809,0.95772 -0.22514,0.4264 -0.0799,-0.16793 0.006,-0.44314 0.22514,-0.4264 z m -0.4868,0.0961 c -0.0625,-0.16476 0.0794,-0.45885 0.09,-0.12059 -0.0239,0.26428 0.11747,0.64725 -0.22523,0.59616 -0.43366,0.0367 -0.28113,-0.79293 0.1054,-0.51731 l 0.0299,0.0419 m -0.30616,0.19092 c 0.047,0.51755 0.63135,-0.23866 0.10766,-0.19898 -0.0793,0.0264 -0.13034,0.11753 -0.10766,0.19898 z m 2.44043,-1.41901 c 0.29826,-0.46803 0.54607,0.50725 0.27992,0.36136 0.16147,-0.25014 -0.25659,-0.58875 -0.25486,-0.19318 0.0619,0.20787 -0.16304,0.36286 -0.0814,0.0576 0.0107,-0.40895 -0.3951,-0.2098 -0.28228,0.0968 -0.10398,0.30793 -0.19195,-0.59655 0.0362,-0.3839 0.11037,-0.0424 0.26328,-0.11929 0.30249,0.062 m -1.07,0.22585 c -0.0292,-0.18312 0.0291,-0.522 0.10111,-0.12385 -0.10501,0.40792 0.38701,0.2743 0.27403,-0.0627 0.0564,-0.3908 0.20452,0.56128 -0.0268,0.36504 -0.17034,0.0747 -0.37234,0.0484 -0.34922,-0.17885 m -0.16355,-0.31494 c -0.0882,0.10339 -0.47525,0.0905 -0.12796,0.20033 0.32998,0.11579 -0.0901,0.56917 -0.25377,0.26243 0.35714,0.0875 0.26894,-0.20613 0.0291,-0.26075 -0.0991,-0.20406 0.219,-0.31306 0.35275,-0.20238 m -0.89668,0.44906 c 0.0709,0.22245 -0.11848,0.41831 -0.0905,0.067 -0.0102,-0.29611 -0.0793,-0.68343 0.34185,-0.49802 0.37303,0.11125 0.0193,0.78296 -0.25134,0.43095 m 0.30567,-0.19091 c -0.0477,-0.51709 -0.63035,0.23885 -0.1077,0.199 0.0793,-0.0265 0.1303,-0.11753 0.1077,-0.199 z m -0.66993,-0.2739 c 0.24336,0.0802 0.006,0.86052 -0.008,0.29994 0.004,-0.10009 0.0107,-0.19945 0.008,-0.29994 z m 0,-0.21289 c 0.22926,-0.0249 -0.0564,0.25727 0,0 z m 2.58203,-0.93213 c 0.29827,-0.46803 0.54607,0.50727 0.27992,0.36136 0.16146,-0.25013 -0.25657,-0.58874 -0.25484,-0.19316 0.0618,0.20786 -0.16306,0.36284 -0.0814,0.0576 0.0107,-0.40895 -0.3951,-0.2098 -0.28228,0.0968 -0.10398,0.30793 -0.19195,-0.59655 0.0363,-0.38389 0.11037,-0.0424 0.26329,-0.11932 0.30249,0.062 m -0.57342,0.14577 c -0.15244,0.0463 -0.6328,0.0553 -0.24172,0.21831 0.48594,0.0499 -0.34396,0.21764 -0.26091,-0.1708 -0.08,-0.37142 0.52507,-0.43399 0.50275,-0.0476 m -0.0898,-0.0264 c 0.0121,-0.34938 -0.52298,0.0801 -0.066,1.6e-4 0.022,-3e-5 0.0441,-7e-5 0.0661,-10e-5 m -0.4519,-0.14058 c -0.31132,-0.1929 -0.23109,0.78642 -0.32231,0.2231 -0.003,-0.21839 -0.0409,-0.33204 0.20369,-0.28978 0.0533,-0.0761 0.16541,-0.007 0.11871,0.0664 m -0.71627,-0.0206 c -0.45977,0.0927 0.20216,0.73875 0.1549,0.16183 -0.008,-0.0784 -0.0689,-0.16424 -0.1549,-0.16175 m 0,-0.0762 c 0.53548,0.0229 0.0809,0.95772 -0.22514,0.4264 -0.0799,-0.16794 0.006,-0.44314 0.22514,-0.4264 z m -0.74706,-0.169 c 0.25031,0.19128 -0.10354,0.79515 0.43395,0.67146 -0.24652,0.23651 -0.54896,-0.0523 -0.43399,-0.36033 0,-0.10371 0,-0.20743 0,-0.31114"
       id="path3041"
       style="fill:#000000;fill-opacity:1;stroke:none" />
    <path
       d="m 789.74329,687.77624 0,2.35938 2.34375,0"
       id="path7894"
       style="fill:none;stroke:#878787;stroke-width:0.89999998;stroke-linecap:butt;stroke-linejoin:miter;stroke-miterlimit:4;stroke-opacity:1;stroke-dasharray:none" />
  </g>
</svg>
