<?xml version="1.0" ?><svg xmlns="http://www.w3.org/2000/svg" width="10" height="10"><defs><marker orient="auto" overflow="visible"><path d="M-.958-4.259c-1.134 0-2.056.922-2.056 2.056 0 .394.143.736.336 1.049l-.07.056c-.373-.513-.954-.867-1.636-.867-1.134 0-2.056.922-2.056 2.056s.922 2.056 2.056 2.056c.596 0 1.121-.265 1.496-.671-.075.213-.126.433-.126.671 0 1.134.922 2.056 2.056 2.056s2.056-.922 2.056-2.056c0-.476-.189-.896-.462-1.245.813.158 1.627.477 2.224 1.399-.443-.443-.727-1.248-.727-2.336l-.378-.028.35-.014c0-1.087.27-1.893.713-2.336-.575.889-1.354 1.216-2.14 1.385.243-.337.42-.728.42-1.175 0-1.134-.922-2.056-2.056-2.056z" fill-rule="evenodd" stroke="#000" stroke-width="NaN"/></marker><marker orient="auto" overflow="visible"><path d="M0-2.828l-2.828 2.828 2.828 2.828 2.828-2.828-2.828-2.828z" fill-rule="evenodd" stroke="#000" stroke-width="NaN"/></marker><marker orient="auto" overflow="visible"><path d="M10 0l4-4-14 4 14 4-4-4z" fill-rule="evenodd" stroke="#000" stroke-width="NaN"/></marker></defs><g transform="translate(-826.429 -698.791)"><rect width="5.982" height="5.982" x="-835.929" y="702.309" transform="scale(-1 1)" fill="#fff" stroke="#06c"/><g><path d="M831.663 698.791h-5.234v5.391l1.571 1.545 1.31-1.31 2.725 2.725 2.689-2.689-2.808-2.808 1.311-1.311z" fill="#06f"/><path d="M827.433 699.795l-.022 4.885 1.817-1.817 2.881 2.881 1.228-1.228-2.881-2.881 1.851-1.851z" fill="#fff"/></g></g></svg>