<?xml version="1.0" encoding="UTF-8"?><svg xmlns="http://www.w3.org/2000/svg" xmlns:xlink="http://www.w3.org/1999/xlink" width="10" height="10"><defs><linearGradient id="a"><stop offset="0" stop-color="#ccc"/><stop offset="1" stop-color="#ccc" stop-opacity="0"/></linearGradient><linearGradient x1="902.612" y1="696.328" x2="902.612" y2="694.043" id="b" xlink:href="#a" gradientUnits="userSpaceOnUse" gradientTransform="translate(-19.988 .003)"/></defs><g transform="translate(-877.857 -687.362)"><path d="M885.197 693.709c.187.112.217.58.285.076.22-.21.253.611.318.064.277-.424-.083.827-.177.174-.117-.433-.132.581-.332.093l-.094-.408m-.095.251c-.245-.026-.581.21-.15.208.234.242-.597.043-.316-.296.073-.294.489-.2.466.088m-.09-.026c-.008-.373-.579.103 0 0m-1.122-.407l.456.282c.054-.831.275 1.006-.153.254-.089-.278-.272-.549-.208-.089-.033.824-.138-.334-.096-.447zm1.307-1.841c.187.112.217.58.285.076.22-.21.253.611.318.064.277-.424-.083.827-.177.174-.117-.432-.132.581-.332.093l-.094-.408m-.095.251c-.245-.026-.581.21-.15.208.234.242-.597.043-.316-.296.073-.294.489-.2.466.088m-.09-.026c-.008-.373-.579.103 0 0m-1.122-.407l.456.282c.054-.831.275 1.006-.153.254-.089-.278-.272-.549-.208-.089-.033.824-.138-.334-.096-.447zm1.407-2.022c-.092.229-.312.57.144.413-.005-.134-.103-.279-.144-.413zm-.07-.113c.299.086.42.622.421.842-.134-.48-.684-.026-.731-.076.083-.262.211-.509.31-.766m-1.743.311c.346-.479.569.701.214.364.072-.33-.284-.369-.167-.022-.267.452-.177-.656-.399-.104-.086.678-.432-.636.143-.314.09.008.17-.031.21.077m-1.26.25c-.106-.34.212-.488.18-.066.205.479.168-.59.401-.153.194.485-.511.645-.581.219m-.168-.326l-.069.222c.39.339-.587.414-.309.227.524-.037-.46-.303.09-.482.095-.029.204-.024.288.034m-.997.462c.089.455-.314.24-.18-.1-.28-.786 1.074-.233.432.187-.091.027-.2-.005-.253-.087m.12-.364c-.394.13.347.514.077.031l-.034-.025-.043-.006zm-.653-.117c.429-.041.058.98-.005.33l.005-.33zm0-.219c.432-.112-.048.438 0 0zm-.647.032c.444-.024-.087.85.533.604-.234.421-.68.041-.533-.338v-.266z"/><rect width="2.875" height="2.875" x="879.969" y="691.463" fill="#c0c1be" stroke="#000" stroke-width=".1" stroke-linecap="square" stroke-linejoin="bevel" stroke-miterlimit="2"/><path d="M878.388 687.893v7.436999999999999c0 .831.669 1.5 1.5 1.5h5.936999999999999c.831 0 1.5-.669 1.5-1.5v-7.438h-8.938z" fill="url(#b)" stroke="#888a85"/></g></svg>