<?xml version="1.0" ?><svg xmlns="http://www.w3.org/2000/svg" xmlns:xlink="http://www.w3.org/1999/xlink" width="10" height="10"><defs><linearGradient id="a"><stop offset="0" stop-color="#ccc"/><stop offset="1" stop-color="#ccc" stop-opacity="0"/></linearGradient><linearGradient xlink:href="#a" x1="902.612" y1="696.328" x2="902.612" y2="694.043" gradientUnits="userSpaceOnUse"/><linearGradient xlink:href="#a" gradientUnits="userSpaceOnUse" x1="902.612" y1="696.328" x2="902.612" y2="694.043"/><linearGradient xlink:href="#a" gradientUnits="userSpaceOnUse" x1="902.612" y1="696.328" x2="902.612" y2="694.043" gradientTransform="translate(-19.988 .003)"/><linearGradient xlink:href="#a" gradientUnits="userSpaceOnUse" gradientTransform="translate(-29.988 .003)" x1="902.612" y1="696.328" x2="902.612" y2="694.043"/><linearGradient xlink:href="#a" gradientUnits="userSpaceOnUse" gradientTransform="translate(-907.845 -687.359)" x1="902.612" y1="696.328" x2="902.612" y2="694.043"/><linearGradient xlink:href="#a" id="b" gradientUnits="userSpaceOnUse" gradientTransform="translate(-19.988 .003)" x1="902.612" y1="696.328" x2="902.612" y2="694.043"/></defs><g transform="translate(-877.857 -687.362)"><g style="line-height:125%" font-size="1.028" letter-spacing="0" word-spacing="0" font-family="Sans" font-weight="bold"><path d="M879.878 689.399h.193v.604h.339v.146h-.533v-.75" style="-inkscape-font-specification:Sans Bold"/><path d="M880.525 689.587h.18v.562h-.18v-.562m0-.219h.18v.147h-.18v-.147" style="-inkscape-font-specification:Sans Bold"/><path d="M881.059 690.068v.295h-.18v-.776h.18v.082l.082-.072.104-.024c.069 0 .126.028.171.083.044.055.067.126.067.212 0 .087-.022.158-.067.213-.044.055-.101.082-.171.082l-.104-.023-.082-.073m.12-.364l-.089.043-.031.122.031.123.089.042.088-.042.031-.123-.031-.123-.088-.042" style="-inkscape-font-specification:Sans Bold"/><path d="M882.055 689.604v.137l-.111-.036-.101-.012-.076.013-.025.039.019.033.068.017.032.005.186.058.048.126c0 .06-.022.105-.066.135-.044.03-.11.045-.198.045l-.116-.009-.122-.026v-.137l.11.039.115.013.079-.015.027-.043-.019-.036-.073-.019-.032-.004-.168-.056-.048-.124.061-.133.188-.043.104.008.119.024" style="-inkscape-font-specification:Sans Bold"/><path d="M882.223 689.93v-.344h.181v.056l-.001.115-.001.092.004.098.012.043.029.027.041.01.088-.043.032-.12v-.278h.18v.562h-.18v-.081l-.086.073-.1.023c-.065 0-.115-.02-.149-.06-.034-.04-.051-.098-.051-.174" style="-inkscape-font-specification:Sans Bold"/><path d="M883.483 689.68l.081-.079.103-.028c.065 0 .114.02.148.06.034.04.051.098.051.174v.343h-.181v-.293l.001-.014.001-.02-.018-.086-.057-.027-.079.042-.029.122v.276h-.181v-.293l-.016-.12-.057-.027-.08.043-.028.121v.277h-.181v-.562h.181v.082l.076-.072.095-.024.103.028.068.079" style="-inkscape-font-specification:Sans Bold"/></g><path d="M885.296 689.482l-.169.421h.339l-.17-.421m-.07-.113h.142l.352.845h-.13l-.084-.217h-.416l-.084.217h-.132l.352-.845" style="-inkscape-font-specification:Sans" font-size="1.212" letter-spacing="0" word-spacing="0" font-family="Sans"/><g style="line-height:125%" font-size="1" letter-spacing="0" word-spacing="0" font-family="Sans"><path d="M883.89 691.504h.133l.323.61v-.61h.096v.729h-.133l-.323-.61v.61h-.096v-.729"/><path d="M885.101 691.937v.044h-.413l.056.142.14.048.1-.013.097-.038v.085l-.099.031-.103.011c-.087 0-.156-.025-.208-.076-.051-.051-.076-.119-.076-.206 0-.089.024-.16.072-.213.049-.053.114-.079.196-.079.074 0 .132.024.174.071.043.047.065.111.065.193m-.09-.026l-.042-.118-.106-.044-.121.043-.052.12h.32"/><path d="M885.197 691.686h.09l.112.427.112-.427h.106l.112.427.112-.427h.09l-.143.547h-.106l-.118-.448-.118.448h-.106l-.143-.547"/></g><g style="line-height:125%" font-size="1" letter-spacing="0" word-spacing="0" font-family="Sans"><path d="M883.89 693.527h.133l.323.61v-.61h.096v.729h-.133l-.323-.61v.61h-.096v-.729"/><path d="M885.101 693.96v.044h-.413l.056.142.14.048.1-.013.097-.038v.085l-.099.031-.103.011c-.087 0-.156-.025-.208-.076-.051-.051-.076-.119-.076-.206 0-.089.024-.16.072-.213.049-.053.114-.079.196-.079.074 0 .132.024.174.071.043.047.065.111.065.193m-.09-.026l-.042-.118-.106-.044-.121.043-.052.12h.32"/><path d="M885.197 693.709h.09l.112.427.112-.427h.106l.112.427.112-.427h.09l-.143.547h-.106l-.118-.448-.118.448h-.106l-.143-.547"/></g><rect width="2.875" height="2.875" x="879.969" y="691.463" fill="#c0c1be" stroke="#000" stroke-width=".1" stroke-linecap="square" stroke-linejoin="bevel" stroke-miterlimit="2"/><path d="M878.388 687.893v7.436999999999999c0 .831.669 1.5 1.5 1.5h5.936999999999999c.831 0 1.5-.669 1.5-1.5v-7.438h-8.938z" fill="url(#b)" stroke="#888a85"/></g></svg>