<?xml version="1.0" encoding="UTF-8" standalone="no"?>
<svg
   xmlns:dc="http://purl.org/dc/elements/1.1/"
   xmlns:cc="http://creativecommons.org/ns#"
   xmlns:rdf="http://www.w3.org/1999/02/22-rdf-syntax-ns#"
   xmlns:svg="http://www.w3.org/2000/svg"
   xmlns="http://www.w3.org/2000/svg"
   xmlns:xlink="http://www.w3.org/1999/xlink"
   version="1.1"
   width="10"
   height="10"
   id="svg4983">
  <defs
     id="defs4985">
    <linearGradient
       id="linearGradient5528">
      <stop
         id="stop5530"
         style="stop-color:#cccccc;stop-opacity:1"
         offset="0" />
      <stop
         id="stop5532"
         style="stop-color:#cccccc;stop-opacity:0"
         offset="1" />
    </linearGradient>
    <linearGradient
       x1="902.61218"
       y1="696.32751"
       x2="902.61218"
       y2="694.04303"
       id="linearGradient3824"
       xlink:href="#linearGradient5528"
       gradientUnits="userSpaceOnUse"
       gradientTransform="translate(-19.98763,0.00341)" />
  </defs>
  <metadata
     id="metadata4988">
    <rdf:RDF>
      <cc:Work
         rdf:about="">
        <dc:format>image/svg+xml</dc:format>
        <dc:type
           rdf:resource="http://purl.org/dc/dcmitype/StillImage" />
        <dc:title></dc:title>
      </cc:Work>
    </rdf:RDF>
  </metadata>
  <g
     transform="translate(-877.85712,-687.36218)"
     id="layer1">
    <path
       d="m 885.19659,693.70929 c 0.18733,0.11152 0.2171,0.58028 0.28483,0.0765 0.21963,-0.21 0.25265,0.61085 0.31801,0.0641 0.27697,-0.42352 -0.0831,0.827 -0.17686,0.17405 -0.11702,-0.43251 -0.13186,0.58055 -0.33199,0.093 -0.0467,-0.13235 -0.0352,-0.27894 -0.0941,-0.40765 m -0.0951,0.25098 c -0.24545,-0.026 -0.58057,0.20963 -0.14983,0.20815 0.2341,0.24227 -0.5966,0.0435 -0.31586,-0.29597 0.073,-0.29368 0.48945,-0.19996 0.46582,0.0878 m -0.0898,-0.0264 c -0.008,-0.37273 -0.57907,0.10308 -3e-5,6e-5 m -1.12221,-0.4067 c 0.31303,-0.0182 0.47686,0.98363 0.45605,0.28209 0.0542,-0.83126 0.27546,1.00617 -0.15278,0.25362 -0.0894,-0.27779 -0.27195,-0.54907 -0.20757,-0.0888 -0.0326,0.82392 -0.13826,-0.33361 -0.0957,-0.44691 z m 1.30713,-1.84131 c 0.18733,0.11152 0.2171,0.58028 0.28483,0.0765 0.21963,-0.21 0.25265,0.61085 0.31801,0.0641 0.27697,-0.42352 -0.0831,0.827 -0.17686,0.17405 -0.11703,-0.43249 -0.13186,0.58055 -0.33199,0.093 -0.0467,-0.13235 -0.0352,-0.27894 -0.0941,-0.40765 m -0.0951,0.25098 c -0.24545,-0.026 -0.58058,0.20964 -0.14984,0.20816 0.23409,0.24222 -0.5966,0.0434 -0.31584,-0.29607 0.0729,-0.29368 0.48945,-0.19997 0.46581,0.0877 m -0.0898,-0.0264 c -0.008,-0.37272 -0.57905,0.1031 -3e-5,7e-5 m -1.12221,-0.40661 c 0.31303,-0.0182 0.47685,0.98364 0.45605,0.2821 0.0542,-0.83128 0.27546,1.00616 -0.15278,0.25361 -0.0894,-0.27779 -0.27195,-0.54907 -0.20757,-0.0888 -0.0326,0.82392 -0.13826,-0.33361 -0.0957,-0.44691 z m 1.40695,-2.02159 c -0.0925,0.22919 -0.31156,0.57023 0.14418,0.41318 -0.005,-0.13405 -0.10264,-0.27877 -0.14418,-0.41318 z m -0.0704,-0.11269 c 0.29905,0.0855 0.42028,0.62166 0.42088,0.84191 -0.13411,-0.4802 -0.68425,-0.0265 -0.73057,-0.076 0.0832,-0.2616 0.21061,-0.50913 0.3096,-0.76593 m -1.74281,0.31056 c 0.34612,-0.47913 0.56926,0.70098 0.21372,0.36363 0.0724,-0.32969 -0.28365,-0.36875 -0.1668,-0.0222 -0.26673,0.45246 -0.17742,-0.6565 -0.3994,-0.10395 -0.0864,0.678 -0.43164,-0.63601 0.14263,-0.31419 0.0903,0.008 0.17045,-0.0312 0.20982,0.0769 m -1.26048,0.25 c -0.10571,-0.34023 0.21201,-0.48784 0.17971,-0.0655 0.20532,0.47932 0.16846,-0.59018 0.40143,-0.15309 0.19369,0.48548 -0.51086,0.6449 -0.5806,0.21899 m -0.16777,-0.32628 c 0.003,0.21747 -0.51383,0.059 -0.0685,0.22157 0.38953,0.3392 -0.58676,0.41358 -0.309,0.22699 0.52432,-0.0372 -0.45958,-0.30319 0.0896,-0.4819 0.0946,-0.0287 0.2045,-0.0235 0.28796,0.0344 m -0.99688,0.46241 c 0.0892,0.4554 -0.3135,0.24019 -0.17953,-0.10036 -0.28045,-0.78623 1.07442,-0.23273 0.43248,0.1872 -0.0909,0.0271 -0.20018,-0.005 -0.25295,-0.0867 m 0.11952,-0.36409 c -0.39427,0.13009 0.34651,0.51437 0.0773,0.0311 l -0.034,-0.025 -0.0433,-0.006 z m -0.65285,-0.11717 c 0.42856,-0.041 0.0577,0.97963 -0.005,0.32973 0.003,-0.10996 0.007,-0.21971 0.005,-0.32973 z m 0,-0.21896 c 0.43196,-0.11169 -0.0481,0.43831 0,0 z m -0.64683,0.0316 c 0.44435,-0.0237 -0.0875,0.85036 0.53283,0.60364 -0.23411,0.42107 -0.67995,0.0409 -0.53283,-0.33773 0,-0.0886 0,-0.17727 0,-0.26591 z"
       id="path3078"
       style="fill:#000000;fill-opacity:1;stroke:none" />
    <rect
       width="2.8749001"
       height="2.8749392"
       x="879.96875"
       y="691.46332"
       id="rect5552"
       style="fill:#c0c1be;fill-opacity:1;stroke:#000000;stroke-width:0.10008001;stroke-linecap:square;stroke-linejoin:bevel;stroke-miterlimit:2;stroke-opacity:1;stroke-dasharray:none" />
    <path
       d="m 878.38837,687.89343 0,7.40625 c -2.1e-4,0.0102 0,0.021 0,0.0312 0,0.8311 0.6689,1.5 1.5,1.5 l 5.90625,0 c 0.0102,2.1e-4 0.021,0 0.0312,0 0.8311,0 1.5,-0.6689 1.5,-1.5 0,-0.0206 8.2e-4,-0.0421 0,-0.0625 l 0,-7.375 -8.9375,0 z"
       id="path3797"
       style="fill:url(#linearGradient3824);fill-opacity:1;stroke:#888a85;stroke-width:1px;stroke-linecap:butt;stroke-linejoin:miter;stroke-opacity:1" />
  </g>
</svg>
