<?xml version="1.0" encoding="UTF-8" standalone="no"?>
<svg
   xmlns:dc="http://purl.org/dc/elements/1.1/"
   xmlns:cc="http://creativecommons.org/ns#"
   xmlns:rdf="http://www.w3.org/1999/02/22-rdf-syntax-ns#"
   xmlns:svg="http://www.w3.org/2000/svg"
   xmlns="http://www.w3.org/2000/svg"
   xmlns:xlink="http://www.w3.org/1999/xlink"
   version="1.1"
   width="10"
   height="10"
   id="svg5587">
  <defs
     id="defs5589">
    <linearGradient
       id="linearGradient6134">
      <stop
         id="stop6136"
         style="stop-color:#e9e9e9;stop-opacity:1"
         offset="0" />
      <stop
         id="stop6138"
         style="stop-color:#e9e9e9;stop-opacity:0"
         offset="1" />
    </linearGradient>
    <radialGradient
       cx="755.80591"
       cy="683.84875"
       r="2.6564851"
       fx="755.80591"
       fy="683.84875"
       id="radialGradient6146"
       xlink:href="#linearGradient6134"
       gradientUnits="userSpaceOnUse"
       gradientTransform="matrix(2.4898047,0,0,2.5230165,-1126.0032,-1041.5417)" />
  </defs>
  <metadata
     id="metadata5592">
    <rdf:RDF>
      <cc:Work
         rdf:about="">
        <dc:format>image/svg+xml</dc:format>
        <dc:type
           rdf:resource="http://purl.org/dc/dcmitype/StillImage" />
        <dc:title></dc:title>
      </cc:Work>
    </rdf:RDF>
  </metadata>
  <g
     transform="translate(-763.57141,-681.64789)"
     id="layer1">
    <g
       transform="matrix(1.0212411,0,0,0.97119998,-5.0201418,19.699049)"
       id="g6142">
      <path
         d="m -8.625,0.4375 c -0.4851513,0 -0.875,0.38984873 -0.875,0.875 l 0,4.375 c 0,0.4851513 0.3898487,0.875 0.875,0.875 l 0.125,0 0,2.6739053 3.4513641,-2.6739053 2.5173859,0 c 0.4851513,0 0.875,-0.3898487 0.875,-0.875 l 0,-4.375 c 0,-0.48515127 -0.3898487,-0.875 -0.875,-0.875 z"
         transform="translate(763.57141,681.64789)"
         id="rect5606"
         style="fill:#ffffff;fill-opacity:1;stroke:#888a85;stroke-width:0.98900002;stroke-linecap:square;stroke-linejoin:miter;stroke-miterlimit:9.80000019;stroke-opacity:1;stroke-dasharray:none" />
      <path
         d="m 755.96029,683.3154 c -0.32861,0 -0.59267,0.23853 -0.59267,0.53539 l 0,2.67695 c 0,0.29685 0.26406,0.53539 0.59267,0.53539 l 0.0847,0 0,1.63611 2.33776,-1.63611 1.70516,0 c 0.32862,0 0.59268,-0.23854 0.59268,-0.53539 l 0,-2.67695 c 0,-0.29686 -0.26406,-0.53539 -0.59268,-0.53539 z"
         id="path6124"
         style="fill:url(#radialGradient6146);fill-opacity:1;stroke:none" />
    </g>
  </g>
</svg>
