<?xml version="1.0" ?><svg xmlns="http://www.w3.org/2000/svg" xmlns:xlink="http://www.w3.org/1999/xlink" width="10" height="10"><defs><linearGradient id="a"><stop offset="0" stop-color="#e9e9e9"/><stop offset="1" stop-color="#e9e9e9" stop-opacity="0"/></linearGradient><radialGradient xlink:href="#a" cx="755.806" cy="683.849" fx="755.806" fy="683.849" r="2.656" gradientTransform="matrix(2.49 0 0 2.523 -1126.003 -1041.542)" gradientUnits="userSpaceOnUse"/><radialGradient xlink:href="#a" id="b" gradientUnits="userSpaceOnUse" gradientTransform="matrix(2.49 0 0 2.523 -1126.003 -1041.542)" cx="755.806" cy="683.849" fx="755.806" fy="683.849" r="2.656"/></defs><g><path transform="matrix(1.021 0 0 .971 11.015 -.069)" d="M-8.625.438c-.485 0-.875.39-.875.875v4.375c0 .485.39.875.875.875h.125v2.674l3.451-2.674h2.517c.485 0 .875-.39.875-.875v-4.375c0-.485-.39-.875-.875-.875z" fill="#fff" stroke="#888a85" stroke-width=".989" stroke-linecap="square" stroke-miterlimit="9.8"/><path d="M3.243 1.55c-.336 0-.605.232-.605.52v2.599c0 .288.27.52.605.52h.086v1.589l2.387-1.589h1.741c.336 0 .605-.232.605-.52v-2.599c0-.288-.27-.52-.605-.52z" fill="url(#b)"/></g></svg>