<?xml version="1.0" encoding="utf-8"?>
<svg xmlns="http://www.w3.org/2000/svg" width="155.186" height="155.186" viewBox="222.943 298.736 155.186 155.186" enable-background="new 222.943 298.736 155.186 155.186">
    <path fill="none" d="M222.943 300.921h177.042v186.878h-177.042z"/>
    <g>
        <g>
            <path fill="#444" stroke="#444" stroke-width=".7" stroke-miterlimit="10" d="M300.536 379.607c-21.857 0-40.436-18.579-40.436-40.436s18.579-40.436 40.436-40.436 40.436 18.579 40.436 40.436-17.487 40.436-40.436 40.436zm0-75.407c-18.579 0-33.878 15.3-33.878 33.878s15.3 33.878 33.878 33.878 33.878-15.3 33.878-33.878-15.3-33.878-33.878-33.878z"/>
        </g>
    </g>
    <g>
        <g>
            <path fill="#444" stroke="#444" stroke-width=".7" stroke-miterlimit="10" d="M378.129 453.922h-155.186v-3.279c0-5.464 0-18.578 5.464-30.6 6.557-15.3 20.764-26.229 39.343-30.6h1.093l1.093 1.093c8.743 5.464 19.671 8.743 30.6 8.743 10.928 0 20.764-3.278 30.6-8.743l1.093-1.093h1.093c19.672 5.464 32.786 15.3 39.343 30.6 5.465 12.021 5.465 25.136 5.465 30.6v3.279zm-149.722-5.465h143.164c0-6.557-1.093-15.3-5.464-25.136-5.465-13.114-16.394-22.95-32.786-27.321-9.836 5.464-20.764 8.743-32.786 8.743-10.929 0-22.95-3.279-32.786-8.743-16.393 4.371-28.414 14.207-33.878 27.321-4.371 8.743-4.371 18.579-5.464 25.136z"/>
        </g>
    </g>
</svg>
