<?xml version="1.0" encoding="UTF-8"?><svg xmlns="http://www.w3.org/2000/svg" xmlns:xlink="http://www.w3.org/1999/xlink" width="12" height="13.837"><defs><linearGradient id="e"><stop offset="0"/><stop offset="1" stop-opacity="0"/></linearGradient><linearGradient id="b"><stop offset="0" stop-color="#3b74bc"/><stop offset="1" stop-color="#2d5990"/></linearGradient><linearGradient id="c"><stop offset="0" stop-color="#fff"/><stop offset="1" stop-color="#c9c9c9"/></linearGradient><linearGradient id="a"><stop offset="0"/><stop offset="1" stop-opacity="0"/></linearGradient><linearGradient id="d"><stop offset="0" stop-color="#f4d9b1"/><stop offset="1" stop-color="#df9725"/></linearGradient><radialGradient cx="31.113" cy="19.009" r="8.662" fx="31.113" fy="19.009" id="f" xlink:href="#a" gradientUnits="userSpaceOnUse"/><radialGradient cx="28.09" cy="27.203" r="13.565" fx="28.09" fy="27.203" id="g" xlink:href="#b" gradientUnits="userSpaceOnUse" gradientTransform="matrix(1.298 0 0 .885 -8.359 4.94)"/><linearGradient x1="30.936" y1="29.553" x2="30.936" y2="35.803" id="h" xlink:href="#c" gradientUnits="userSpaceOnUse"/><radialGradient cx="31.113" cy="19.009" r="8.662" fx="31.113" fy="19.009" id="i" xlink:href="#a" gradientUnits="userSpaceOnUse"/><radialGradient cx="29.345" cy="17.064" r="9.162" fx="29.345" fy="17.064" id="j" xlink:href="#d" gradientUnits="userSpaceOnUse" gradientTransform="matrix(.788 0 0 .788 6.221 3.618)"/><linearGradient x1="20.662" y1="35.818" x2="22.627" y2="36.218" id="k" xlink:href="#e" gradientUnits="userSpaceOnUse" gradientTransform="matrix(.983 .182 -.182 .983 6.232 -2.651)"/><linearGradient x1="22.687" y1="36.39" x2="21.408" y2="35.74" id="l" xlink:href="#e" gradientUnits="userSpaceOnUse" gradientTransform="matrix(-.978 .21 .21 .978 55.11 -3.945)"/></defs><g color="#000"><path d="M39.775 19.009a8.662 8.662 0 1 1-17.324 0 8.662 8.662 0 1 1 17.324 0z" transform="matrix(.693 0 0 .374 -15.548 3.481)" fill="url(#f)" fill-rule="evenodd" overflow="visible"/><path d="M4.046 12.398h4.137c1.172 0 2.332-.43 2.758-1.655.404-1.163.069-3.378-2.551-5.171h-4.895c-2.62 1.655-2.947 3.917-2.344 5.24.614 1.347 1.655 1.586 2.896 1.586z" fill="url(#g)" fill-rule="evenodd" stroke="#204a87" stroke-linecap="round" stroke-linejoin="round" overflow="visible" stroke-width="0.39"/><path d="M4.321 6.193c1.241 1.103 1.793 5.102 1.793 5.102s.552-3.999 1.517-5.171l-3.309.069z" fill="url(#h)" fill-rule="evenodd" overflow="visible"/><path d="M5.21 6.607s-.839.648-.767 1.428c-.796-.702-.819-2.048-.819-2.048l1.586.62z" fill="#729fcf" fill-rule="evenodd" overflow="visible"/><path d="M4.018 11.992l4.092-.009c1.029 0 2.049-.377 2.422-1.453.355-1.022-.037-2.967-2.338-4.542l-4.495-.095c-2.301 1.453-2.747 3.441-2.208 4.697.538 1.256 1.324 1.393 2.526 1.401z" opacity=".215" stroke="#fff" stroke-linecap="round" stroke-linejoin="round" overflow="visible" fill="none" stroke-width="0.39"/><path d="M6.941 6.607s.839.648.767 1.428c.796-.702.819-2.048.819-2.048l-1.586.62z" fill="#729fcf" fill-rule="evenodd" overflow="visible"/><path d="M39.775 19.009a8.662 8.662 0 1 1-17.324 0 8.662 8.662 0 1 1 17.324 0z" transform="matrix(.39 0 0 .39 -6.138 -2.475)" fill="url(#i)" fill-rule="evenodd" overflow="visible"/><path d="M39.775 19.009a8.662 8.662 0 1 1-17.324 0 8.662 8.662 0 1 1 17.324 0z" fill="url(#j)" fill-rule="evenodd" stroke="#c17d11" stroke-linecap="round" stroke-linejoin="round" overflow="visible" transform="matrix(.39 0 0 .39 -6.089 -3.84)"/><path d="M39.775 19.009a8.662 8.662 0 1 1-17.324 0 8.662 8.662 0 1 1 17.324 0z" transform="matrix(.342 0 0 .342 -4.598 -2.929)" opacity=".196" stroke="#fff" stroke-width="1.14" stroke-linecap="round" stroke-linejoin="round" overflow="visible" fill="none"/><path d="M2.433 12.062c-.487-.213-.704-.725-.704-.725.328-1.587 1.451-2.748 1.451-2.748s-.889 2.5-.746 3.473z" opacity=".228" fill="url(#k)" fill-rule="evenodd" overflow="visible"/><path d="M9.806 11.728c.48-.227.704-.781.704-.781-.374-1.577-1.551-2.669-1.551-2.669s.961 2.474.847 3.45z" opacity=".228" fill="url(#l)" fill-rule="evenodd" overflow="visible"/></g></svg>