<?xml version="1.0" encoding="utf-8"?>
<!-- Generator: Adobe Illustrator 15.0.0, SVG Export Plug-In . SVG Version: 6.00 Build 0)  -->
<!DOCTYPE svg PUBLIC "-//W3C//DTD SVG 1.1//EN" "http://www.w3.org/Graphics/SVG/1.1/DTD/svg11.dtd">
<svg version="1.1" id="Layer_1" xmlns="http://www.w3.org/2000/svg" xmlns:xlink="http://www.w3.org/1999/xlink" x="0px" y="0px"
	 width="155.186px" height="155.186px" viewBox="222.943 298.736 155.186 155.186"
	 enable-background="new 222.943 298.736 155.186 155.186" xml:space="preserve">
<rect x="222.943" y="300.921" fill="none" width="177.042" height="186.878"/>
<g>
	<g>
		<path fill="#444444" stroke="#444444" stroke-width="0.7" stroke-miterlimit="10" d="M300.536,379.607
			c-21.857,0-40.436-18.579-40.436-40.436s18.579-40.436,40.436-40.436s40.436,18.579,40.436,40.436
			S323.485,379.607,300.536,379.607z M300.536,304.2c-18.579,0-33.878,15.3-33.878,33.878s15.3,33.878,33.878,33.878
			s33.878-15.3,33.878-33.878S319.114,304.2,300.536,304.2z"/>
	</g>
</g>
<g>
	<g>
		<path fill="#444444" stroke="#444444" stroke-width="0.7" stroke-miterlimit="10" d="M378.129,453.922H222.943v-3.279
			c0-5.464,0-18.578,5.464-30.6c6.557-15.3,20.764-26.229,39.343-30.6h1.093l1.093,1.093c8.743,5.464,19.671,8.743,30.6,8.743
			c10.928,0,20.764-3.278,30.6-8.743l1.093-1.093h1.093c19.672,5.464,32.786,15.3,39.343,30.6c5.465,12.021,5.465,25.136,5.465,30.6
			V453.922z M228.407,448.457h143.164c0-6.557-1.093-15.3-5.464-25.136c-5.465-13.114-16.394-22.95-32.786-27.321
			c-9.836,5.464-20.764,8.743-32.786,8.743c-10.929,0-22.95-3.279-32.786-8.743c-16.393,4.371-28.414,14.207-33.878,27.321
			C229.5,432.064,229.5,441.9,228.407,448.457z"/>
	</g>
</g>
</svg>
