<?xml version="1.0" encoding="UTF-8"?><svg xmlns="http://www.w3.org/2000/svg" xmlns:xlink="http://www.w3.org/1999/xlink" width="10" height="10"><defs><linearGradient id="a"><stop offset="0" stop-color="#ccc"/><stop offset="1" stop-color="#dfdfdf"/></linearGradient><radialGradient cx="5.003" cy="4.965" r="5" fx="5.003" fy="4.965" id="b" xlink:href="#a" gradientUnits="userSpaceOnUse"/></defs><g><path d="M8.116 9.404l-.619-.928s.177.928.928 1.016c.751.088 1.193.088 1.193.088" stroke="#5f6060" stroke-width=".9" fill="none"/><path d="M9.518 4.965a4.514 4.514 0 1 1-9.028 0 4.514 4.514 0 1 1 9.028 0z" transform="translate(-903.571 -715.934) translate(903.464 715.902)" fill="url(#b)" stroke="#848484" stroke-width=".9" stroke-linecap="square" stroke-miterlimit="9.8"/><g fill="#818181"><path d="M5.031 2.594a.594.594 0 1 1-1.188 0 .594.594 0 1 1 1.188 0z" transform="matrix(1.316 -.265 .265 1.316 -2.529 .491)"/><path d="M5.031 2.594a.594.594 0 1 1-1.188 0 .594.594 0 1 1 1.188 0z" transform="matrix(1.316 -.265 .265 1.316 -4.11 2.589)"/><path d="M5.031 2.594a.594.594 0 1 1-1.188 0 .594.594 0 1 1 1.188 0z" transform="matrix(1.316 -.265 .265 1.316 .044 1.028)"/><path d="M5.031 2.594a.594.594 0 1 1-1.188 0 .594.594 0 1 1 1.188 0z" transform="matrix(1.316 -.265 .265 1.316 -2.379 4.567)"/><path d="M5.031 2.594a.594.594 0 1 1-1.188 0 .594.594 0 1 1 1.188 0z" transform="matrix(1.316 -.265 .265 1.316 .085 3.655)"/></g></g></svg>