<?xml version="1.0" encoding="utf-8"?>
<!-- Generator: Adobe Illustrator 19.1.0, SVG Export Plug-In . SVG Version: 6.00 Build 0)  -->
<svg version="1.1" id="Layer_1" xmlns="http://www.w3.org/2000/svg" xmlns:xlink="http://www.w3.org/1999/xlink" x="0px" y="0px"
	 viewBox="0 0 264 162" height="162" width="264" style="enable-background:new 0 0 264 162;" xml:space="preserve">
<style type="text/css">
	.st0{fill:#00AF89;}
	.st1{fill:#FFFFFF;}
	.st2{fill:#FFFFFF;stroke:#E5E5E5;stroke-miterlimit:10;}
	.st3{fill:#E5E5E5;}
	.st4{fill:none;stroke:#E5E5E5;stroke-miterlimit:10;}
	.st5{fill:#9B9A9A;}
	.st6{fill:none;stroke:#E5E5E5;stroke-linejoin:round;stroke-miterlimit:10;}
</style>
<rect x="62.3" y="28.1" class="st0" width="137.6" height="105"/>
<g>
	<path class="st1" d="M73.1,57v64.4h45.3V78.5h25.3v42.9h45.3V57H73.1z M94.3,107.6H80.9V94.3h13.3V107.6z M94.3,91.9H80.9V78.5
		h13.3V91.9z M109.9,107.6H96.6V94.3h13.3V107.6z M109.9,91.9H96.6V78.5h13.3V91.9z M164.3,107.6h-13.3V94.3h13.3V107.6z
		 M164.3,91.9h-13.3V78.5h13.3V91.9z M179.9,107.6h-13.3V94.3h13.3V107.6z M179.9,91.9h-13.3V78.5h13.3V91.9z"/>
	<rect x="73.1" y="48.5" class="st1" width="116" height="5.7"/>
	<rect x="73.1" y="39.9" class="st1" width="116" height="5.7"/>
</g>
<rect x="62.3" y="124" class="st1" width="137.6" height="1.7"/>
<g>
	<g>
		<rect x="6.7" y="7.4" class="st2" width="35.3" height="12.7"/>
		<rect x="42" y="11.1" class="st3" width="2.3" height="5.7"/>
	</g>
	<rect x="8.2" y="9.1" class="st3" width="5.2" height="9.2"/>
	<rect x="14.5" y="9.1" class="st3" width="5.2" height="9.2"/>
	<rect x="21" y="9.1" class="st3" width="5.2" height="9.2"/>
</g>
<circle class="st3" cx="252.7" cy="12.1" r="6.2"/>
<rect x="239.3" y="9.1" class="st3" width="5.3" height="7.7"/>
<rect x="233" y="9.1" class="st3" width="5.3" height="7.7"/>
<rect x="214" y="143.3" class="st3" width="5.3" height="7.7"/>
<rect x="207.6" y="143.3" class="st3" width="5.3" height="7.7"/>
<rect x="50.4" y="143.3" class="st3" width="5.3" height="7.7"/>
<rect x="39" y="143.3" class="st3" width="5.3" height="7.7"/>
<line class="st4" x1="73.1" y1="148" x2="189.1" y2="148"/>
<line class="st4" x1="132" y1="143.1" x2="132" y2="152.9"/>
<line class="st4" x1="189.1" y1="144.3" x2="189.1" y2="151.7"/>
<line class="st4" x1="73.1" y1="144.3" x2="73.1" y2="151.7"/>
<line class="st4" x1="86" y1="145.5" x2="86" y2="150.5"/>
<line class="st4" x1="100.7" y1="145.5" x2="100.7" y2="150.5"/>
<line class="st4" x1="115.3" y1="145.5" x2="115.3" y2="150.5"/>
<line class="st4" x1="145.8" y1="145.5" x2="145.8" y2="150.5"/>
<line class="st4" x1="160.5" y1="145.5" x2="160.5" y2="150.5"/>
<line class="st4" x1="175.2" y1="145.5" x2="175.2" y2="150.5"/>
<g>
	<rect x="113.8" y="154.1" class="st5" width="3.2" height="4.7"/>
	<polygon class="st5" points="113.8,154.1 115.3,152.3 116.9,154.1 	"/>
</g>
<g>
	<g>
		<polyline class="st6" points="34.3,147.1 31.5,147.1 34.3,144.3 31.5,147.1 34.3,147.1 31.5,149.9 		"/>
	</g>
	<polygon class="st3" points="33.9,149.5 32.1,151.7 30.3,149.5 	"/>
</g>
<line class="st6" x1="48.9" y1="143.2" x2="45.9" y2="151.1"/>
</svg>
