<?xml version="1.0" encoding="utf-8"?>
<!-- Generator: Adobe Illustrator 19.1.0, SVG Export Plug-In . SVG Version: 6.00 Build 0)  -->
<svg version="1.1" id="Layer_2" xmlns="http://www.w3.org/2000/svg" xmlns:xlink="http://www.w3.org/1999/xlink" x="0px" y="0px"
	 viewBox="0 0 264 162" style="enable-background:new 0 0 264 162;" xml:space="preserve">
<style type="text/css">
	.st0{fill:#FFFFFF;}
	.st1{fill:#E5E5E5;}
	.st2{fill:none;stroke:#E5E5E5;stroke-miterlimit:10;}
	.st3{fill:none;stroke:#D02227;stroke-miterlimit:10;}
	.st4{fill:#D02227;}
</style>
<g>
	<rect x="166.2" y="5.5" class="st0" width="93" height="5"/>
	<path class="st1" d="M258.8,6v4h-92V6H258.8 M259.8,5h-94v6h94V5L259.8,5z"/>
</g>
<polygon class="st1" points="86.3,8 87.6,8 154.4,8 155.8,8 158,14 152.2,14 89.8,14 84,14 "/>
<polygon class="st1" points="7.5,8 8.8,8 75.7,8 77,8 79.3,14 73.4,14 11.1,14 5.2,14 "/>
<line class="st2" x1="262" y1="14.5" x2="2" y2="14.5"/>
<line class="st2" x1="262" y1="32.8" x2="2" y2="32.8"/>
<g>
	<circle class="st3" cx="255.1" cy="22.6" r="3.6"/>
	<line class="st3" x1="252.4" y1="25" x2="249" y2="28.5"/>
</g>
<rect x="185.5" y="19" class="st1" width="57.6" height="9.5"/>
<rect x="190.5" y="37" class="st1" width="69.2" height="32.7"/>
<rect x="169.7" y="72.5" class="st1" width="90.1" height="56.8"/>
<rect x="60.4" y="72.5" class="st4" width="106.5" height="56.8"/>
<rect x="5.2" y="72.5" class="st1" width="52.4" height="56.8"/>
<rect x="223.3" y="132.2" class="st1" width="36.5" height="25.3"/>
<rect x="158" y="132.2" class="st1" width="62.3" height="25.3"/>
<rect x="136.6" y="132.2" class="st1" width="18.1" height="25.3"/>
<rect x="76.8" y="132.2" class="st1" width="18.1" height="25.3"/>
<rect x="56.1" y="132.2" class="st1" width="18.1" height="25.3"/>
<rect x="5.2" y="132.2" class="st1" width="48.1" height="25.3"/>
<rect x="97.9" y="132.2" class="st1" width="36" height="25.3"/>
<rect x="112.3" y="37" class="st1" width="36.5" height="32.7"/>
<rect x="151.4" y="37" class="st1" width="36.5" height="32.7"/>
<rect x="53.4" y="37" class="st1" width="56" height="32.7"/>
<rect x="5.2" y="37" class="st1" width="45.4" height="32.7"/>
<path class="st0" d="M161.7,124.3H81.4l31.8-31.8l26.1,26.1l12.8-12.8l9.5,9.5L161.7,124.3z"/>
<g>
</g>
<g>
</g>
<g>
</g>
<g>
</g>
<g>
</g>
<g>
</g>
</svg>
