<?xml version="1.0" encoding="utf-8"?>
<!-- Generator: Adobe Illustrator 19.1.0, SVG Export Plug-In . SVG Version: 6.00 Build 0)  -->
<svg version="1.1" id="Layer_1" xmlns="http://www.w3.org/2000/svg" xmlns:xlink="http://www.w3.org/1999/xlink" x="0px" y="0px"
	 viewBox="0 0 264 162" style="enable-background:new 0 0 264 162;" xml:space="preserve">
<style type="text/css">
	.st0{fill:#FFFFFF;}
	.st1{fill:#E5E5E5;}
	.st2{fill:none;stroke:#E5E5E5;stroke-miterlimit:10;}
	.st3{fill:#D02227;}
	.st4{fill:#9B9A9A;}
</style>
<g>
	<rect x="166.2" y="5.5" class="st0" width="93" height="5"/>
	<path class="st1" d="M258.8,6v4h-92V6H258.8 M259.8,5h-94v6h94V5L259.8,5z"/>
</g>
<polygon class="st1" points="86.3,8 87.6,8 154.4,8 155.8,8 158,14 152.2,14 89.8,14 84,14 "/>
<polygon class="st1" points="7.5,8 8.8,8 75.7,8 77,8 79.3,14 73.4,14 11.1,14 5.2,14 "/>
<line class="st2" x1="262" y1="14.5" x2="2" y2="14.5"/>
<rect x="113.5" y="48.4" class="st3" width="106.5" height="56.8"/>
<path class="st0" d="M214.7,100.2h-80.3l31.8-31.8l26.1,26.1l12.8-12.8l9.5,9.5L214.7,100.2z"/>
<circle class="st1" cx="209" cy="32.3" r="11.9"/>
<g>
	<rect x="117" y="27.4" class="st4" width="76.2" height="7"/>
	<rect x="171" y="35.5" class="st4" width="22.3" height="1.7"/>
	<rect x="140.8" y="35.5" class="st4" width="28.2" height="1.7"/>
</g>
<rect x="196.7" y="107.8" class="st1" width="23.3" height="23.3"/>
<rect x="113.5" y="107.8" class="st1" width="79.8" height="1.8"/>
<rect x="113.5" y="114" class="st1" width="79.8" height="1.8"/>
<rect x="113.5" y="120.2" class="st1" width="79.8" height="1.8"/>
<rect x="113.5" y="126.4" class="st1" width="79.8" height="1.8"/>
<rect x="113.5" y="134.4" class="st1" width="106.5" height="1.8"/>
<rect x="113.5" y="140.6" class="st1" width="106.5" height="1.8"/>
<rect x="113.5" y="146.8" class="st1" width="106.5" height="1.8"/>
<rect x="113.5" y="153" class="st1" width="106.5" height="1.8"/>
<g>
	<rect x="51" y="37.2" class="st1" width="57.3" height="1.8"/>
	<rect x="51" y="43.4" class="st1" width="57.3" height="1.8"/>
	<rect x="51" y="49.6" class="st1" width="57.3" height="1.8"/>
	<rect x="51" y="55.8" class="st1" width="57.3" height="1.8"/>
	<rect x="51" y="27.4" class="st1" width="57.3" height="7"/>
</g>
<g>
	<rect x="51" y="78.2" class="st1" width="57.3" height="1.8"/>
	<rect x="51" y="84.4" class="st1" width="57.3" height="1.8"/>
	<rect x="51" y="90.6" class="st1" width="57.3" height="1.8"/>
	<rect x="51" y="96.8" class="st1" width="57.3" height="1.8"/>
	<rect x="51" y="68.4" class="st1" width="57.3" height="7"/>
</g>
<g>
	<rect x="51" y="116.7" class="st1" width="57.3" height="1.8"/>
	<rect x="51" y="122.9" class="st1" width="57.3" height="1.8"/>
	<rect x="51" y="129.1" class="st1" width="57.3" height="1.8"/>
	<rect x="51" y="135.3" class="st1" width="57.3" height="1.8"/>
	<rect x="51" y="106.9" class="st1" width="57.3" height="7"/>
</g>
<g>
</g>
<g>
</g>
<g>
</g>
<g>
</g>
<g>
</g>
<g>
</g>
</svg>
