<?xml version="1.0" encoding="UTF-8"?>
<svg xmlns="http://www.w3.org/2000/svg" width="21.059" height="21.06">
	<path fill="#54595d" d="M10.529 0C4.715 0 0 4.714 0 10.529s4.715 10.53 10.529 10.53c5.816 0 10.529-4.715 10.529-10.53S16.346 0 10.529 0zm-.002 16.767c-.861 0-1.498-.688-1.498-1.516 0-.862.637-1.534 1.498-1.534.828 0 1.5.672 1.5 1.534 0 .827-.672 1.516-1.5 1.516zm2.137-6.512c-.723.568-1 .931-1 1.739v.5H9.459v-.603c0-1.517.449-2.136 1.154-2.688.707-.552 1.139-.845 1.139-1.637 0-.672-.414-1.051-1.24-1.051-.707 0-1.328.189-1.982.638L7.479 5.346c.861-.604 1.93-1.034 3.342-1.034 1.912 0 3.516 1.051 3.516 3.066-.001 1.43-.794 2.188-1.673 2.877z"/>
</svg>
