<?xml version="1.0" encoding="UTF-8" standalone="no"?>
<!-- Created with Inkscape (http://www.inkscape.org/) -->

<svg
   xmlns:dc="http://purl.org/dc/elements/1.1/"
   xmlns:cc="http://creativecommons.org/ns#"
   xmlns:rdf="http://www.w3.org/1999/02/22-rdf-syntax-ns#"
   xmlns:svg="http://www.w3.org/2000/svg"
   xmlns="http://www.w3.org/2000/svg"
   version="1.1"
   width="13"
   height="12.999996"
   id="svg5144">
  <defs
     id="defs5146" />
  <metadata
     id="metadata5149">
    <rdf:RDF>
      <cc:Work
         rdf:about="">
        <dc:format>image/svg+xml</dc:format>
        <dc:type
           rdf:resource="http://purl.org/dc/dcmitype/StillImage" />
        <dc:title></dc:title>
      </cc:Work>
    </rdf:RDF>
  </metadata>
  <g
     transform="translate(-36.467808,-258.39005)"
     id="layer1">
    <path
       d="m 43.467808,259.39005 -3,3 -3,0 0,4 3,0 3,3 z m -1,2.5 0,5 -1.5,-1.5 -2.5,0 0,-2 2.5,0 z"
       id="path4755-9-5"
       style="opacity:0.98999999;fill:#3366bb;fill-opacity:1;stroke:none;display:inline" />
    <path
       d="m 43.899794,262.46542 c 0,-0.62133 0.621323,-1.24265 1.242647,-0.62133 0,0 0.621323,0.62133 0.621323,2.4853 0,1.86397 -0.621323,2.48529 -0.621323,2.48529 -0.621324,0.62133 -1.242647,0 -1.242647,-0.62132 0,0 0.621323,-0.62132 0.621323,-1.86397 0,-1.24265 -0.621323,-1.86397 -0.621323,-1.86397 z"
       id="path4760-1-7"
       style="opacity:0.98999999;fill:#15a5ea;fill-opacity:1;stroke:none;display:inline" />
    <path
       d="m 45.763764,261.22277 c 0,-0.62132 0.621323,-1.24265 1.242648,-0.62132 0,0 1.242646,1.24264 1.242646,3.72794 0,2.48529 -1.242646,3.72794 -1.242646,3.72794 -0.621325,0.62132 -1.242648,0 -1.242648,-0.62132 0,0 1.242648,-1.24265 1.242648,-3.10662 0,-1.86397 -1.242648,-3.10662 -1.242648,-3.10662 z"
       id="path4762-8-3"
       style="opacity:0.98999999;fill:#15a5ea;fill-opacity:1;stroke:none;display:inline" />
  </g>
</svg>
