<?xml version="1.0" encoding="UTF-8"?>
<svg xmlns="http://www.w3.org/2000/svg" width="13" height="13">
	<path fill="#36b" d="M6.002 1.01l3 3h3v4h-3l-3 3zm1 2.5v5l1.5-1.5h2.5v-2h-2.5z"/>
	<path fill="#15a5ea" d="M5.572 4.11c0-.621-.621-1.243-1.243-.621 0 0-.621.621-.621 2.485s.621 2.485.621 2.485c.621.621 1.243 0 1.243-.622 0 0-.621-.62-.621-1.864s.621-1.864.621-1.864zm-1.87-1.3c0-.621-.621-1.243-1.243-.621 0 0-1.243 1.243-1.243 3.728S2.46 9.645 2.46 9.645c.621.621 1.243 0 1.243-.622 0 0-1.243-1.243-1.243-3.107S3.702 2.81 3.702 2.81z"/>
</svg>
