<?xml version="1.0" encoding="UTF-8"?>
<svg xmlns="http://www.w3.org/2000/svg" width="13" height="13">
	<path fill="#36b" d="M7.002 1.01l-3 3h-3v4h3l3 3zm-1 2.5v5l-1.5-1.5h-2.5v-2h2.5z"/>
	<path fill="#15a5ea" d="M7.432 4.11c0-.621.621-1.243 1.243-.621 0 0 .621.621.621 2.485s-.62 2.485-.62 2.485c-.622.621-1.244 0-1.244-.622 0 0 .621-.62.621-1.864s-.62-1.864-.62-1.864z"/>
	<path fill="#15a5ea" d="M9.292 2.81c0-.621.621-1.243 1.243-.621 0 0 1.243 1.243 1.243 3.728s-1.243 3.728-1.243 3.728c-.621.621-1.243 0-1.243-.622 0 0 1.243-1.243 1.243-3.107S9.292 2.81 9.292 2.81z"/>
</svg>
