<?xml version="1.0" encoding="UTF-8" standalone="no"?>
<svg xmlns:rdf="http://www.w3.org/1999/02/22-rdf-syntax-ns#" xmlns="http://www.w3.org/2000/svg" height="13" width="13" version="1.1" xmlns:cc="http://creativecommons.org/ns#" xmlns:dc="http://purl.org/dc/elements/1.1/">
<g transform="translate(-36.467808,-258.39005)">
<path style="opacity:1;fill:#3366bb;" d="m43.47,259.4-3,3-3,0,0,4,3,0,3,3zm-1,2.5,0,5-1.5-1.5-2.5,0,0-2,2.5,0z"/>
<path style="opacity:1;fill:#15a5ea;" d="m43.9,262.5c0-0.6213,0.6213-1.243,1.243-0.6213,0,0,0.6213,0.6213,0.6213,2.485s-0.6213,2.485-0.6213,2.485c-0.6213,0.6213-1.243,0-1.243-0.6213,0,0,0.6213-0.6213,0.6213-1.864s-0.6213-1.864-0.6213-1.864z"/>
<path style="opacity:1;fill:#15a5ea;" d="m45.76,261.2c0-0.6213,0.6213-1.243,1.243-0.6213,0,0,1.243,1.243,1.243,3.728s-1.243,3.728-1.243,3.728c-0.6213,0.6213-1.243,0-1.243-0.6213,0,0,1.243-1.243,1.243-3.107s-1.243-3.107-1.243-3.107z"/>
</g>
</svg>
