<?xml version="1.0" encoding="UTF-8" standalone="no"?>
<svg xmlns:rdf="http://www.w3.org/1999/02/22-rdf-syntax-ns#" xmlns="http://www.w3.org/2000/svg" height="13" width="13" version="1.1" xmlns:cc="http://creativecommons.org/ns#" xmlns:dc="http://purl.org/dc/elements/1.1/">
<g transform="translate(-36.467808,-258.39005)">
<path style="opacity:1;fill:#3366bb;" d="m44.47,259.4-7,0,0,7,2-2,3,2,0-1-3-2.25-1,1,0-3.75,3.75,0-1,1,2.25,3,1,0-2-3z"/>
<path style="opacity:1;fill:#3366bb;" d="m42.47,261.4,5,0,0,8-8,0,0-5,1,0,0,4,6,0,0-6-4,0z"/>
<path style="opacity:1;fill:#15a5ea;" d="m45.39,263.9c0-0.6213-0.6213-0.6213-0.6213-0.6213-1.864,0.6213-3.107,1.864-3.728,3.728l0.6213,0.6213c1.243-1.864,1.864-2.485,3.728-3.728z"/>
</g>
</svg>
