<?xml version="1.0" encoding="UTF-8" standalone="no"?>
<!-- Created with Inkscape (http://www.inkscape.org/) -->

<svg
   xmlns:dc="http://purl.org/dc/elements/1.1/"
   xmlns:cc="http://creativecommons.org/ns#"
   xmlns:rdf="http://www.w3.org/1999/02/22-rdf-syntax-ns#"
   xmlns:svg="http://www.w3.org/2000/svg"
   xmlns="http://www.w3.org/2000/svg"
   version="1.1"
   width="13"
   height="12.999996"
   id="svg5144">
  <defs
     id="defs5146" />
  <metadata
     id="metadata5149">
    <rdf:RDF>
      <cc:Work
         rdf:about="">
        <dc:format>image/svg+xml</dc:format>
        <dc:type
           rdf:resource="http://purl.org/dc/dcmitype/StillImage" />
        <dc:title></dc:title>
      </cc:Work>
    </rdf:RDF>
  </metadata>
  <g
     transform="translate(-36.467808,-258.39005)"
     id="layer1">
    <path
       d="m 44.467808,259.39004 -7,0 0,7 2,-2 3,2 0,-1 -3,-2.25 -1,1 0,-3.75 3.75,0 -1,1 2.25,3 1,0 -2,-3 z"
       id="path4807-5-6"
       style="opacity:0.98999999;fill:#3366bb;fill-opacity:1;stroke:none;display:inline" />
    <path
       d="m 42.467808,261.39004 5,0 0,8 -8,0 0,-5 1,0 0,4 6,0 0,-6 -4,0 z"
       id="path4809-7-3"
       style="opacity:0.98999999;fill:#3366bb;fill-opacity:1;stroke:none;display:inline" />
    <path
       d="m 45.385087,263.92313 c 0,-0.62132 -0.621323,-0.62132 -0.621323,-0.62132 -1.863971,0.62132 -3.106618,1.86397 -3.727942,3.72793 0,0 0,0.62133 0.621324,0.62133 1.242647,-1.86397 1.863971,-2.48529 3.727941,-3.72794 z"
       id="path4822-8-2"
       style="opacity:0.98999999;fill:#15a5ea;fill-opacity:1;stroke:none;display:inline" />
  </g>
</svg>
