<?xml version="1.0" encoding="UTF-8" standalone="no"?>
<!-- Created with Inkscape (http://www.inkscape.org/) -->

<svg
   xmlns:dc="http://purl.org/dc/elements/1.1/"
   xmlns:cc="http://creativecommons.org/ns#"
   xmlns:rdf="http://www.w3.org/1999/02/22-rdf-syntax-ns#"
   xmlns:svg="http://www.w3.org/2000/svg"
   xmlns="http://www.w3.org/2000/svg"
   version="1.1"
   width="13"
   height="12.999996"
   id="svg3631">
  <defs
     id="defs3633" />
  <metadata
     id="metadata3636">
    <rdf:RDF>
      <cc:Work
         rdf:about="">
        <dc:format>image/svg+xml</dc:format>
        <dc:type
           rdf:resource="http://purl.org/dc/dcmitype/StillImage" />
        <dc:title></dc:title>
      </cc:Work>
    </rdf:RDF>
  </metadata>
  <g
     transform="translate(-136.35715,-374.43362)"
     id="layer1">
    <path
       d="m 137.35714,376.93361 0,7.5001 1,-0.9872 0,-6.0129 2,0 2,1 4,-2e-4 0,2.0002 1,0 0,-2.5 -0.5,-0.5002 -4.5,2e-4 -2,-1 -2.5,0 z"
       id="path3209"
       style="opacity:0.98999999;fill:#3465ba;fill-opacity:1;stroke:none;display:inline" />
    <path
       d="m 142.35714,379.43371 -1,-1e-4 -2.5,0 -0.5,0.5 -1,4.5001 10,-1e-4 0,-4.4998 -0.5,-0.5 z m 0,1 4,-1e-4 0,3 -7.75,-10e-5 0.75,-3.0001 2,0 z"
       id="path3215"
       style="opacity:0.98999999;fill:#16a4e8;fill-opacity:1;stroke:none;display:inline" />
    <path
       d="m 138.35714,385.43361 0,1 8,0 0,-1 z"
       id="path3247"
       style="opacity:0.98999999;fill:#3465ba;fill-opacity:1;stroke:none;display:inline" />
    <path
       d="m 141.35714,383.93361 0,2 2,0 0,-2 c 0,-0.5 -2,-0.5 -2,0 z"
       id="path3249"
       style="opacity:0.98999999;fill:#3465ba;fill-opacity:1;stroke:none;display:inline" />
  </g>
</svg>
