<?xml version="1.0" encoding="UTF-8" standalone="no"?>
<!-- Created with Inkscape (http://www.inkscape.org/) -->

<svg
   xmlns:dc="http://purl.org/dc/elements/1.1/"
   xmlns:cc="http://creativecommons.org/ns#"
   xmlns:rdf="http://www.w3.org/1999/02/22-rdf-syntax-ns#"
   xmlns:svg="http://www.w3.org/2000/svg"
   xmlns="http://www.w3.org/2000/svg"
   version="1.1"
   width="13"
   height="12.999996"
   id="svg5144">
  <defs
     id="defs5146" />
  <metadata
     id="metadata5149">
    <rdf:RDF>
      <cc:Work
         rdf:about="">
        <dc:format>image/svg+xml</dc:format>
        <dc:type
           rdf:resource="http://purl.org/dc/dcmitype/StillImage" />
        <dc:title></dc:title>
      </cc:Work>
    </rdf:RDF>
  </metadata>
  <g
     transform="translate(-36.467808,-258.39005)"
     id="layer1">
    <path
       d="m 38.959426,260.39003 0,0.62133 8.097916,0 0,-0.62133 z"
       id="path4772-4"
       style="opacity:0.98999999;fill:#15a5ea;fill-opacity:0.99215686;stroke:none;display:inline" />
    <path
       d="m 38.959426,268.39003 8.097916,0 0,-0.62132 -8.097916,0 z"
       id="path4774-6"
       style="opacity:0.98999999;fill:#15a5ea;fill-opacity:0.99215686;stroke:none;display:inline" />
    <path
       d="m 38.959426,262.30915 0,0.62132 1.86875,0 0,-0.62132 z m 6.229166,0 0,0.62132 1.86875,0 0,-0.62132 z"
       id="path4782-3"
       style="opacity:0.98999999;fill:#15a5ea;fill-opacity:0.99215686;stroke:none;display:inline" />
    <path
       d="m 38.959426,265.97937 0,0.62133 1.86875,0 0,-0.62133 z m 6.229166,0 0,0.62133 1.86875,0 0,-0.62133 z"
       id="path4778-9"
       style="opacity:0.98999999;fill:#15a5ea;fill-opacity:0.99215686;stroke:none;display:inline" />
    <path
       d="m 38.959426,264.79444 8.097916,0 0,-0.62132 -8.097916,0 z"
       id="path4780-0"
       style="opacity:0.98999999;fill:#15a5ea;fill-opacity:0.99215686;stroke:none;display:inline" />
    <path
       d="m 40.828175,263.86246 0,1.24264 4.360417,0 0,-1.24264 z"
       id="path4793-0"
       style="opacity:0.98999999;fill:#15a5ea;fill-opacity:1;stroke:none;display:inline" />
    <path
       d="m 40.46782,260.39003 0,8 5,0 0,-8 z m 1,1 3,0 0,6 -3,0 z"
       id="path4768-5"
       style="opacity:0.98999999;fill:#3366bb;fill-opacity:1;stroke:none;display:inline" />
    <path
       d="m 38.46782,259.39003 1,0 0,10 -1,0 z"
       id="path4764-1"
       style="opacity:0.98999999;fill:#3366bb;fill-opacity:1;stroke:none;display:inline" />
    <path
       d="m 46.46782,259.39003 1,0 0,10 -1,0 z"
       id="path4766-6"
       style="opacity:0.98999999;fill:#3366bb;fill-opacity:1;stroke:none;display:inline" />
  </g>
</svg>
