<?xml version="1.0" encoding="UTF-8" standalone="no"?>
<svg xmlns:rdf="http://www.w3.org/1999/02/22-rdf-syntax-ns#" xmlns="http://www.w3.org/2000/svg" height="13" width="13" version="1.1" xmlns:cc="http://creativecommons.org/ns#" xmlns:dc="http://purl.org/dc/elements/1.1/">
<g transform="translate(-36.4678,-258.39)">
<path style="opacity:1;fill-opacity:1;fill:#15a5ea;" d="m38.96,260.4,0,0.6213,8.098,0,0-0.6213z"/>
<path style="opacity:1;fill-opacity:1;fill:#15a5ea;" d="m38.96,268.4,8.098,0,0-0.6213-8.098,0z"/>
<path style="opacity:1;fill-opacity:1;fill:#15a5ea;" d="m38.96,262.3,0,0.6213,1.869,0,0-0.6213zm6.229,0,0,0.6213,1.869,0,0-0.6213z"/>
<path style="opacity:1;fill-opacity:1;fill:#15a5ea;" d="m38.96,266,0,0.6213,1.869,0,0-0.6213zm6.229,0,0,0.6213,1.869,0,0-0.6213z"/>
<path style="opacity:1;fill-opacity:1;fill:#15a5ea;" d="m38.96,264.8,8.098,0,0-0.6213-8.098,0z"/>
<path style="opacity:1;fill:#15a5ea;" d="m40.83,263.9,0,1.243,4.36,0,0-1.243z"/>
<path style="opacity:1;fill:#3366bb;" d="m40.47,260.4,0,8,5,0,0-8zm1,1,3,0,0,6-3,0z"/>
<path style="opacity:1;fill:#3366bb;" d="m38.47,259.4,1,0,0,10-1,0z"/>
<path style="opacity:1;fill:#3366bb;" d="m46.47,259.4,1,0,0,10-1,0z"/>
</g>
</svg>
