<svg width="222" height="222" xmlns="http://www.w3.org/2000/svg">
    <defs>
        <style>
            .petal{opacity:.65}
        </style>
    </defs>
    <g style="fill:url(#gradient)">
        <path class="petal" d="M80.283 29.02c-.648 8.246.645 16.05 5.16 23.1a23.04 23.04 0 0 0 13.04 9.63 5.672 5.672 0 0 0 4.719-1.153c6.093-5.8 9.031-12.89 8-21.625-1.829-15.522-11.06-26.108-22.808-36.2C83.826 11.538 81 19.917 80.283 29.02Z"/>
        <path class="petal" d="M63.913 37.254c1.081 8.2 3.967 15.565 9.849 21.519a23.04 23.04 0 0 0 14.757 6.709 5.671 5.671 0 0 0 4.376-2.109c4.754-6.944 6.154-14.486 3.331-22.816C91.21 25.753 79.98 17.318 66.39 9.888c-2.647 9.529-3.671 18.312-2.477 27.366Z"/>
        <path class="petal" d="M49.611 48.711c2.762 7.8 7.117 14.4 14.108 19a23.04 23.04 0 0 0 15.83 3.494 5.671 5.671 0 0 0 3.841-2.973c3.206-7.78 3.008-15.449-1.485-23.01-7.984-13.436-20.722-19.352-35.56-23.793-.608 9.871.216 18.671 3.266 27.282Z"/>
        <path class="petal" d="M38 62.891c4.323 7.052 9.955 12.605 17.75 15.653a23.04 23.04 0 0 0 16.21.126 5.671 5.671 0 0 0 3.14-3.707c1.519-8.277-.27-15.737-6.237-22.2-10.6-11.483-24.293-14.621-39.73-15.881 1.462 9.784 4.099 18.225 8.867 26.009Z"/>
        <path class="petal" d="M29.6 79.174c5.694 6 12.359 10.26 20.617 11.62A23.039 23.039 0 0 0 66.1 87.548a5.671 5.671 0 0 0 2.3-4.278c-.235-8.412-3.536-15.337-10.716-20.416-12.759-9.028-26.8-9.251-42.164-7.274 3.459 9.264 7.793 16.972 14.08 23.594Z"/>
        <path class="petal" d="M24.764 96.849c6.817 4.684 14.222 7.467 22.582 7.08a23.036 23.036 0 0 0 14.86-6.478 5.671 5.671 0 0 0 1.36-4.663c-1.978-8.179-6.646-14.266-14.726-17.742C34.483 68.868 20.7 71.57 6.086 76.7c5.314 8.341 11.152 14.979 18.678 20.149Z"/>
        <path class="petal" d="M23.709 115.144c7.642 3.164 15.463 4.346 23.561 2.23a23.043 23.043 0 0 0 13.189-9.426 5.671 5.671 0 0 0 .361-4.844c-3.636-7.589-9.468-12.573-18.094-14.293-15.328-3.058-28.248 2.45-41.477 10.5 6.929 7.062 14.024 12.34 22.46 15.833Z"/>
        <path class="petal" d="M26.481 133.257c8.133 1.506 16.029 1.037 23.509-2.717a23.041 23.041 0 0 0 10.941-11.962 5.67 5.67 0 0 0-.654-4.813c-5.135-6.667-11.876-10.33-20.67-10.219-15.629.2-27.121 8.27-38.387 18.9 8.245 5.461 16.28 9.154 25.261 10.811Z"/>
        <path class="petal" d="M32.958 150.4c8.268-.218 15.894-2.319 22.431-7.546a23.037 23.037 0 0 0 8.211-13.976 5.67 5.67 0 0 0-1.64-4.572c-6.409-5.454-13.764-7.635-22.343-5.7-15.243 3.443-24.806 13.73-33.617 26.469 9.2 3.625 17.83 5.565 26.958 5.325Z"/>
        <path class="petal" d="M42.857 165.82c8.042-1.933 15.065-5.573 20.372-12.045a23.039 23.039 0 0 0 5.129-15.375 5.672 5.672 0 0 0-2.555-4.131c-7.4-4-15.05-4.606-23.039-.928-14.2 6.536-21.413 18.586-27.381 32.878 9.754 1.634 18.596 1.734 27.474-.399Z"/>
        <path class="petal" d="M55.747 178.845c7.465-3.562 13.577-8.583 17.422-16.017a23.039 23.039 0 0 0 1.82-16.108 5.671 5.671 0 0 0-3.358-3.51c-8.073-2.375-15.679-1.376-22.728 3.883-12.529 9.344-17.08 22.631-19.947 37.852 9.88-.427 18.55-2.167 26.791-6.1Z"/>
        <path class="petal" d="M71.062 188.906c6.561-5.036 11.5-11.219 13.712-19.289a23.04 23.04 0 0 0-1.569-16.135 5.67 5.67 0 0 0-4.014-2.735c-8.39-.645-15.623 1.914-21.425 8.523-10.312 11.746-12 25.689-11.641 41.173 9.575-2.472 17.695-5.977 24.937-11.537Z"/>
        <path class="petal" d="M88.135 195.562c5.371-6.29 8.912-13.363 9.4-21.718a23.039 23.039 0 0 0-4.889-15.456 5.668 5.668 0 0 0-4.5-1.84c-8.341 1.113-14.883 5.119-19.184 12.791-7.644 13.633-6.4 27.622-2.826 42.693 8.858-4.409 16.071-9.525 21.999-16.47Z"/>
        <path class="petal" d="M106.219 198.524c3.945-7.27 5.939-14.924 4.68-23.2a23.038 23.038 0 0 0-8-14.1 5.674 5.674 0 0 0-4.78-.866c-7.927 2.823-13.494 8.1-16.106 16.5-4.643 14.924-.516 28.349 6.112 42.348 7.747-6.153 13.739-12.657 18.094-20.682Z"/>
        <path class="petal" d="M124.523 197.661c2.348-7.931 2.706-15.833-.245-23.665a23.042 23.042 0 0 0-10.753-12.131 5.671 5.671 0 0 0-4.855.147c-7.167 4.41-11.514 10.731-12.323 19.489-1.439 15.563 5.389 27.837 14.783 40.152 6.294-7.629 10.802-15.237 13.393-23.992Z"/>
        <path class="petal" d="M142.248 193.011c.648-8.246-.645-16.049-5.16-23.1a23.038 23.038 0 0 0-13.04-9.631 5.67 5.67 0 0 0-4.719 1.154c-6.093 5.8-9.031 12.89-8 21.624 1.829 15.523 11.06 26.108 22.808 36.2 4.569-8.765 7.397-17.144 8.111-26.247Z"/>
        <path class="petal" d="M158.619 184.778c-1.081-8.2-3.968-15.565-9.849-21.519a23.043 23.043 0 0 0-14.758-6.709 5.669 5.669 0 0 0-4.375 2.109c-4.754 6.944-6.155 14.486-3.331 22.816 5.015 14.8 16.245 23.238 29.835 30.668 2.648-9.529 3.672-18.313 2.478-27.365Z"/>
        <path class="petal" d="M172.92 173.321c-2.762-7.8-7.117-14.4-14.108-19a23.04 23.04 0 0 0-15.83-3.494 5.668 5.668 0 0 0-3.841 2.972c-3.207 7.781-3.008 15.45 1.485 23.01 7.984 13.437 20.723 19.353 35.56 23.8.608-9.877-.216-18.682-3.266-27.288Z"/>
        <path class="petal" d="M184.527 159.14c-4.323-7.051-9.956-12.6-17.751-15.652a23.039 23.039 0 0 0-16.21-.127 5.672 5.672 0 0 0-3.139 3.707c-1.519 8.277.27 15.737 6.237 22.2 10.6 11.483 24.293 14.622 39.73 15.881-1.458-9.783-4.094-18.224-8.867-26.009Z"/>
        <path class="petal" d="M192.931 142.857c-5.694-6-12.358-10.26-20.616-11.62a23.04 23.04 0 0 0-15.883 3.247 5.669 5.669 0 0 0-2.3 4.278c.236 8.412 3.536 15.337 10.716 20.416 12.759 9.028 26.8 9.251 42.164 7.274-3.459-9.265-7.794-16.973-14.081-23.595Z"/>
        <path class="petal" d="M197.767 125.182c-6.817-4.684-14.222-7.467-22.582-7.08a23.039 23.039 0 0 0-14.86 6.478 5.671 5.671 0 0 0-1.361 4.663c1.979 8.179 6.648 14.267 14.727 17.742 14.357 6.178 28.14 3.477 42.755-1.651-5.311-8.344-11.153-14.982-18.679-20.152Z"/>
        <path class="petal" d="M198.822 106.888c-7.642-3.164-15.463-4.347-23.561-2.23a23.031 23.031 0 0 0-13.188 9.426 5.668 5.668 0 0 0-.361 4.844c3.636 7.588 9.468 12.573 18.093 14.292 15.328 3.058 28.248-2.45 41.477-10.5-6.928-7.061-14.023-12.34-22.46-15.832Z"/>
        <path class="petal" d="M196.05 88.774c-8.132-1.506-16.028-1.036-23.509 2.717a23.04 23.04 0 0 0-10.941 11.962 5.673 5.673 0 0 0 .654 4.814c5.135 6.666 11.876 10.329 20.67 10.218 15.629-.2 27.121-8.27 38.387-18.9-8.245-5.461-16.282-9.149-25.261-10.811Z"/>
        <path class="petal" d="M189.573 71.632c-8.268.218-15.894 2.319-22.43 7.546a23.039 23.039 0 0 0-8.215 13.975 5.673 5.673 0 0 0 1.64 4.572c6.409 5.454 13.764 7.635 22.343 5.7 15.246-3.443 24.809-13.725 33.619-26.469-9.2-3.628-17.83-5.565-26.957-5.324Z"/>
        <path class="petal" d="M179.674 56.212c-8.042 1.932-15.065 5.573-20.372 12.045a23.036 23.036 0 0 0-5.129 15.378 5.671 5.671 0 0 0 2.555 4.131c7.4 4 15.05 4.606 23.039.928 14.2-6.536 21.413-18.586 27.381-32.878-9.748-1.638-18.596-1.738-27.474.396Z"/>
        <path class="petal" d="M166.785 43.186c-7.465 3.562-13.577 8.583-17.423 16.017a23.039 23.039 0 0 0-1.82 16.108 5.672 5.672 0 0 0 3.358 3.51c8.073 2.376 15.679 1.376 22.729-3.883 12.528-9.345 17.08-22.632 19.947-37.853-9.876.428-18.551 2.169-26.791 6.101Z"/>
        <path class="petal" d="M151.469 33.126c-6.561 5.036-11.5 11.218-13.712 19.289a23.046 23.046 0 0 0 1.569 16.135 5.673 5.673 0 0 0 4.015 2.735c8.39.645 15.622-1.913 21.424-8.523 10.312-11.745 12-25.688 11.641-41.173-9.575 2.471-17.694 5.976-24.937 11.537Z"/>
        <path class="petal" d="M134.4 26.469c-5.371 6.29-8.912 13.363-9.4 21.718a23.041 23.041 0 0 0 4.889 15.456 5.671 5.671 0 0 0 4.5 1.84c8.341-1.113 14.883-5.12 19.185-12.791 7.644-13.633 6.4-27.622 2.826-42.693-8.863 4.409-16.075 9.525-22 16.47Z"/>
        <path class="petal" d="M116.312 23.507c-3.945 7.27-5.939 14.924-4.68 23.2a23.035 23.035 0 0 0 8 14.1 5.67 5.67 0 0 0 4.779.866c7.928-2.823 13.494-8.1 16.106-16.5 4.643-14.924.516-28.349-6.112-42.348-7.746 6.153-13.738 12.657-18.093 20.682Z"/>
        <path class="petal" d="M98.008 24.37c-2.348 7.93-2.708 15.83.245 23.665a23.041 23.041 0 0 0 10.753 12.131 5.671 5.671 0 0 0 4.855-.147c7.167-4.41 11.515-10.731 12.323-19.489C127.623 24.967 120.8 12.694 111.4.379c-6.292 7.628-10.8 15.236-13.392 23.991Z"/>
    </g>
    <text xml:space="preserve" style="font-size:26.6667px;fill:#000" x="111.239" y="33.873"><tspan x="111.239" y="33.873" style="font-weight:700;font-size:26.6667px;text-align:center;text-anchor:middle">Set</tspan><tspan x="111.239" y="67.206" style="font-weight:700;font-size:26.6667px;text-align:center;text-anchor:middle">$wgLogos</tspan><tspan x="111.239" y="100.539" style="font-weight:700;font-size:26.6667px;text-align:center;text-anchor:middle">with the URL</tspan><tspan x="111.239" y="133.873" style="font-weight:700;font-size:26.6667px;text-align:center;text-anchor:middle">path to your</tspan><tspan x="111.239" y="167.206" style="font-weight:700;font-size:26.6667px;text-align:center;text-anchor:middle">own logo</tspan><tspan x="111.239" y="200.54" style="font-weight:700;font-size:26.6667px;text-align:center;text-anchor:middle">image</tspan></text>
</svg>
