<svg xmlns="http://www.w3.org/2000/svg" width="25" height="25" viewBox="0 0 25 25">
	<defs>
		<linearGradient id="gradient" x1="0" x2="25" y1="25" y2="0" gradientUnits="userSpaceOnUse">
			<stop offset="0%" stop-color="#0a00b2"/>
			<stop offset="50%" stop-color="red"/>
			<stop offset="100%" stop-color="#fffc00"/>
		</linearGradient>
		<style>
			.petal{opacity:.65}
		</style>
	</defs>
	<g id="petals" style="fill:url(#gradient)">
		<path d="M7.068 4.359A3.87 3.87 0 0 0 8.2 7.024a3 3 0 0 0 1.973.787.92.92 0 0 0 .628-.281 3 3 0 0 0 .7-2.876C10.97 2.815 9.5 1.8 7.7.915a8 8 0 0 0-.632 3.444" class="petal"/>
		<path d="M4.4 7.031a3.85 3.85 0 0 0 2.068 2.025 2.98 2.98 0 0 0 2.122-.031.92.92 0 0 0 .473-.5A3 3 0 0 0 8.617 5.6C7.42 4.1 5.678 3.728 3.676 3.607A8 8 0 0 0 4.4 7.031" class="petal"/>
		<path d="M2.959 10.524A3.83 3.83 0 0 0 5.638 11.6a3 3 0 0 0 1.949-.844.93.93 0 0 0 .246-.645A3 3 0 0 0 6.306 7.58c-1.675-.919-3.428-.6-5.324.06a8 8 0 0 0 1.977 2.884" class="petal"/>
		<path d="M2.956 14.307a3.82 3.82 0 0 0 2.885-.035 3 3 0 0 0 1.479-1.529.93.93 0 0 0-.02-.691A2.98 2.98 0 0 0 4.926 10.3c-1.9-.2-3.394.766-4.9 2.1a7.95 7.95 0 0 0 2.93 1.907" class="petal"/>
		<path d="M4.394 17.8a3.83 3.83 0 0 0 2.653-1.141 3.02 3.02 0 0 0 .784-1.981.93.93 0 0 0-.28-.631 2.97 2.97 0 0 0-2.863-.706c-1.831.54-2.844 2.013-3.722 3.824a7.9 7.9 0 0 0 3.428.635" class="petal"/>
		<path d="M7.054 20.479A3.85 3.85 0 0 0 9.07 18.4a3.02 3.02 0 0 0-.031-2.132.92.92 0 0 0-.5-.476 2.97 2.97 0 0 0-2.914.449c-1.486 1.2-1.86 2.953-1.982 4.964a7.9 7.9 0 0 0 3.411-.726" class="petal"/>
		<path d="M10.531 21.93a3.87 3.87 0 0 0 1.069-2.692 3.02 3.02 0 0 0-.841-1.958.92.92 0 0 0-.642-.248A2.98 2.98 0 0 0 7.6 18.567c-.914 1.683-.594 3.443.06 5.348a8 8 0 0 0 2.871-1.985" class="petal"/>
		<path d="M14.3 21.933a3.87 3.87 0 0 0-.035-2.9 3 3 0 0 0-1.522-1.486.92.92 0 0 0-.687.018 2.99 2.99 0 0 0-1.745 2.387c-.2 1.906.763 3.409 2.093 4.918a8 8 0 0 0 1.896-2.937" class="petal"/>
		<path d="M17.776 20.489a3.87 3.87 0 0 0-1.136-2.665 3 3 0 0 0-1.973-.788.92.92 0 0 0-.628.281 3 3 0 0 0-.7 2.876c.538 1.839 2 2.857 3.807 3.739a8 8 0 0 0 .63-3.443" class="petal"/>
		<path d="M20.441 17.817a3.85 3.85 0 0 0-2.065-2.025 2.98 2.98 0 0 0-2.122.031.92.92 0 0 0-.473.5 3 3 0 0 0 .447 2.927c1.2 1.493 2.94 1.869 4.942 1.991a8 8 0 0 0-.729-3.424" class="petal"/>
		<path d="M21.885 14.324a3.83 3.83 0 0 0-2.679-1.077 3 3 0 0 0-1.949.844.93.93 0 0 0-.246.645 3 3 0 0 0 1.528 2.533c1.675.919 3.428.6 5.324-.06a8 8 0 0 0-1.978-2.885" class="petal"/>
		<path d="M21.888 10.541a3.82 3.82 0 0 0-2.888.035 3 3 0 0 0-1.479 1.529.93.93 0 0 0 .018.691 2.98 2.98 0 0 0 2.376 1.753c1.9.2 3.394-.767 4.9-2.1a8 8 0 0 0-2.927-1.908" class="petal"/>
		<path d="M20.451 7.046A3.83 3.83 0 0 0 17.8 8.187a3.02 3.02 0 0 0-.784 1.982.93.93 0 0 0 .28.631 2.97 2.97 0 0 0 2.863.706c1.831-.54 2.844-2.013 3.722-3.824a7.9 7.9 0 0 0-3.43-.636" class="petal"/>
		<path d="M17.791 4.369a3.85 3.85 0 0 0-2.016 2.074 3.02 3.02 0 0 0 .031 2.132.92.92 0 0 0 .5.476 2.97 2.97 0 0 0 2.912-.451C20.7 7.4 21.079 5.649 21.2 3.638a7.9 7.9 0 0 0-3.409.731" class="petal"/>
		<path d="M14.313 2.918a3.87 3.87 0 0 0-1.072 2.692 3.02 3.02 0 0 0 .84 1.958.92.92 0 0 0 .642.248 2.98 2.98 0 0 0 2.522-1.536c.914-1.683.594-3.443-.06-5.348a8 8 0 0 0-2.872 1.986" class="petal"/>
		<path d="M10.548 2.915a3.87 3.87 0 0 0 .035 2.9A3 3 0 0 0 12.105 7.3a.92.92 0 0 0 .687-.018 2.99 2.99 0 0 0 1.745-2.387c.2-1.906-.763-3.409-2.093-4.918a8 8 0 0 0-1.896 2.938" class="petal"/>
	</g>
</svg>
