<?xml version="1.0" encoding="UTF-8"?>
<svg xmlns="http://www.w3.org/2000/svg" fill="none" viewBox="0 0 89 31">
	<path fill="#000" d="m41.916 24.41-.01-8.146h-1.123l-2.865 5.394-2.917-5.394h-1.125v8.146h1.3v-5.33l2.414 4.399h.611l2.415-4.47.01 5.395h1.29zm6.919-3.072a3.7 3.7 0 0 0-.363-1.682A2.68 2.68 0 0 0 46 18.124a2.76 2.76 0 0 0-2.525 1.543 3.5 3.5 0 0 0-.372 1.634c-.01.57.123 1.13.383 1.642.245.475.622.869 1.086 1.135a3.43 3.43 0 0 0 2.932.151 2.4 2.4 0 0 0 .955-.756l-.703-.896a1.94 1.94 0 0 1-1.524.675 1.84 1.84 0 0 1-1.213-.4 1.72 1.72 0 0 1-.604-1.089h4.397q.021-.28.021-.43zm-2.836-2.049a1.48 1.48 0 0 1 1.07.419c.295.294.477.68.516 1.094h-3.182c.043-.417.231-.806.53-1.1A1.5 1.5 0 0 1 46 19.289m8.061-3.518v3.189a2.1 2.1 0 0 0-.787-.63 2.4 2.4 0 0 0-1.018-.209 2.69 2.69 0 0 0-2.463 1.513 3.97 3.97 0 0 0 0 3.334 2.68 2.68 0 0 0 2.463 1.524c.364.004.724-.071 1.056-.221a2.06 2.06 0 0 0 .803-.664v.803h1.26v-8.63h-1.319zm-1.646 7.475c-.3.005-.595-.077-.85-.235a1.65 1.65 0 0 1-.599-.681 2.5 2.5 0 0 1 0-2.049c.132-.278.34-.514.598-.681a1.63 1.63 0 0 1 1.7 0c.26.167.467.403.599.681a2.5 2.5 0 0 1 0 2.049 1.66 1.66 0 0 1-.598.681 1.56 1.56 0 0 1-.85.235m4.471 1.163h1.31v-6.215h-1.311zm4.963-6.284a4.3 4.3 0 0 0-1.313.198 3.1 3.1 0 0 0-1.055.57l.515 1.055a2.2 2.2 0 0 1 .772-.454c.297-.108.611-.163.928-.163a1.42 1.42 0 0 1 1.045.352 1.35 1.35 0 0 1 .352 1.001v.093h-1.454a2.6 2.6 0 0 0-1.769.507 1.72 1.72 0 0 0-.561 1.344 1.76 1.76 0 0 0 .986 1.624c.344.164.722.244 1.102.234.37.01.738-.064 1.075-.216a1.57 1.57 0 0 0 .688-.622v.762h1.24v-3.644a2.7 2.7 0 0 0-.656-1.984 2.55 2.55 0 0 0-1.895-.658m-.179 5.307a1.2 1.2 0 0 1-.786-.234.77.77 0 0 1-.284-.63q0-.82 1.134-.82h1.352v.715a1.33 1.33 0 0 1-.54.716 1.57 1.57 0 0 1-.877.25zm13.76-7.17-1.876 6.227-1.857-6.227h-1.262l-1.9 6.192-1.826-6.192h-1.417l2.435 8.147h1.457l1.847-6.029 1.816 6.029h1.45l2.435-8.147zm2.131 8.147h1.312v-6.215H77.56zm7.054 0h1.595L83.647 20.8l2.346-2.607h-1.579l-2.72 2.794V15.78h-1.31v8.631h1.31v-1.642l.977-1.024zm2.183 0h1.312v-6.215h-1.313v6.215zm-29.252-7.036a.82.82 0 0 0 .604-.235.8.8 0 0 0 .235-.586.7.7 0 0 0-.242-.545.86.86 0 0 0-.598-.217.84.84 0 0 0-.598.227.78.78 0 0 0-.178.874.8.8 0 0 0 .178.258.84.84 0 0 0 .598.227zm20.676 0a.82.82 0 0 0 .604-.235.8.8 0 0 0 .235-.586.7.7 0 0 0-.242-.545.86.86 0 0 0-.598-.217.84.84 0 0 0-.598.227.78.78 0 0 0 0 1.132.84.84 0 0 0 .598.227zm9.236 0a.82.82 0 0 0 .604-.235.8.8 0 0 0 .234-.586.7.7 0 0 0-.241-.545.86.86 0 0 0-.598-.217.84.84 0 0 0-.598.227.78.78 0 0 0 0 1.132.84.84 0 0 0 .598.227zM36.136 9.916c.416.007.83-.053 1.227-.177a2.5 2.5 0 0 0 .889-.498 2.14 2.14 0 0 0 .544-.762 2.5 2.5 0 0 0 .184-.974 2.6 2.6 0 0 0-.17-.968 1.9 1.9 0 0 0-.525-.745 2.4 2.4 0 0 0-.886-.477 4.2 4.2 0 0 0-1.258-.17h-2.279v7.574h1.087V9.916zm-1.187-3.914h1.188c.261-.005.522.03.773.103.202.059.389.16.549.298.145.128.257.289.327.469.075.202.112.416.108.63.001.216-.039.429-.117.63a1.3 1.3 0 0 1-.336.487c-.16.142-.348.25-.551.317-.244.08-.5.12-.757.117h-1.184zm5.993 1.47c-.308.12-.586.31-.813.55-.23.25-.406.546-.515.868a3.74 3.74 0 0 0 0 2.288c.11.323.284.619.515.87.227.242.504.43.813.551a3.05 3.05 0 0 0 2.134 0c.306-.122.582-.31.807-.55a2.5 2.5 0 0 0 .512-.871 3.74 3.74 0 0 0 0-2.288 2.5 2.5 0 0 0-.512-.868 2.2 2.2 0 0 0-.807-.55 3.05 3.05 0 0 0-2.134 0m-.095 4.023a2.4 2.4 0 0 1-.383-1.457 2.43 2.43 0 0 1 .383-1.456 1.35 1.35 0 0 1 1.163-.522 1.33 1.33 0 0 1 1.15.522c.277.433.41.943.38 1.456a2.43 2.43 0 0 1-.38 1.457 1.34 1.34 0 0 1-1.15.517 1.35 1.35 0 0 1-1.163-.517m5.965 1.224h.755a.235.235 0 0 0 .228-.19l1.165-3.531q.041-.125.068-.254l.053-.256q.027.127.059.253c.032.126.045.168.072.252l1.146 3.536a.21.21 0 0 0 .2.19h.792l1.731-5.356h-.755a.3.3 0 0 0-.29.2l-1.003 3.34a9 9 0 0 0-.164.756 13 13 0 0 0-.196-.754L49.6 7.543a.27.27 0 0 0-.1-.14.3.3 0 0 0-.183-.055h-.43a.275.275 0 0 0-.275.195l-1.087 3.36-.112.386q-.052.185-.1.37a13 13 0 0 0-.153-.754l-.986-3.341a.3.3 0 0 0-.103-.142.32.32 0 0 0-.199-.059h-.79zm8.24-5.235c-.3.13-.57.321-.791.562a2.5 2.5 0 0 0-.499.84 3 3 0 0 0-.174 1.042c-.008.419.057.836.192 1.232.114.333.297.64.536.898.23.24.51.429.82.548a2.8 2.8 0 0 0 1.027.188q.294 0 .586-.047.297-.046.578-.15a2.7 2.7 0 0 0 .523-.258q.243-.155.427-.378l-.285-.363a.2.2 0 0 0-.184-.095.44.44 0 0 0-.222.08 5 5 0 0 1-.308.174q-.21.106-.433.175a2 2 0 0 1-.599.079 1.8 1.8 0 0 1-.67-.118 1.3 1.3 0 0 1-.516-.358 1.7 1.7 0 0 1-.337-.604 3 3 0 0 1-.14-.855h3.536a.2.2 0 0 0 .187-.079.65.65 0 0 0 .05-.312 2.9 2.9 0 0 0-.168-1.021 2.04 2.04 0 0 0-1.182-1.22 2.5 2.5 0 0 0-.897-.162 2.6 2.6 0 0 0-1.057.202m1.634.636a1.21 1.21 0 0 1 .681.751q.094.286.09.587h-2.846a1.82 1.82 0 0 1 .47-1.056 1.58 1.58 0 0 1 1.605-.282m3.794 4.599V9.358q.091-.243.22-.47.11-.195.274-.349.152-.141.346-.215c.141-.052.291-.077.441-.074q.161-.001.319.031.108.027.22.032a.16.16 0 0 0 .168-.142l.07-.75a.8.8 0 0 0-.273-.116 1.4 1.4 0 0 0-.33-.038 1.35 1.35 0 0 0-.886.306 2.4 2.4 0 0 0-.622.839l-.064-.781a.36.36 0 0 0-.082-.211.33.33 0 0 0-.224-.06h-.574v5.359h1.002zm3.798-5.235c-.3.13-.57.321-.792.562a2.5 2.5 0 0 0-.498.84 3 3 0 0 0-.175 1.042 3.6 3.6 0 0 0 .192 1.232c.114.333.297.64.536.898.23.24.51.429.821.548a2.8 2.8 0 0 0 1.026.188q.294 0 .586-.047.296-.046.578-.15a2.7 2.7 0 0 0 .523-.258 1.9 1.9 0 0 0 .427-.378l-.285-.363a.2.2 0 0 0-.184-.095.44.44 0 0 0-.221.08 5 5 0 0 1-.309.174q-.21.106-.432.175a2 2 0 0 1-.6.079 1.8 1.8 0 0 1-.67-.118 1.3 1.3 0 0 1-.515-.358 1.7 1.7 0 0 1-.338-.604 3 3 0 0 1-.14-.855h3.536a.2.2 0 0 0 .188-.079c.04-.1.056-.208.044-.315a2.9 2.9 0 0 0-.169-1.022 2.1 2.1 0 0 0-.469-.751 2 2 0 0 0-.713-.47 2.5 2.5 0 0 0-.897-.16 2.6 2.6 0 0 0-1.053.205zm1.633.636a1.2 1.2 0 0 1 .681.751q.094.286.09.587h-2.847a1.82 1.82 0 0 1 .47-1.056 1.58 1.58 0 0 1 1.604-.282zm7.259 4.599V4.936h-1.003V7.88a1.83 1.83 0 0 0-1.446-.612 2.1 2.1 0 0 0-.965.214c-.282.14-.53.34-.728.586a2.7 2.7 0 0 0-.459.884 3.7 3.7 0 0 0-.158 1.106c-.006.396.042.79.142 1.173.08.309.22.6.41.857.166.224.385.404.637.525.26.121.544.181.832.177q.27.005.532-.06.245-.06.47-.181.222-.12.415-.285.198-.17.365-.372l.09.629a.246.246 0 0 0 .263.2h.603zm-2.966-.842a1 1 0 0 1-.411-.344 1.7 1.7 0 0 1-.26-.599 3.7 3.7 0 0 1-.089-.876 2.46 2.46 0 0 1 .39-1.499 1.3 1.3 0 0 1 1.115-.52 1.6 1.6 0 0 1 .665.136c.222.107.413.268.554.469v2.562a2.2 2.2 0 0 1-.622.578 1.5 1.5 0 0 1-.787.203 1.35 1.35 0 0 1-.555-.11m7.747.842a.234.234 0 0 0 .253-.211l.048-.46c.17.223.381.41.625.547.273.14.577.209.884.198a2.06 2.06 0 0 0 1.682-.795c.209-.273.365-.582.46-.913.11-.384.165-.782.16-1.182a4 4 0 0 0-.14-1.095 2.4 2.4 0 0 0-.403-.82 1.8 1.8 0 0 0-.641-.52 1.9 1.9 0 0 0-.847-.182 2 2 0 0 0-.968.227 2.7 2.7 0 0 0-.758.612v-3.19h-1.004v7.784zm2.73-4.192c.263.42.385.913.347 1.407.04.549-.097 1.1-.39 1.562a1.33 1.33 0 0 1-1.125.517 1.6 1.6 0 0 1-.655-.135 1.46 1.46 0 0 1-.554-.469V8.861a2.3 2.3 0 0 1 .612-.587c.235-.139.505-.21.779-.202a1.17 1.17 0 0 1 .987.455m7.074-1.164h-.796a.3.3 0 0 0-.29.2l-1.34 3.262q-.048.117-.09.245l-.079.245a4 4 0 0 0-.142-.48l-1.387-3.272a.3.3 0 0 0-.301-.2h-.873l2.205 5.029-.982 2.126h.747a.35.35 0 0 0 .228-.061.44.44 0 0 0 .117-.177z"/>
	<path fill="url(#p)" d="M8.284 6.116A4.55 4.55 0 0 0 9.61 9.24a3.5 3.5 0 0 0 2.314.923 1.07 1.07 0 0 0 .736-.33 3.51 3.51 0 0 0 .821-3.373c-.623-2.16-2.35-3.35-4.457-4.384a9.4 9.4 0 0 0-.741 4.038z" opacity=".65"/>
	<path fill="url(#i)" d="M5.155 9.25a4.5 4.5 0 0 0 2.422 2.374c.806.293 1.69.28 2.488-.037.254-.117.452-.327.555-.586a3.51 3.51 0 0 0-.52-3.43c-1.41-1.75-3.45-2.19-5.795-2.335a9.4 9.4 0 0 0 .85 4.013" opacity=".65"/>
	<path fill="url(#h)" d="M3.465 13.345a4.48 4.48 0 0 0 3.143 1.262 3.5 3.5 0 0 0 2.286-.99 1.1 1.1 0 0 0 .288-.756A3.52 3.52 0 0 0 7.39 9.89c-1.96-1.08-4.02-.705-6.243.07a9.4 9.4 0 0 0 2.318 3.384" opacity=".65"/>
	<path fill="url(#g)" d="M3.462 17.781c1.09.429 2.3.414 3.383-.041a3.52 3.52 0 0 0 1.734-1.793 1.1 1.1 0 0 0-.02-.81 3.49 3.49 0 0 0-2.786-2.054c-2.231-.236-3.981.897-5.747 2.462a9.4 9.4 0 0 0 3.436 2.236" opacity=".65"/>
	<path fill="url(#f)" d="M5.148 21.877a4.5 4.5 0 0 0 3.11-1.338 3.53 3.53 0 0 0 .92-2.323 1.1 1.1 0 0 0-.328-.74 3.48 3.48 0 0 0-3.357-.828c-2.15.633-3.34 2.36-4.365 4.484a9.3 9.3 0 0 0 4.02.745" opacity=".65"/>
	<path fill="url(#e)" d="M8.267 25.019a4.5 4.5 0 0 0 2.364-2.438c.292-.81.28-1.7-.036-2.5a1.08 1.08 0 0 0-.586-.558 3.49 3.49 0 0 0-3.417.526c-1.74 1.41-2.18 3.46-2.325 5.821a9.3 9.3 0 0 0 4-.851" opacity=".65"/>
	<path fill="url(#d)" d="M12.345 26.72a4.53 4.53 0 0 0 1.254-3.157 3.53 3.53 0 0 0-.987-2.296 1.08 1.08 0 0 0-.752-.29 3.49 3.49 0 0 0-2.952 1.8c-1.07 1.97-.697 4.04.07 6.27a9.3 9.3 0 0 0 3.367-2.327" opacity=".65"/>
	<path fill="url(#c)" d="M16.764 26.724c.427-1.1.412-2.32-.041-3.4a3.52 3.52 0 0 0-1.785-1.743 1.08 1.08 0 0 0-.806.02c-.554.25-1.03.639-1.392 1.13s-.584 1.07-.654 1.67c-.234 2.24.895 4 2.455 5.767a9.35 9.35 0 0 0 2.223-3.444" opacity=".65"/>
	<path fill="url(#b)" d="M20.84 25.031c-.022-1.18-.5-2.3-1.332-3.125a3.5 3.5 0 0 0-2.314-.924 1.07 1.07 0 0 0-.736.33 3.51 3.51 0 0 0-.821 3.372c.63 2.16 2.35 3.35 4.464 4.384a9.4 9.4 0 0 0 .739-4.037" opacity=".65"/>
	<path fill="url(#a)" d="M23.966 21.897a4.5 4.5 0 0 0-2.421-2.375 3.5 3.5 0 0 0-2.489.037 1.08 1.08 0 0 0-.555.586 3.51 3.51 0 0 0 .525 3.432c1.41 1.75 3.45 2.19 5.795 2.335a9.4 9.4 0 0 0-.855-4.015" opacity=".65"/>
	<path fill="url(#o)" d="M25.659 17.801a4.48 4.48 0 0 0-3.142-1.263c-.857.04-1.67.391-2.285.99a1.1 1.1 0 0 0-.289.756 3.52 3.52 0 0 0 1.792 2.97c1.96 1.08 4.02.704 6.244-.07a9.4 9.4 0 0 0-2.32-3.383" opacity=".65"/>
	<path fill="url(#n)" d="M25.663 13.365a4.48 4.48 0 0 0-3.387.041 3.52 3.52 0 0 0-1.734 1.793c-.098.263-.09.553.021.81a3.49 3.49 0 0 0 2.786 2.056c2.23.234 3.98-.9 5.746-2.463a9.3 9.3 0 0 0-3.432-2.237" opacity=".65"/>
	<path fill="url(#m)" d="M23.977 9.266a4.5 4.5 0 0 0-3.109 1.338 3.53 3.53 0 0 0-.92 2.325c.011.28.129.545.33.74a3.48 3.48 0 0 0 3.357.828c2.15-.633 3.34-2.36 4.364-4.485a9.3 9.3 0 0 0-4.022-.746" opacity=".65"/>
	<path fill="url(#l)" d="M20.858 6.127a4.52 4.52 0 0 0-2.364 2.432c-.292.81-.279 1.7.036 2.5.116.256.326.456.587.559a3.49 3.49 0 0 0 3.417-.527c1.74-1.41 2.18-3.46 2.324-5.82a9.3 9.3 0 0 0-4 .856" opacity=".65"/>
	<path fill="url(#k)" d="M16.78 4.426a4.55 4.55 0 0 0-1.257 3.157c.038.86.388 1.68.985 2.296.204.19.474.295.753.29a3.49 3.49 0 0 0 2.957-1.8c1.07-1.97.696-4.04-.07-6.272a9.3 9.3 0 0 0-3.368 2.329" opacity=".65"/>
	<path fill="url(#j)" d="M12.364 4.422a4.55 4.55 0 0 0 .041 3.401 3.5 3.5 0 0 0 1.785 1.741c.26.098.55.09.805-.02a3.54 3.54 0 0 0 1.393-1.13c.36-.49.584-1.07.654-1.67.235-2.24-.895-4-2.455-5.767a9.35 9.35 0 0 0-2.223 3.445" opacity=".65"/>
	<defs>
		<linearGradient id="p" x1="-2.35" x2="29.312" y1="30.32" y2="1.004" gradientUnits="userSpaceOnUse">
			<stop offset="0" stop-color="#0A00B2"/>
			<stop offset=".5" stop-color="red"/>
			<stop offset="1" stop-color="#FFFC00"/>
		</linearGradient>
		<linearGradient id="i" x1="-2.35" x2="29.312" y1="30.321" y2="1.004" gradientUnits="userSpaceOnUse">
			<stop offset="0" stop-color="#0A00B2"/>
			<stop offset=".5" stop-color="red"/>
			<stop offset="1" stop-color="#FFFC00"/>
		</linearGradient>
		<linearGradient id="h" x1="-2.35" x2="29.312" y1="30.32" y2="1.004" gradientUnits="userSpaceOnUse">
			<stop offset="0" stop-color="#0A00B2"/>
			<stop offset=".5" stop-color="red"/>
			<stop offset="1" stop-color="#FFFC00"/>
		</linearGradient>
		<linearGradient id="g" x1="-2.35" x2="29.312" y1="30.32" y2="1.004" gradientUnits="userSpaceOnUse">
			<stop offset="0" stop-color="#0A00B2"/>
			<stop offset=".5" stop-color="red"/>
			<stop offset="1" stop-color="#FFFC00"/>
		</linearGradient>
		<linearGradient id="f" x1="-2.35" x2="29.312" y1="30.32" y2="1.004" gradientUnits="userSpaceOnUse">
			<stop offset="0" stop-color="#0A00B2"/>
			<stop offset=".5" stop-color="red"/>
			<stop offset="1" stop-color="#FFFC00"/>
		</linearGradient>
		<linearGradient id="e" x1="-2.35" x2="29.312" y1="30.32" y2="1.004" gradientUnits="userSpaceOnUse">
			<stop offset="0" stop-color="#0A00B2"/>
			<stop offset=".5" stop-color="red"/>
			<stop offset="1" stop-color="#FFFC00"/>
		</linearGradient>
		<linearGradient id="d" x1="-2.35" x2="29.312" y1="30.32" y2="1.004" gradientUnits="userSpaceOnUse">
			<stop offset="0" stop-color="#0A00B2"/>
			<stop offset=".5" stop-color="red"/>
			<stop offset="1" stop-color="#FFFC00"/>
		</linearGradient>
		<linearGradient id="c" x1="-2.35" x2="29.312" y1="30.321" y2="1.004" gradientUnits="userSpaceOnUse">
			<stop offset="0" stop-color="#0A00B2"/>
			<stop offset=".5" stop-color="red"/>
			<stop offset="1" stop-color="#FFFC00"/>
		</linearGradient>
		<linearGradient id="b" x1="-2.35" x2="29.312" y1="30.32" y2="1.004" gradientUnits="userSpaceOnUse">
			<stop offset="0" stop-color="#0A00B2"/>
			<stop offset=".5" stop-color="red"/>
			<stop offset="1" stop-color="#FFFC00"/>
		</linearGradient>
		<linearGradient id="a" x1="-2.35" x2="29.312" y1="30.32" y2="1.004" gradientUnits="userSpaceOnUse">
			<stop offset="0" stop-color="#0A00B2"/>
			<stop offset=".5" stop-color="red"/>
			<stop offset="1" stop-color="#FFFC00"/>
		</linearGradient>
		<linearGradient id="o" x1="-2.35" x2="29.312" y1="30.32" y2="1.004" gradientUnits="userSpaceOnUse">
			<stop offset="0" stop-color="#0A00B2"/>
			<stop offset=".5" stop-color="red"/>
			<stop offset="1" stop-color="#FFFC00"/>
		</linearGradient>
		<linearGradient id="n" x1="-2.35" x2="29.312" y1="30.32" y2="1.004" gradientUnits="userSpaceOnUse">
			<stop offset="0" stop-color="#0A00B2"/>
			<stop offset=".5" stop-color="red"/>
			<stop offset="1" stop-color="#FFFC00"/>
		</linearGradient>
		<linearGradient id="m" x1="-2.35" x2="29.312" y1="30.32" y2="1.004" gradientUnits="userSpaceOnUse">
			<stop offset="0" stop-color="#0A00B2"/>
			<stop offset=".5" stop-color="red"/>
			<stop offset="1" stop-color="#FFFC00"/>
		</linearGradient>
		<linearGradient id="l" x1="-2.35" x2="29.312" y1="30.32" y2="1.004" gradientUnits="userSpaceOnUse">
			<stop offset="0" stop-color="#0A00B2"/>
			<stop offset=".5" stop-color="red"/>
			<stop offset="1" stop-color="#FFFC00"/>
		</linearGradient>
		<linearGradient id="k" x1="-2.35" x2="29.312" y1="30.321" y2="1.004" gradientUnits="userSpaceOnUse">
			<stop offset="0" stop-color="#0A00B2"/>
			<stop offset=".5" stop-color="red"/>
			<stop offset="1" stop-color="#FFFC00"/>
		</linearGradient>
		<linearGradient id="j" x1="-2.35" x2="29.312" y1="30.32" y2="1.004" gradientUnits="userSpaceOnUse">
			<stop offset="0" stop-color="#0A00B2"/>
			<stop offset=".5" stop-color="red"/>
			<stop offset="1" stop-color="#FFFC00"/>
		</linearGradient>
	</defs>
</svg>
