<?xml version="1.0" encoding="UTF-8"?>
<svg xmlns="http://www.w3.org/2000/svg" width="11" height="11">
	<rect style="fill:#fff;stroke:#0645ad" width="10" height="10" ry="0.5" x="0.5" y="0.5" />
	<path style="fill:#0645ad" d="M 5.447,5.607 C 5.563,5.52 5.759,5.385 6.034,5.203 6.317,5.015 6.538,4.861 6.697,4.742 6.864,4.622 7.02,4.466 7.165,4.271 7.31,4.070 7.382,3.87 7.382,3.669 7.382,3.380 7.262,3.151 7.023,2.982 6.791,2.807 6.494,2.718 6.132,2.718 5.263,2.718 4.636,3.176 4.252,4.092 L 3.295,3.989 C 3.795,2.690 4.795,2.041 6.295,2.041 c 0.623,0 1.127,0.125 1.511,0.377 C 8.19,2.662 8.382,3.010 8.382,3.462 8.382,3.757 8.299,4.036 8.132,4.299 7.965,4.557 7.777,4.764 7.567,4.921 7.364,5.071 7.114,5.253 6.817,5.466 6.52,5.679 6.299,5.855 6.154,5.993 5.85,6.288 5.625,6.702 5.48,7.235 l -0.967,0 0.098,-0.386 C 4.676,6.599 4.792,6.360 4.958,6.134 5.132,5.902 5.295,5.727 5.447,5.607 M 4.056,8.891 4.284,7.950 l 1.087,0 -0.228,0.941 -1.087,0" />
</svg>
