<?xml version="1.0" encoding="UTF-8"?>
<svg width="60px" height="60px" viewBox="0 0 60 60" version="1.1" xmlns="http://www.w3.org/2000/svg" xmlns:xlink="http://www.w3.org/1999/xlink">
    <!-- Generator: Sketch 41.2 (35397) - http://www.bohemiancoding.com/sketch -->
    <title>wiktionary-icon</title>
    <desc>Created with Sketch.</desc>
    <defs>
        <rect id="path-1" x="0" y="0" width="38.7837838" height="45.5813953" rx="3"></rect>
        <mask id="mask-2" maskContentUnits="userSpaceOnUse" maskUnits="objectBoundingBox" x="0" y="0" width="38.7837838" height="45.5813953" fill="white">
            <use xlink:href="#path-1"></use>
        </mask>
    </defs>
    <g id="Page-1" stroke="none" stroke-width="1" fill="none" fill-rule="evenodd">
        <g id="wiktionary">
            <g id="Group" transform="translate(9.000000, 4.000000)">
                <rect id="Rectangle-5" fill="#000000" x="2.21621622" y="4.55813953" width="38.7837838" height="44.4418605" rx="3"></rect>
                <use id="Rectangle-5" stroke="#FFFFFF" mask="url(#mask-2)" stroke-width="4" fill="#000000" xlink:href="#path-1"></use>
                <rect id="Rectangle-5" fill="#000000" x="2.21621622" y="2.27906977" width="3.32432432" height="45.5813953" rx="1.66216216"></rect>
                <path d="M9.96584688,24.0254991 L12.5526201,16.7046287 L12.5953767,16.7046287 L15.1393934,24.0254991 L9.96584688,24.0254991 Z M11.4837056,14.8139535 L5.54054054,30.5109549 L7.61423481,30.5109549 L9.32449813,25.7842668 L15.7807422,25.7842668 L17.4482489,30.5109549 L19.6929695,30.5109549 L13.7284262,14.8139535 L11.4837056,14.8139535 Z M19.9922656,28.7521872 L19.9922656,30.5109549 L32.1351351,30.5109549 L32.1351351,28.7521872 L22.4080125,28.7521872 L31.8785956,16.5727212 L31.8785956,14.8139535 L20.7191275,14.8139535 L20.7191275,16.5727212 L29.484227,16.5727212 L19.9922656,28.7521872 Z" id="AZ" fill="#FFFFFF"></path>
            </g>
        </g>
    </g>
</svg>