<?xml version="1.0" encoding="UTF-8"?>
<svg width="60px" height="60px" viewBox="0 0 60 60" version="1.1" xmlns="http://www.w3.org/2000/svg" xmlns:xlink="http://www.w3.org/1999/xlink">
    <!-- Generator: Sketch 41.2 (35397) - http://www.bohemiancoding.com/sketch -->
    <title>wikispecies-icon</title>
    <desc>Created with Sketch.</desc>
    <defs>
        <path d="M30.7731558,0.186194824 C30.7731558,0.186194824 35.1530541,17.902764 16.3205992,24.2966289 C-2.5118558,30.6904937 1.3758711,49.1033824 1.3758711,49.1033824" id="path-1"></path>
        <path d="M30.7473572,49.159218 C30.7473572,49.159218 35.6539441,38.982551 16.3205992,25.0539186 C-3.01274582,11.1252862 1.37060607,0.169606006 1.37060607,0.169606006" id="path-2"></path>
    </defs>
    <g id="Page-1" stroke="none" stroke-width="1" fill="none" fill-rule="evenodd">
        <g id="wikispecies">
            <g id="Group-3" transform="translate(29.651065, 29.732290) rotate(-18.000000) translate(-29.651065, -29.732290) translate(3.651065, -0.267710)">
                <g id="Group-2" transform="translate(-0.000000, 0.000000)">
                    <path d="M16.0550183,26.1396841 L28.2093366,18.8733993" id="Line"></path>
                    <path d="M8.04887438,16.7717325 L25.4345247,6.48465118" id="Line" stroke="#000000" stroke-width="4" stroke-linecap="square"></path>
                    <path d="M25.407947,53.9559038 L42.7935973,43.6688225" id="Line" stroke="#000000" stroke-width="4" stroke-linecap="square"></path>
                    <path d="M15.372315,23.3571115 L32.7579654,13.0700302" id="Line" stroke="#000000" stroke-width="4" stroke-linecap="square"></path>
                    <path d="M23.3476093,40.6564377 L35.5019275,33.3901529" id="Line"></path>
                    <path d="M23.587979,44.4357028 L40.6040246,34.7578672" id="Line" stroke="#000000" stroke-width="4" stroke-linecap="square"></path>
                    <g id="Group" transform="translate(26.088934, 30.408062) rotate(-27.000000) translate(-26.088934, -30.408062) translate(10.088934, 5.408062)">
                        <g id="Path-2">
                            <use stroke="#FFFFFF" stroke-width="10" xlink:href="#path-1"></use>
                            <use stroke="#000000" stroke-width="5" xlink:href="#path-1"></use>
                        </g>
                        <g id="Path-2">
                            <use stroke="#FFFFFF" stroke-width="10" xlink:href="#path-2"></use>
                            <use stroke="#000000" stroke-width="5" xlink:href="#path-2"></use>
                        </g>
                    </g>
                </g>
            </g>
        </g>
    </g>
</svg>