<?xml version="1.0" encoding="UTF-8"?>
<svg width="60px" height="60px" viewBox="0 0 60 60" version="1.1" xmlns="http://www.w3.org/2000/svg" xmlns:xlink="http://www.w3.org/1999/xlink">
    <!-- Generator: Sketch 41.2 (35397) - http://www.bohemiancoding.com/sketch -->
    <title>wikinews-icon</title>
    <desc>Created with Sketch.</desc>
    <defs>
        <rect id="path-1" x="0" y="0" width="40.3125" height="44.3773585" rx="3"></rect>
        <mask id="mask-2" maskContentUnits="userSpaceOnUse" maskUnits="objectBoundingBox" x="0" y="0" width="40.3125" height="44.3773585" fill="white">
            <use xlink:href="#path-1"></use>
        </mask>
    </defs>
    <g id="Page-1" stroke="none" stroke-width="1" fill="none" fill-rule="evenodd">
        <g id="wikinews">
            <g id="Group-2" transform="translate(7.000000, 2.000000)">
                <g id="Group">
                    <use id="Rectangle" stroke="#000000" mask="url(#mask-2)" stroke-width="8" xlink:href="#path-1"></use>
                    <rect id="Rectangle-2" fill="#000000" x="5.87890625" y="7.10037736" width="14.2773438" height="15.0883019" rx="1"></rect>
                    <path d="M23.9355469,8.32075472 L33.2060822,8.32075472" id="Line" stroke="#000000" stroke-width="2" stroke-linecap="square"></path>
                    <path d="M23.9355469,13.8679245 L33.2060822,13.8679245" id="Line" stroke="#000000" stroke-width="2" stroke-linecap="square"></path>
                    <path d="M23.9355469,19.4150943 L33.2060822,19.4150943" id="Line" stroke="#000000" stroke-width="2" stroke-linecap="square"></path>
                    <path d="M22.5550667,30.509434 L33.1506715,30.509434" id="Line" stroke="#000000" stroke-width="2" stroke-linecap="square"></path>
                    <path d="M7.17212403,30.509434 L17.1811761,30.509434" id="Line" stroke="#000000" stroke-width="2" stroke-linecap="square"></path>
                    <path d="M7.17212403,35.1320755 L17.1811761,35.1320755" id="Line" stroke="#000000" stroke-width="2" stroke-linecap="square"></path>
                    <path d="M22.5550667,35.1320755 L33.1506715,35.1320755" id="Line" stroke="#000000" stroke-width="2" stroke-linecap="square"></path>
                    <path d="M7.12514628,24.9622642 L33.2060822,24.9622642" id="Line" stroke="#000000" stroke-width="2" stroke-linecap="square"></path>
                </g>
                <path d="M42.1813257,4.62264151 C43.7380365,4.62264151 45,5.85586295 45,7.39864403 L45,46.2239975 C45,47.7571413 43.7493218,49 42.1813257,49 L7.50617429,49 C5.94946346,49 4.6875,47.7667786 4.6875,46.2239975" id="Rectangle" stroke="#000000" stroke-width="4"></path>
            </g>
        </g>
    </g>
</svg>