<?xml version="1.0" encoding="UTF-8"?>
<svg width="60px" height="60px" viewBox="0 0 60 60" version="1.1" xmlns="http://www.w3.org/2000/svg" xmlns:xlink="http://www.w3.org/1999/xlink">
    <!-- Generator: Sketch 41.2 (35397) - http://www.bohemiancoding.com/sketch -->
    <title>wikivoyage-icon</title>
    <desc>Created with Sketch.</desc>
    <defs></defs>
    <g id="Page-1" stroke="none" stroke-width="1" fill="none" fill-rule="evenodd">
        <g id="wikivoyage">
            <circle id="Oval" stroke="#000000" stroke-width="5" cx="30.5" cy="29.5" r="22.5"></circle>
            <polygon id="Line" fill="#000000" points="7.94117647 26 51.7647059 26 51.7647059 21 7.94117647 21"></polygon>
            <polygon id="Line" fill="#000000" points="11 41 51.7647059 41 51.7647059 36 11 36"></polygon>
            <path d="M33.3291453,53.239081 C33.3291453,53.239081 36.1487341,50.645866 37.4655139,48.564933 C41.2810931,42.5350981 43.5882353,36.2426616 43.5882353,29.9411765 C43.5882353,23.6228427 41.2687791,17.4752409 37.4345128,11.7108181 C36.1106408,9.72051335 34.6944337,8.91628537 33.2755423,7.32564334 C32.4145319,6.36041143 26.8207622,5.36041143 25.9597518,6.32564334 C24.5408604,7.91628537 23.1246533,9.72051335 21.8007813,11.7108181 C17.9665151,17.4752409 15.6470588,23.6228427 15.6470588,29.9411765 C15.6470588,36.2426616 17.954201,42.5350981 21.7697802,48.564933 C23.08656,50.645866 26.9061488,53.239081 26.9061488,53.239081 L33.3291453,53.239081 Z M25.9949257,45.8913313 C22.6413872,40.5916685 20.6470588,35.1523918 20.6470588,29.9411765 C20.6470588,24.7468098 22.6290732,19.4935807 25.9639246,14.4799765 C27.1264205,12.7322841 28.3724952,11.1396672 29.6176471,9.73642318 C30.8627989,11.1396672 32.1088737,12.7322841 33.2713695,14.4799765 C36.6062209,19.4935807 38.5882353,24.7468098 38.5882353,29.9411765 C38.5882353,35.1523918 36.5939069,40.5916685 33.2403685,45.8913313 C32.0874519,47.7133081 30.8528466,49.389908 29.6176471,50.8822433 C28.3824475,49.389908 27.1478422,47.7133081 25.9949257,45.8913313 Z" id="Oval" fill="#000000"></path>
        </g>
    </g>
</svg>