<?xml version="1.0" encoding="UTF-8"?>
<svg width="60px" height="60px" viewBox="0 0 60 60" version="1.1" xmlns="http://www.w3.org/2000/svg" xmlns:xlink="http://www.w3.org/1999/xlink">
    <!-- Generator: Sketch 41.2 (35397) - http://www.bohemiancoding.com/sketch -->
    <title>wikiversity-icon</title>
    <desc>Created with Sketch.</desc>
    <defs>
        <path d="M1.79361627,13.3306367 C-0.140465792,12.4757391 -0.144839204,11.0916093 1.78234628,10.2397601 L23.5026391,0.639016247 C25.4304969,-0.213130142 28.5529839,-0.214539335 30.4952998,0.64399778 L52.8863837,10.5412429 C54.8204658,11.3961405 54.8248392,12.7802702 52.8976537,13.6321195 L31.1773609,23.2328633 C29.2495031,24.0850097 26.1270161,24.0864189 24.1847002,23.2278818 L1.79361627,13.3306367 Z" id="path-1"></path>
        <mask id="mask-2" maskContentUnits="userSpaceOnUse" maskUnits="objectBoundingBox" x="-5" y="-5" width="64" height="33.8718796">
            <rect x="-4.66" y="-5" width="64" height="33.8718796" fill="white"></rect>
            <use xlink:href="#path-1" fill="black"></use>
        </mask>
        <circle id="path-3" cx="7" cy="27" r="5"></circle>
        <mask id="mask-4" maskContentUnits="userSpaceOnUse" maskUnits="objectBoundingBox" x="-3" y="-3" width="16" height="16">
            <rect x="-1" y="19" width="16" height="16" fill="white"></rect>
            <use xlink:href="#path-3" fill="black"></use>
        </mask>
    </defs>
    <g id="Page-1" stroke="none" stroke-width="1" fill="none" fill-rule="evenodd">
        <g id="wikiversity">
            <g id="Group-2" transform="translate(3.000000, 11.000000)">
                <path d="M8,16 L47,16 L47,31.89585 C47,31.89585 42.2783874,38.5113751 27.5,38.8710875 C12.7216126,39.2307999 8,31.89585 8,31.89585 L8,22.2392885 L8,16 Z" id="Rectangle-3" fill="#000000"></path>
                <g id="Rectangle">
                    <use fill="#000000" fill-rule="evenodd" xlink:href="#path-1"></use>
                    <use stroke="#F2F4F7" mask="url(#mask-2)" stroke-width="10" xlink:href="#path-1"></use>
                </g>
                <path d="M6.1310053,41.2112479 C5.27479784,42.0096083 10.4373919,43.6053602 11.2296387,43.6053602 C13.2555121,37.7460829 11.8321108,35.5517452 11.8321108,29.1181019 L11.8321108,21.2930015 C11.8321108,21.2930015 16.5515035,18.1566713 21.2216931,16.0206053 C25.8918828,13.8845392 31.215528,12.2538646 31.3550046,12.2096604 C32.1176432,11.9679575 31.2752162,9.09848389 30.5125776,9.34018676 C30.3644648,9.38712813 27.3667572,9.04545881 26.6057472,9.30621378 C24.4302064,10.0516482 11.7945726,16.3687146 9.43776817,19.1164347 C7.08096377,21.8641549 8.67910884,38.8352994 6.1310053,41.2112479 Z" id="Path-3" fill="#F2F4F7"></path>
                <g id="Oval-3">
                    <use fill="#000000" fill-rule="evenodd" xlink:href="#path-3"></use>
                    <use stroke="#F2F4F7" mask="url(#mask-4)" stroke-width="6" xlink:href="#path-3"></use>
                </g>
                <path d="M1.13550659,38.2112479 C0.245905063,39.0096083 7.57084983,40.6053602 8.39399608,40.6053602 C9.78724127,36.7270479 9.71041095,34.4853149 9.49920479,31.5470605 C9.43416647,30.6422615 9.35638589,29.6714145 9.30486594,28.5663921 C9.27092907,27.8384991 9.24838677,27.052387 9.24838677,26.1885838 C9.24838677,21.7929074 8.92187195,20.3988432 10.0589683,18.8611032 C10.5891389,18.1441327 14.9624282,15.1566713 19.814766,13.0206053 C24.6671038,10.8845392 30.1983835,9.25386462 30.3432999,9.20966036 C31.1356832,8.96795749 30.2603996,6.09848389 29.4680164,6.34018676 C29.3141268,6.38712813 27.238504,7.04545881 26.4478128,7.30621378 C24.187421,8.05164822 9.84272127,11.7529088 7.39399608,14.500629 C4.94527088,17.2483492 3.78299204,35.8352994 1.13550659,38.2112479 Z" id="Path-3" fill="#000000"></path>
            </g>
        </g>
    </g>
</svg>