<?xml version="1.0" encoding="UTF-8"?>
<svg width="60px" height="60px" viewBox="0 0 60 60" version="1.1" xmlns="http://www.w3.org/2000/svg" xmlns:xlink="http://www.w3.org/1999/xlink">
    <!-- Generator: Sketch 41.2 (35397) - http://www.bohemiancoding.com/sketch -->
    <title>wikiquote-icon</title>
    <desc>Created with Sketch.</desc>
    <defs></defs>
    <g id="Page-1" stroke="none" stroke-width="1" fill="none" fill-rule="evenodd">
        <g id="wikiquote" fill="#000000">
            <path d="M25.6795093,50 L25.6795093,29.5241523 L16.904146,29.5241523 C16.904146,26.2444546 17.52462,23.4744813 18.7655867,21.2141491 C20.0065533,18.9538169 22.3111712,17.2475134 25.6795093,16.0951872 L25.6795093,7.31982385 C22.9316545,7.67438575 20.383279,8.49429786 18.0343064,9.77958478 C15.6853338,11.0648717 13.6687932,12.6825361 11.9846241,14.6326266 C10.300455,16.5827171 8.99302762,18.8430154 8.06230261,21.4135892 C7.13157761,23.984163 6.71054166,26.7319766 6.79918214,29.6571123 L6.79918214,50 L25.6795093,50 Z M54,50 L54,29.5241523 L45.2246367,29.5241523 C45.2246367,26.2444546 45.8451107,23.4744813 47.0860774,21.2141491 C48.3270441,18.9538169 50.6316619,17.2475134 54,16.0951872 L54,7.31982385 C51.2521452,7.67438575 48.7037697,8.49429786 46.3547971,9.77958478 C44.0058245,11.0648717 41.9892839,12.6825361 40.3051148,14.6326266 C38.6209458,16.5827171 37.3135183,18.8430154 36.3827933,21.4135892 C35.4520683,23.984163 35.0310324,26.7319766 35.1196729,29.6571123 L35.1196729,50 L54,50 Z" id="“"></path>
        </g>
    </g>
</svg>