<?xml version="1.0" encoding="utf-8"?>
<!-- Generator: Adobe Illustrator 17.1.0, SVG Export Plug-In . SVG Version: 6.00 Build 0)  -->
<!DOCTYPE svg PUBLIC "-//W3C//DTD SVG 1.1//EN" "http://www.w3.org/Graphics/SVG/1.1/DTD/svg11.dtd">
<svg version="1.1" id="Layer_1" xmlns="http://www.w3.org/2000/svg" xmlns:xlink="http://www.w3.org/1999/xlink" x="0px" y="0px"
	 viewBox="0 0 96 96" enable-background="new 0 0 96 96" xml:space="preserve">
<path fill="#777777" d="M96,56.8V39.2l-10.8-1.8c-0.8-2.9-2-5.7-3.4-8.2l6.3-8.9L75.7,7.8l-8.9,6.3c-2.6-1.4-5.3-2.6-8.2-3.4L56.8,0
	H39.2l-1.8,10.8c-2.9,0.8-5.7,2-8.2,3.4l-8.9-6.3L7.8,20.3l6.3,8.9c-1.4,2.6-2.6,5.3-3.4,8.3L0,39.2v17.6l10.7,1.8
	c0.8,2.9,2,5.7,3.4,8.3l-6.3,8.9l12.4,12.4l8.9-6.3c2.6,1.4,5.3,2.6,8.3,3.4L39.2,96h17.6l1.8-10.8c2.9-0.8,5.7-2,8.2-3.4l8.9,6.3
	l12.4-12.4l-6.3-8.9c1.4-2.6,2.6-5.3,3.4-8.3L96,56.8z M48,66.4c-10.2,0-18.4-8.3-18.4-18.4c0-10.2,8.3-18.4,18.4-18.4
	S66.4,37.8,66.4,48C66.4,58.2,58.2,66.4,48,66.4z"/>
</svg>
