<?xml version="1.0" encoding="iso-8859-1"?>
<!DOCTYPE svg PUBLIC "-//W3C//DTD SVG 1.1//EN" "http://www.w3.org/Graphics/SVG/1.1/DTD/svg11.dtd">
<svg version="1.1" xmlns="http://www.w3.org/2000/svg" xmlns:xlink="http://www.w3.org/1999/xlink" x="0px" y="0px" width="24px"
	 height="24px" viewBox="0 0 24 24" style="enable-background:new 0 0 24 24;" xml:space="preserve">
<g id="picture" style="opacity:0.75;">
	<path id="frame" style="fill-rule:evenodd;clip-rule:evenodd;" d="M18,4H6C4,3.993,3,4.993,3,6.993L3.014,16C3,18,4,18.988,6,19h12
		c2-0.012,2.994-1,3-3.006V6.993C20.994,4.993,20,3.993,18,4z M19,17H5V6h14V17z"/>
	<polygon id="mountains" style="fill-rule:evenodd;clip-rule:evenodd;" points="6,13.5 9.5,10 11.828,12.312 10.516,13.406
		11.391,14.438 15.5,11 18,13 18,16 6,16"/>
	<polygon id="sky" style="fill-rule:evenodd;clip-rule:evenodd;" points="6,12 9.516,7.844 12.562,11.016 15.5,9 18,11 18,7 6,7"/>
</g>
</svg>
