<?xml version="1.0" encoding="iso-8859-1"?>
<!-- Generator: Adobe Illustrator 16.0.0, SVG Export Plug-In . SVG Version: 6.00 Build 0)  -->
<!DOCTYPE svg PUBLIC "-//W3C//DTD SVG 1.1//EN" "http://www.w3.org/Graphics/SVG/1.1/DTD/svg11.dtd">
<svg version="1.1" xmlns="http://www.w3.org/2000/svg" xmlns:xlink="http://www.w3.org/1999/xlink" x="0px" y="0px" width="24px"
	 height="24px" viewBox="0 0 24 24" style="enable-background:new 0 0 24 24;" xml:space="preserve">
<g id="search" style="opacity:0.75;">
	<path id="magnifying_glass" d="M16.021,15.96l-2.374-2.375c-0.048-0.047-0.105-0.079-0.169-0.099c0.403-0.566,0.643-1.26,0.643-2.009
		C14.12,9.557,12.563,8,10.644,8c-1.921,0-3.478,1.557-3.478,3.478c0,1.92,1.557,3.477,3.478,3.477c0.749,0,1.442-0.239,2.01-0.643
		c0.019,0.063,0.051,0.121,0.098,0.169l2.375,2.374c0.19,0.189,0.543,0.143,0.79-0.104S16.21,16.15,16.021,15.96z M10.644,13.69
		c-1.221,0-2.213-0.991-2.213-2.213c0-1.221,0.992-2.213,2.213-2.213c1.222,0,2.213,0.992,2.213,2.213
		C12.856,12.699,11.865,13.69,10.644,13.69z"/>
</g>
</svg>
