<?xml version="1.0" encoding="UTF-8"?><svg xmlns="http://www.w3.org/2000/svg" width="24" height="24" viewBox="0 0 24 24"><path d="M5 10H4a1 1 0 0 0-1 1v1a1 1 0 0 0 1 1h1a1 1 0 0 0 1-1v-1a1 1 0 0 0-1-1zM5 17H4a1 1 0 0 0-1 1v1a1 1 0 0 0 1 1h1a1 1 0 0 0 1-1v-1a1 1 0 0 0-1-1zM5 3H4a1 1 0 0 0-1 1v1a1 1 0 0 0 1 1h1a1 1 0 0 0 1-1V4a1 1 0 0 0-1-1zM20 17H9a1 1 0 0 0-1 1v1a1 1 0 0 0 1 1h11a1 1 0 0 0 1-1v-1a1 1 0 0 0-1-1zM20 10H9a1 1 0 0 0-1 1v1a1 1 0 0 0 1 1h11a1 1 0 0 0 1-1v-1a1 1 0 0 0-1-1zM20 3H9a1 1 0 0 0-1 1v1a1 1 0 0 0 1 1h11a1 1 0 0 0 1-1V4a1 1 0 0 0-1-1z"/></svg>