<?xml version="1.0" encoding="UTF-8"?><svg xmlns="http://www.w3.org/2000/svg" width="24" height="24" viewBox="0 0 24 24"><path d="M18 16v1h1.993l.03 1H19v1h1v1h-2v1h2.023L21 19.998v-1l-.956-.53.956-.5v-.97L19.993 16zM18 9v1h2.116L18 12.187v1.81l3-.06V13h-2.118L21 10.812V9.78L20.33 9zM19.993 2h-.648l-1.328 1.39.03.61h1.027l-.07 2H18v1h3V6h-1.038zM4 17h11a1 1 0 0 1 1 1v1a1 1 0 0 1-1 1H4a1 1 0 0 1-1-1v-1a1 1 0 0 1 1-1zM4 10h11a1 1 0 0 1 1 1v1a1 1 0 0 1-1 1H4a1 1 0 0 1-1-1v-1a1 1 0 0 1 1-1zM4 3h11a1 1 0 0 1 1 1v1a1 1 0 0 1-1 1H4a1 1 0 0 1-1-1V4a1 1 0 0 1 1-1z"/></svg>