<?xml version="1.0" encoding="iso-8859-1"?>
<!DOCTYPE svg PUBLIC "-//W3C//DTD SVG 1.1//EN" "http://www.w3.org/Graphics/SVG/1.1/DTD/svg11.dtd">
<svg version="1.1" xmlns="http://www.w3.org/2000/svg" xmlns:xlink="http://www.w3.org/1999/xlink" x="0px" y="0px" width="24px"
	 height="24px" viewBox="0 0 24 24" style="enable-background:new 0 0 24 24;" xml:space="preserve">
<g id="help" style="opacity:0.75;">
	<path id="circle" style="fill-rule:evenodd;clip-rule:evenodd;" d="M12.001,2.085c-5.478,0-9.916,4.438-9.916,9.916 c0,5.476,4.438,9.914,9.916,9.914c5.476,0,9.914-4.438,9.914-9.914C21.915,6.523,17.477,2.085,12.001,2.085z M12.002,20.085 c-4.465,0-8.084-3.619-8.084-8.083c0-4.465,3.619-8.084,8.084-8.084c4.464,0,8.083,3.619,8.083,8.084 C20.085,16.466,16.466,20.085,12.002,20.085z"/>
	<g id="question_mark">
		<path id="top" style="fill-rule:evenodd;clip-rule:evenodd;" d="M11.766,6.688c-2.5,0-3.219,2.188-3.219,2.188l1.411,0.854 c0,0,0.298-0.791,0.901-1.229c0.516-0.375,1.625-0.625,2.219,0.125c0.701,0.885-0.17,1.587-1.078,2.719 C11.047,12.531,11,15,11,15h1.969c0,0,0.135-2.318,1.041-3.381c0.603-0.707,1.443-1.338,1.443-2.494S14.266,6.688,11.766,6.688z"/>
		<rect id="bottom" x="11" y="16" style="fill-rule:evenodd;clip-rule:evenodd;" width="2" height="2"/>
	</g>
</g>
</svg>
