<?xml version="1.0" encoding="UTF-8"?>
<svg xmlns="http://www.w3.org/2000/svg" width="24" height="24" viewBox="0 0 24 24">
	<path d="M19 3v14c0 2.125-1.911 4-4 4H5V3zm-7.644 13.572h1.687v-1.601h-1.687zm-1.982-6.001a2.106 2.106 0 0 0 .609.987l.403.364.438.396c.134.127.251.273.353.428.103.159.179.346.233.555.054.214.081.473.081.783h1.36c0-.378-.018-.696-.058-.955a2.7 2.7 0 0 0-.183-.687 2.242 2.242 0 0 0-.309-.519 3.59 3.59 0 0 0-.434-.441l-.385-.332a2.15 2.15 0 0 1-.327-.341 1.513 1.513 0 0 1-.228-.419 1.671 1.671 0 0 1-.081-.551 1.5 1.5 0 0 1 .134-.66c.089-.182.197-.332.322-.441a1.35 1.35 0 0 1 .403-.246 1.17 1.17 0 0 1 .376-.077c.519 0 .904.173 1.15.519.246.346.371.81.371 1.392h1.436a3.77 3.77 0 0 0-.206-1.283 2.641 2.641 0 0 0-1.561-1.619 3.33 3.33 0 0 0-1.253-.223c-.385 0-.743.059-1.078.173a2.548 2.548 0 0 0-.868.5 2.304 2.304 0 0 0-.586.814 2.7 2.7 0 0 0-.215 1.101c.009.305.04.564.103.783z"/>
</svg>
