<?xml version="1.0" encoding="UTF-8"?>
<svg xmlns="http://www.w3.org/2000/svg" width="24" height="24" viewBox="0 0 24 24">
	<path d="M5 3v18h10c2 0 4-2 4-4V3zm7.644 13.572h-1.687v-1.6h1.687zm1.982-6a2.144 2.144 0 0 1-.25.563c-.104.16-.225.3-.36.423l-.402.364-.438.396c-.134.127-.25.273-.353.428-.103.16-.18.346-.233.555-.054.215-.08.474-.08.784h-1.36c0-.378.017-.696.057-.955.036-.26.098-.488.183-.688.085-.196.188-.37.31-.52.12-.15.267-.295.433-.44l.385-.332c.12-.105.233-.214.327-.34.098-.124.17-.265.228-.42a1.67 1.67 0 0 0 .08-.55c0-.256-.044-.48-.133-.66a1.397 1.397 0 0 0-.322-.442 1.35 1.35 0 0 0-.403-.246 1.17 1.17 0 0 0-.376-.077c-.52 0-.905.173-1.15.52-.247.345-.372.81-.372 1.39H8.962c0-.468.067-.895.206-1.282a2.641 2.641 0 0 1 1.561-1.619c.37-.15.79-.223 1.252-.223.385 0 .743.06 1.078.174.33.114.622.282.868.5.246.218.443.487.586.814.143.323.215.692.215 1.1-.01.306-.04.565-.104.784z"/>
</svg>
