<?xml version="1.0" encoding="UTF-8"?>
<svg xmlns="http://www.w3.org/2000/svg" width="24" height="24" viewBox="0 0 24 24">
	<path d="m 5,3 0,14 c 0,2.552 1.516,4 4,4 L 19,21 19,3 5,3 z m 9.375,3.78125 c 1.383569,0 2.655397,1.2079253 2.78125,2.625 0,0.83766 -0.373613,1.545585 -0.9375,2.125 l -1.65625,1.6875 c -0.438035,0.517306 -1.120698,0.8125 -1.875,0.8125 -1.132679,0 -1.902838,-0.689468 -2.40625,-1.65625 l 0.8125,-0.84375 c 0.312181,0.708538 0.776094,1.28125 1.65625,1.28125 0.37756,0 0.873293,-0.178438 1.125,-0.4375 l 1.65625,-1.6875 c 0.629266,-0.646428 0.629266,-1.666072 0,-2.3125 C 15.219068,8.1167557 14.75256,7.90625 14.375,7.90625 13.619881,7.90625 13.127595,8.4826941 12.625,9 12.312818,8.8708781 11.999682,8.84375 11.6875,8.84375 c -0.186328,0 -0.374147,0.03125 -0.5,0.03125 0.941448,-0.9046723 1.868493,-2.09375 3.1875,-2.09375 z M 11.09375,9.5625 c 1.132679,0 1.902837,0.720724 2.40625,1.6875 l -0.8125,0.8125 c -0.312182,-0.646428 -0.744844,-1.28125 -1.625,-1.28125 -0.37756,0 -0.873293,0.209689 -1.125,0.46875 l -1.65625,1.65625 c -0.6292663,0.579415 -0.6292663,1.666072 0,2.3125 0.3121814,0.258245 0.7474402,0.46875 1.125,0.46875 0.3775597,0 0.873293,-0.209688 1.125,-0.46875 l 0.5625,-0.59375 c 0.251706,0.12912 0.500318,0.15625 0.8125,0.15625 0.186328,0 0.376171,-3.9e-4 0.5625,-0.0625 L 11.3125,15.9375 c -0.941447,1.096721 -2.711924,1.033794 -3.71875,0 -1.0673009,-1.033795 -1.0673009,-2.774192 0,-3.875 l 1.625,-1.65625 C 9.6567847,9.8889443 10.339448,9.5625 11.09375,9.5625 z"/>
</svg>
