<?xml version="1.0" encoding="UTF-8"?>
<svg xmlns="http://www.w3.org/2000/svg" width="24" height="24" viewBox="0 0 24 24">
	<path d="M5 3v14c0 2.125 1.911 4 4 4h10V3zm7.644 13.572h-1.687v-1.601h1.687zm1.982-6.001a2.106 2.106 0 0 1-.609.987l-.403.364-.438.396a2.422 2.422 0 0 0-.353.428 1.881 1.881 0 0 0-.233.555 3.236 3.236 0 0 0-.081.783h-1.36c0-.378.018-.696.058-.955a2.7 2.7 0 0 1 .183-.687c.085-.196.188-.369.309-.519a3.59 3.59 0 0 1 .434-.441l.385-.332a2.15 2.15 0 0 0 .327-.341c.098-.123.17-.264.228-.419.054-.155.081-.337.081-.551a1.5 1.5 0 0 0-.134-.66 1.388 1.388 0 0 0-.322-.441 1.35 1.35 0 0 0-.403-.246 1.17 1.17 0 0 0-.376-.077c-.519 0-.904.173-1.15.519-.246.346-.371.81-.371 1.392H8.962c0-.469.067-.896.206-1.283a2.641 2.641 0 0 1 1.561-1.619 3.33 3.33 0 0 1 1.253-.223c.385 0 .743.059 1.078.173.331.114.622.282.868.5.246.218.443.487.586.814a2.7 2.7 0 0 1 .215 1.101c-.009.305-.04.564-.103.783z"/>
</svg>
