<?xml version="1.0" encoding="utf-8"?>
<svg xmlns="http://www.w3.org/2000/svg" width="24" height="24" viewBox="0 0 24 24">
    <g id="page-redirect">
        <path id="page" d="m 19,3 0,14 c 0,2.552 -1.516,4 -4,4 L 5,21 5,3 19,3 z M 9.625,6.78125 c -1.383569,0 -2.655397,1.2079253 -2.78125,2.625 0,0.83766 0.373613,1.545585 0.9375,2.125 l 1.65625,1.6875 c 0.438035,0.517306 1.120698,0.8125 1.875,0.8125 1.132679,0 1.902838,-0.689468 2.40625,-1.65625 l -0.8125,-0.84375 c -0.312181,0.708538 -0.776094,1.28125 -1.65625,1.28125 -0.37756,0 -0.873293,-0.178438 -1.125,-0.4375 L 8.46875,10.6875 C 7.839484,10.041072 7.839484,9.021428 8.46875,8.375 8.780932,8.1167557 9.24744,7.90625 9.625,7.90625 c 0.755119,0 1.247405,0.5764441 1.75,1.09375 0.312182,-0.1291219 0.625318,-0.15625 0.9375,-0.15625 0.186328,0 0.374147,0.03125 0.5,0.03125 C 11.871052,7.9703277 10.944007,6.78125 9.625,6.78125 z m 3.28125,2.78125 c -1.132679,0 -1.902837,0.720724 -2.40625,1.6875 l 0.8125,0.8125 c 0.312182,-0.646428 0.744844,-1.28125 1.625,-1.28125 0.37756,0 0.873293,0.209689 1.125,0.46875 l 1.65625,1.65625 c 0.629266,0.579415 0.629266,1.666072 0,2.3125 -0.312181,0.258245 -0.74744,0.46875 -1.125,0.46875 -0.37756,0 -0.873293,-0.209688 -1.125,-0.46875 L 12.90625,14.625 c -0.251706,0.12912 -0.500318,0.15625 -0.8125,0.15625 -0.186328,0 -0.376171,-3.9e-4 -0.5625,-0.0625 l 1.15625,1.21875 c 0.941447,1.096721 2.711924,1.033794 3.71875,0 1.067301,-1.033795 1.067301,-2.774192 0,-3.875 l -1.625,-1.65625 C 14.343215,9.8889443 13.660552,9.5625 12.90625,9.5625 z"/>
    </g>
</svg>
