<?xml version="1.0" encoding="utf-8"?>
<svg xmlns="http://www.w3.org/2000/svg" width="24" height="24" viewBox="0 0 24 24">
    <g id="page-not-found">
        <path id="page" d="m 5,3 0,14 c 0,2.125 1.911,4 4,4 l 10,0 0,-18 z m 7.644,13.572 -1.687,0 0,-1.601 1.687,0 z m 1.982,-6.001 c -0.063,0.218 -0.148,0.405 -0.251,0.564 -0.103,0.159 -0.224,0.3 -0.358,0.423 l -0.403,0.364 -0.438,0.396 c -0.134,0.127 -0.251,0.273 -0.353,0.428 -0.103,0.159 -0.179,0.346 -0.233,0.555 -0.054,0.214 -0.081,0.473 -0.081,0.783 l -1.36,0 c 0,-0.378 0.018,-0.696 0.058,-0.955 0.036,-0.259 0.098,-0.487 0.183,-0.687 0.085,-0.196 0.188,-0.369 0.309,-0.519 0.121,-0.15 0.268,-0.296 0.434,-0.441 l 0.385,-0.332 c 0.121,-0.105 0.233,-0.214 0.327,-0.341 0.098,-0.123 0.17,-0.264 0.228,-0.419 0.054,-0.155 0.081,-0.337 0.081,-0.551 0,-0.255 -0.045,-0.478 -0.134,-0.66 C 12.931,8.997 12.823,8.847 12.698,8.738 12.573,8.629 12.438,8.547 12.295,8.492 12.152,8.442 12.027,8.415 11.919,8.415 c -0.519,0 -0.904,0.173 -1.15,0.519 -0.246,0.346 -0.371,0.81 -0.371,1.392 l -1.436,0 C 8.962,9.857 9.029,9.43 9.168,9.043 9.307,8.661 9.508,8.329 9.772,8.056 10.036,7.783 10.354,7.569 10.729,7.424 11.1,7.274 11.521,7.201 11.982,7.201 c 0.385,0 0.743,0.059 1.078,0.173 0.331,0.114 0.622,0.282 0.868,0.5 0.246,0.218 0.443,0.487 0.586,0.814 0.143,0.323 0.215,0.692 0.215,1.101 -0.009,0.305 -0.04,0.564 -0.103,0.783 z"/>
    </g>
</svg>
