<?xml version="1.0" encoding="UTF-8"?>
<svg xmlns="http://www.w3.org/2000/svg" width="24" height="24" viewBox="0 0 24 24">
	<path d="M19 3v14c0 2.552-1.516 4-4 4H5V3h14zM9.625 6.781c-1.384 0-2.655 1.208-2.781 2.625 0 .838.373 1.546.937 2.125l1.657 1.688c.438.517 1.12.812 1.874.812 1.133 0 1.903-.69 2.407-1.656l-.813-.844c-.312.709-.776 1.281-1.656 1.281-.378 0-.873-.178-1.125-.437l-1.656-1.688a1.652 1.652 0 0 1 0-2.312c.312-.258.778-.469 1.156-.469.755 0 1.247.577 1.75 1.094.312-.13.625-.156.938-.156.186 0 .374.031.5.031-.942-.905-1.869-2.094-3.188-2.094zm3.281 2.782c-1.132 0-1.903.72-2.406 1.687l.813.813c.312-.647.744-1.282 1.624-1.282.378 0 .874.21 1.126.469l1.656 1.656c.629.58.629 1.666 0 2.313-.312.258-.748.469-1.125.469-.378 0-.874-.21-1.125-.47l-.563-.593c-.251.13-.5.156-.812.156-.187 0-.376 0-.563-.062l1.156 1.219c.942 1.096 2.712 1.033 3.72 0 1.067-1.034 1.067-2.775 0-3.876l-1.626-1.656a2.454 2.454 0 0 0-1.875-.844z"/>
</svg>
