<?xml version="1.0" encoding="UTF-8"?>
<svg xmlns="http://www.w3.org/2000/svg" width="20" height="20" viewBox="0 0 20 20">
	<path d="m15 1c1.1 0 2 0.9 2 2v14c0 1.1-0.9 2-2 2h-10c-1.1 0-2-0.9-2-2v-14c0-1.1 0.9-2 2-2zm-4.9805 4.2012c-0.385 0-0.74312 0.059828-1.0781 0.17383-0.33 0.114-0.62314 0.282-0.86914 0.5s-0.44294 0.48745-0.58594 0.81445c-0.143 0.323-0.21484 0.69161-0.21484 1.0996 0.01 0.306 0.041469 0.5642 0.10547 0.7832h-0.00391a2.144 2.144 0 0 0 0.25 0.5625c0.104 0.16 0.22633 0.30083 0.36133 0.42383l0.40234 0.36328 0.4375 0.39648c0.134 0.127 0.25052 0.27274 0.35352 0.42774 0.103 0.16 0.17942 0.34569 0.23242 0.55469 0.054 0.215 0.080078 0.47516 0.080078 0.78516h1.3594c0-0.378-0.01664-0.69608-0.05664-0.95508-0.036-0.26-0.09859-0.48945-0.18359-0.68945-0.085-0.196-0.18659-0.36953-0.30859-0.51953-0.12-0.15-0.26759-0.29445-0.43359-0.43945l-0.38476-0.33203c-0.12-0.105-0.23412-0.21384-0.32812-0.33984-0.098-0.124-0.16856-0.26492-0.22656-0.41992a1.67 1.67 0 0 1-0.080078-0.55078c0-0.256 0.043813-0.48016 0.13281-0.66016a1.397 1.397 0 0 1 0.32226-0.44141 1.35 1.35 0 0 1 0.40234-0.24609 1.17 1.17 0 0 1 0.375-0.078125c0.52 0 0.90539 0.17448 1.1504 0.52148 0.247 0.345 0.37305 0.80867 0.37305 1.3887h1.4336c0-0.468-0.06608-0.89425-0.20508-1.2812a2.641 2.641 0 0 0-1.5605-1.6191c-0.37-0.15-0.78995-0.22266-1.252-0.22266zm1.0234 7.7715h-1.6875v1.5996h1.6875z"/>
</svg>
