<?xml version="1.0" encoding="utf-8"?>
<!-- Generator: Adobe Illustrator 19.1.0, SVG Export Plug-In . SVG Version: 6.00 Build 0)  -->
<svg version="1.1" id="Layer_1" xmlns="http://www.w3.org/2000/svg" xmlns:xlink="http://www.w3.org/1999/xlink" x="0px" y="0px"
	 viewBox="0 0 150 150" style="enable-background:new 0 0 150 150;" xml:space="preserve">
<style type="text/css">
	.st0{fill:#FFFFFF;stroke:#000000;stroke-width:2;stroke-miterlimit:10;}
	.st1{fill-rule:evenodd;clip-rule:evenodd;}
</style>
<g>
	<circle class="st0" cx="74.9" cy="75.1" r="58.1"/>
	<g>
		<path class="st1" d="M74.1,63.4c-4-7.3-10.8-10.2-18.7-10.2c-11.5,0-20.6,8.1-20.6,21.9c0,14,8.6,21.9,21,21.9
			c8,0,14.8-4.4,18.5-11l-8.8-4.5c-2,4.7-4.9,6.1-8.7,6.1c-6.5,0-9.5-5.4-9.5-12.5c0-7.1,2.5-12.5,9.5-12.5c1.9,0,5.6,1,7.8,5.7
			L74.1,63.4z"/>
		<path class="st1" d="M114.8,63.4c-4-7.3-10.8-10.2-18.7-10.2c-11.5,0-20.6,8.1-20.6,21.9c0,14,8.6,21.9,21,21.9
			c8,0,14.8-4.4,18.5-11l-8.8-4.5c-2,4.7-4.9,6.1-8.7,6.1c-6.5,0-9.5-5.4-9.5-12.5c0-7.1,2.5-12.5,9.5-12.5c1.9,0,5.6,1,7.8,5.7
			L114.8,63.4z"/>
	</g>
</g>
<g>
</g>
<g>
</g>
<g>
</g>
<g>
</g>
<g>
</g>
<g>
</g>
</svg>
