<?xml version="1.0" encoding="utf-8"?>
<!-- Generator: Adobe Illustrator 19.1.0, SVG Export Plug-In . SVG Version: 6.00 Build 0)  -->
<svg version="1.1" id="Layer_1" xmlns="http://www.w3.org/2000/svg" xmlns:xlink="http://www.w3.org/1999/xlink" x="0px" y="0px"
	 viewBox="0 0 150 150" style="enable-background:new 0 0 150 150;" xml:space="preserve">
<style type="text/css">
	.st0{fill:#FFFFFF;stroke:#000000;stroke-width:2;stroke-miterlimit:10;}
</style>
<circle class="st0" cx="72.7" cy="62.5" r="47.1"/>
<path d="M76,128.8c34.8,0,63.2-28.3,63.2-63.2c0-18.3-7.9-34.9-20.4-46.4l11.8-11.8L129.1,6l-11.8,11.8c0,0,0,0,0,0l-1.4,1.4
	c13,11.2,21.3,27.8,21.3,46.4c0,33.7-27.4,61.2-61.2,61.2c-18.5,0-35.1-8.3-46.4-21.3l-0.4,0.4l0,0l-13,13l1.4,1.4l11.9-11.9
	c10.9,11.9,26.4,19.6,43.6,20.4v15.7H49.7v2h48.9v-2H75.1v-15.7C75.4,128.8,75.7,128.8,76,128.8z"/>
<g>
</g>
<g>
</g>
<g>
</g>
<g>
</g>
<g>
</g>
<g>
</g>
</svg>
